<?xml version="1.0" standalone="no"?> <!DOCTYPE svg PUBLIC "-//W3C//DTD SVG 1.0//EN" "http://www.w3.org/TR/2001/REC-SVG-20010904/DTD/svg10.dtd" > <svg xmlns="http://www.w3.org/2000/svg" width="100%" height="100%">
<defs >
<font id="light" horiz-adv-x="513" ><font-face
    font-family="Trade Gothic Next W01 Light"
    units-per-em="1000"
    panose-1="2 11 4 3 4 3 3 2 0 4"
    ascent="967"
    descent="-201"
    alphabetic="0" />
<missing-glyph horiz-adv-x="633" d="M72 0V718H561V0H72ZM510 670H123V48H510V670ZM278 279V318Q278 343 292 362T323 401T355 439T369 483Q369 509 355 520T318 532Q298 532 283 520T256 481L216 499Q247 575 318 575Q369 575 393 548T417 482Q417 452 402 429T370
385T337 347T322 310V279H278ZM268 151V217H330V151H268Z" />
<glyph unicode=" " glyph-name="null" horiz-adv-x="220" />
<glyph unicode="!" glyph-name="null" horiz-adv-x="278" d="M105 221L86 718H173L158 221H105ZM90 0V93H173V0H90Z" />
<glyph unicode="&quot;" glyph-name="null" horiz-adv-x="445" d="M116 475L100 718H177L161 475H116ZM283 475L267 718H344L328 475H283Z" />
<glyph unicode="#" glyph-name="null" horiz-adv-x="568" d="M120 0L150 216H33V276H159L183 447H66V507H191L221 718H275L245 507H364L394 718H448L418 507H535V447H409L385 276H502V216H376L346 0H293L323 216H203L173 0H120ZM212 276H332L356 447H236L212 276Z" />
<glyph unicode="$" glyph-name="null" horiz-adv-x="568" d="M263 -120V4Q194 6 138 34T36 135L89 171Q108 140 127 119T166 85T210 66T263 58V351Q226 363 191 377T129 412T84 463T67 540Q67 580 81 611T122 665T185 699T263 713V787H312V712Q368 707 414 682T495
609L449 571Q420 607 387 629T312 657V397Q349 385 385 370T450 330T496 272T514 187Q514 145 499 113T456 58T392 22T312 5V-120H263ZM452 187Q452 219 441 242T411 283T366 312T312 335V59Q342 62 367 71T411 96T441 134T452 187ZM124 540Q124 513 135 493T165
459T209 433T263 413V659Q201 656 163 627T124 540Z" />
<glyph unicode="%" glyph-name="null" horiz-adv-x="795" d="M199 450Q252 450 280 483T308 565Q308 613 280 647T199 681Q146 681 118 647T90 565Q90 516 118 483T199 450ZM199 401Q162 401 132 414T81 449T48 501T36 565Q36 599 47 629T80 682T132 717T199 730Q236
730 266 717T317 682T350 630T362 565Q362 531 351 502T318 450T266 414T199 401ZM158 -26L574 742H633L217 -26H158ZM596 37Q649 37 677 70T705 152Q705 200 677 234T596 268Q543 268 515 234T487 152Q487 103 515 70T596 37ZM596 -12Q559 -12 529 1T478 36T445
88T433 152Q433 186 444 216T477 269T529 304T596 317Q633 317 663 304T714 269T747 217T759 152Q759 118 748 89T715 37T663 1T596 -12Z" />
<glyph unicode="&amp;" glyph-name="null" horiz-adv-x="674" d="M641 -15Q610 -15 568 0T471 66Q429 28 377 8T262 -12Q215 -12 176 1T109 40T66 102T50 182Q50 226 64 260T102 320T156 368T218 409Q191 457 177 497T163 577Q163 652 201 691T309 730Q376 730
412 693T448 595Q448 558 436 529T402 476T354 431T298 392Q315 364 336 333T384 265Q407 231 428 204T470 153Q495 188 514 233T546 336L607 324Q591 260 568 207T512 111Q550 76 582 61T641 46V-15ZM264 39Q311 39 353 55T431 106Q408 131 384 161T334 231Q309
267 288 299T248 360Q221 342 197 324T153 283T123 236T112 178Q112 115 153 77T264 39ZM225 577Q225 545 236 512T269 440Q293 455 314 471T351 506T376 547T386 598Q386 631 367 654T309 677Q270 677 248 652T225 577Z" />
<glyph unicode="&apos;" glyph-name="null" horiz-adv-x="278" d="M116 475L100 718H177L161 475H116Z" />
<glyph unicode="(" glyph-name="null" horiz-adv-x="328" d="M198 -56Q173 -24 149 16T106 105T76 211T64 337Q64 405 75 462T106 569T149 658T198 730H270Q245 698 220 658T174 569T141 463T128 337Q128 269 141 212T174 105T219 16T270 -56H198Z" />
<glyph unicode=")" glyph-name="null" horiz-adv-x="328" d="M58 -56Q83 -24 108 16T154 105T187 211T200 337Q200 405 187 462T154 569T109 658T58 730H130Q155 698 179 658T222 569T252 463T264 337Q264 269 253 212T222 105T179 16T130 -56H58Z" />
<glyph unicode="*" glyph-name="null" horiz-adv-x="405" d="M275 425L203 539L129 423L86 455L172 559L41 593L58 644L184 595L176 730H230L222 595L348 644L364 593L233 560L319 456L275 425Z" />
<glyph unicode="+" glyph-name="null" horiz-adv-x="568" d="M310 233V15H259V233H40V281H259V489H310V281H528V233H310Z" />
<glyph unicode="," glyph-name="null" horiz-adv-x="278" d="M59 -150L119 0H80V93H167V0L101 -150H59Z" />
<glyph unicode="-" glyph-name="null" horiz-adv-x="330" d="M42 228V285H288V228H42Z" />
<glyph unicode="." glyph-name="null" horiz-adv-x="278" d="M80 0V93H167V0H80Z" />
<glyph unicode="/" glyph-name="null" horiz-adv-x="278" d="M-11 -56L232 730H289L46 -56H-11Z" />
<glyph unicode="0" glyph-name="null" horiz-adv-x="568" d="M284 -12Q228 -12 185 13T113 86T68 202T52 355Q52 535 112 632T284 730Q395 730 455 633T516 355Q516 270 501 202T456 87T383 14T284 -12ZM284 39Q365 39 409 121T454 355Q454 430 443 490T410 591T356
655T284 677Q243 677 212 655T159 592T126 490T114 355Q114 203 158 121T284 39Z" />
<glyph unicode="1" glyph-name="null" horiz-adv-x="568" d="M138 0V51H266V647L117 625V667L285 718H329V51H450V0H138Z" />
<glyph unicode="2" glyph-name="null" horiz-adv-x="568" d="M48 0V24Q48 54 57 80T82 130T119 176T163 219Q207 259 255 292T343 359T409 434T435 528Q435 600 396 637T287 675Q219 675 176 635T117 513L59 525Q66 573 86 611T136 676T204 716T287 730Q335 730
373 717T439 677T482 614T497 528Q497 465 465 416T387 327T290 251T200 181Q163 147 137 116T111 55H495V0H48Z" />
<glyph unicode="3" glyph-name="null" horiz-adv-x="568" d="M510 202Q510 150 492 110T441 43T365 2T268 -12Q86 -12 22 131L75 161Q93 128 112 105T154 68T205 47T268 41Q349 41 398 82T448 202Q448 282 387 321T220 360H176V415H214Q315 415 370 449T426 549Q426
606 387 640T275 675Q219 675 177 653T101 580L54 615Q92 671 149 700T275 730Q378 730 433 681T488 549Q488 495 458 455T363 391V389Q442 365 476 315T510 202Z" />
<glyph unicode="4" glyph-name="null" horiz-adv-x="568" d="M362 0V181H20V231L337 718H425V236H534V181H425V0H362ZM362 660H360L91 236H362V660Z" />
<glyph unicode="5" glyph-name="null" horiz-adv-x="568" d="M518 238Q518 180 501 134T453 56T377 6T276 -12Q195 -12 141 20T48 124L101 155Q130 95 172 68T276 41Q360 41 408 93T456 238Q456 326 410 376T284 427Q229 427 191 403T126 324L73 334L106 718H465V663H154L135
418H137Q173 451 210 465T294 479Q346 479 387 462T458 414T502 338T518 238Z" />
<glyph unicode="6" glyph-name="null" horiz-adv-x="568" d="M467 610Q435 643 401 659T324 675Q262 675 221 644T154 566T119 462T108 354H110Q156 410 207 429T305 449Q358 449 399 432T469 385T512 314T527 223Q527 171 510 128T462 54T388 6T293 -12Q173 -12
109 73T45 322Q45 365 50 412T68 504T101 590T153 662T226 711T324 730Q379 730 426 713T510 660L467 610ZM111 250Q111 209 122 171T157 104T214 57T293 39Q372 39 418 88T465 221Q465 303 421 350T296 397Q264 397 234 386T179 355T136 308T111 250Z" />
<glyph unicode="7" glyph-name="null" horiz-adv-x="568" d="M136 0L439 660H67V718H514V679L206 0H136Z" />
<glyph unicode="8" glyph-name="null" horiz-adv-x="568" d="M535 180Q535 86 467 37T280 -12Q223 -12 177 1T98 40T49 100T31 181Q31 247 71 295T206 376V378Q176 390 150 404T103 439T72 485T60 546Q60 634 118 682T283 730Q388 730 448 685T508 551Q508 525
501 501T477 455T432 413T362 379V377Q449 345 492 299T535 180ZM475 180Q475 218 458 244T413 290T348 324T273 352Q185 320 139 279T92 181Q92 115 143 77T280 39Q371 39 423 76T475 180ZM450 551Q450 610 405 645T283 681Q206 681 162 645T117 546Q117 516 132
495T171 457T228 428T296 403Q327 414 355 427T404 457T437 497T450 551Z" />
<glyph unicode="9" glyph-name="null" horiz-adv-x="568" d="M455 364Q409 308 358 289T260 269Q207 269 166 286T96 333T53 404T38 495Q38 547 55 590T103 664T177 712T272 730Q392 730 456 645T520 396Q520 331 508 260T464 128T378 28T241 -12Q186 -12 139
5T55 58L98 108Q130 75 164 59T241 43Q303 43 344 74T411 152T446 256T457 364H455ZM454 468Q454 509 443 547T408 614T351 661T272 679Q193 679 147 630T100 497Q100 415 144 368T269 321Q301 321 331 332T386 363T429 410T454 468Z" />
<glyph unicode=":" glyph-name="null" horiz-adv-x="278" d="M80 0V93H167V0H80ZM80 303V396H167V303H80Z" />
<glyph unicode=";" glyph-name="null" horiz-adv-x="278" d="M59 -150L119 0H80V93H167V0L101 -150H59ZM80 303V396H167V303H80Z" />
<glyph unicode="&lt;" glyph-name="null" horiz-adv-x="568" d="M71 227V287L480 467V408L124 257L480 106V47L71 227Z" />
<glyph unicode="=" glyph-name="null" horiz-adv-x="568" d="M40 327V375H528V327H40ZM40 139V187H528V139H40Z" />
<glyph unicode="&gt;" glyph-name="null" horiz-adv-x="568" d="M88 47V106L444 257L88 408V467L497 287V227L88 47Z" />
<glyph unicode="?" glyph-name="null" horiz-adv-x="397" d="M134 221V287Q134 328 159 361T214 426T269 495T294 580Q294 625 268 651T195 677Q175 677 159 673T128 659T101 632T76 586L26 607Q46 669 89 699T196 730Q272 730 314 689T357 578Q357 544 345 515T314
461T273 412T233 367T202 321T189 273V221H134ZM116 0V93H203V0H116Z" />
<glyph unicode="@" glyph-name="null" horiz-adv-x="785" d="M336 110Q373 110 401 131T449 184T479 252T489 317Q489 353 470 376T408 400Q372 400 346 381T302 332T276 268T267 203Q267 157 285 134T336 110ZM665 -51Q605 -95 538 -109T396 -124Q315 -124 251
-99T141 -29T72 79T48 220Q48 302 71 374T141 501T256 586T416 618Q489 618 547 599T647 542T711 449T733 321Q733 263 717 215T674 133T609 79T529 60Q503 60 481 69T447 114H445Q421 88 393 74T330 60Q298 60 275 71T237 102T215 148T208 203Q208 245 222 289T263
368T325 426T406 449Q443 449 470 437T515 390L535 432H585L509 174Q506 166 505 155T505 133T514 116T536 109Q568 109 594 126T639 172T668 239T679 321Q679 384 660 431T607 508T524 554T416 570Q335 570 276 543T178 469T121 358T102 220Q102 154 123 100T183
6T276 -54T396 -76Q466 -76 527 -60T634 -7L665 -51Z" />
<glyph unicode="A" glyph-name="null" horiz-adv-x="616" d="M515 0L442 235H169L95 0H29L259 718H357L587 0H515ZM186 291H424L307 667H305L186 291Z" />
<glyph unicode="B" glyph-name="null" horiz-adv-x="662" d="M101 0V718H287Q429 718 495 674T561 536Q561 424 455 383V381Q497 366 523 345T564 299T584 248T590 195Q590 135 568 97T509 38T422 8T320 0H101ZM290 400Q319 400 354 403T421 419T474 460T496 536Q496
582 475 607T421 645T350 661T276 664H165V400H290ZM313 54Q422 54 473 86T525 195Q525 348 326 348H165V54H313Z" />
<glyph unicode="C" glyph-name="null" horiz-adv-x="616" d="M575 208Q545 89 480 39T318 -12Q247 -12 197 14T114 88T66 206T50 361Q50 448 68 517T122 633T207 705T321 730Q414 730 473 682T563 519L501 506Q475 595 431 633T321 672Q273 672 235 651T171 589T130
491T115 361Q115 207 164 127T318 46Q391 46 439 87T512 220L575 208Z" />
<glyph unicode="D" glyph-name="null" horiz-adv-x="669" d="M101 0V718H275Q366 718 431 695T538 627T599 516T619 365Q619 0 253 0H101ZM262 56Q412 56 483 130T554 365Q554 518 488 590T284 662H167V56H262Z" />
<glyph unicode="E" glyph-name="null" horiz-adv-x="560" d="M101 0V718H513V662H167V402H416V346H167V56H532V0H101Z" />
<glyph unicode="F" glyph-name="null" horiz-adv-x="555" d="M101 0V718H525V662H167V402H427V346H167V0H101Z" />
<glyph unicode="G" glyph-name="null" horiz-adv-x="663" d="M522 0V77H520Q456 -12 332 -12Q191 -12 121 82T50 353Q50 438 68 508T121 627T208 703T329 730Q420 730 481 682T573 519L511 506Q485 595 440 633T329 672Q279 672 240 651T173 588T130 487T115 352Q115
201 169 123T332 44Q419 44 468 95T518 243Q518 251 518 259T516 279H332V335H579V0H522Z" />
<glyph unicode="H" glyph-name="null" horiz-adv-x="722" d="M555 0V346H167V0H101V718H167V402H555V718H621V0H555Z" />
<glyph unicode="I" glyph-name="null" horiz-adv-x="268" d="M101 0V718H167V0H101Z" />
<glyph unicode="J" glyph-name="null" horiz-adv-x="436" d="M335 191Q335 149 329 112T304 48T253 4T169 -12Q115 -12 75 10T5 84L58 117Q81 76 106 61T169 46Q226 46 247 79T269 191V718H335V191V191Z" />
<glyph unicode="K" glyph-name="null" horiz-adv-x="615" d="M528 0L299 393L167 240V0H101V718H167V330H169L497 718H578L345 445L606 0H528Z" />
<glyph unicode="L" glyph-name="null" horiz-adv-x="504" d="M101 0V718H167V56H488V0H101Z" />
<glyph unicode="M" glyph-name="null" horiz-adv-x="830" d="M666 0V671H664L445 0H383L163 671H161V0H101V718H215L412 88H414L616 718H729V0H666Z" />
<glyph unicode="N" glyph-name="null" horiz-adv-x="719" d="M554 0L167 671H165V0H101V718H212L552 119H554V718H618V0H554Z" />
<glyph unicode="O" glyph-name="null" horiz-adv-x="670" d="M335 -12Q269 -12 217 13T127 85T70 202T50 359Q50 447 70 516T127 632T216 705T335 730Q401 730 453 705T543 633T600 516T620 359Q620 271 600 202T543 86T454 13T335 -12ZM335 44Q384 44 425 65T494
126T539 225T555 359Q555 434 539 492T495 591T425 653T335 674Q285 674 245 653T176 592T131 493T115 359Q115 284 131 226T175 127T244 65T335 44Z" />
<glyph unicode="P" glyph-name="null" horiz-adv-x="603" d="M101 0V718H304Q435 718 499 671T564 521Q564 418 499 369T292 319H167V0H101ZM299 375Q331 375 366 378T430 396T479 440T499 521Q499 594 452 628T311 662H167V375H299Z" />
<glyph unicode="Q" glyph-name="null" horiz-adv-x="670" d="M335 -12Q269 -12 217 13T127 85T70 202T50 359Q50 447 70 516T127 632T216 705T335 730Q401 730 453 705T543 633T600 516T620 359Q620 260 595 186T524 64Q545 34 573 14T647 -7V-67Q579 -67 538
-40T474 24Q414 -12 335 -12ZM335 44Q397 44 444 76Q424 110 405 134T356 159V219Q382 219 402 211T437 189T465 157T489 119Q521 160 538 220T555 359Q555 434 539 492T495 591T425 653T335 674Q285 674 245 653T176 592T131 493T115 359Q115 284 131 226T175
127T244 65T335 44Z" />
<glyph unicode="R" glyph-name="null" horiz-adv-x="645" d="M521 0L354 327H167V0H101V718H307Q444 718 506 669T568 525Q568 450 529 405T421 341L597 0H521ZM312 385Q337 385 370 388T432 406T482 448T502 524Q502 570 486 597T442 639T382 657T316 662H167V385H312Z" />
<glyph unicode="S" glyph-name="null" horiz-adv-x="557" d="M433 553Q408 614 372 643T269 672Q201 672 160 640T118 545Q118 501 147 475T219 430T314 395T408 354T481 291T510 189Q510 139 493 102T446 39T373 1T280 -12Q230 -12 192 -1T124 32T72 89T34 170L96
190Q109 152 125 125T162 81T213 55T282 46Q355 46 400 82T445 187Q445 224 429 249T385 292T323 322T252 348T181 376T119 413T76 466T59 543Q59 588 75 623T119 682T186 718T271 730Q362 730 416 688T491 573L433 553Z" />
<glyph unicode="T" glyph-name="null" horiz-adv-x="550" d="M242 0V662H29V718H521V662H308V0H242Z" />
<glyph unicode="U" glyph-name="null" horiz-adv-x="709" d="M547 718H613V273Q613 207 598 154T551 65T468 8T348 -12Q278 -12 230 8T152 64T109 154T96 273V718H162V263Q162 149 204 98T348 46Q448 46 497 97T547 263V718Z" />
<glyph unicode="V" glyph-name="null" horiz-adv-x="553" d="M244 0L10 718H79L274 94H276L480 718H549L310 0H244Z" />
<glyph unicode="W" glyph-name="null" horiz-adv-x="827" d="M556 0L416 597H414L273 0H207L16 718H83L237 113H239L383 718H449L589 113H591L749 718H815L622 0H556Z" />
<glyph unicode="X" glyph-name="null" horiz-adv-x="559" d="M468 0L279 313H277L93 0H20L243 376L32 718H109L282 433H284L452 718H524L316 376L545 0H468Z" />
<glyph unicode="Y" glyph-name="null" horiz-adv-x="547" d="M241 0V304L20 718H95L272 362H274L462 718H535L307 304V0H241Z" />
<glyph unicode="Z" glyph-name="null" horiz-adv-x="556" d="M42 0V56L422 662H72V718H500V662L119 56H505V0H42Z" />
<glyph unicode="[" glyph-name="null" horiz-adv-x="328" d="M86 -44V718H272V672H146V2H272V-44H86Z" />
<glyph unicode="\" glyph-name="null" horiz-adv-x="278" d="M232 -56L-11 730H46L289 -56H232Z" />
<glyph unicode="]" glyph-name="null" horiz-adv-x="328" d="M56 -44V2H182V672H56V718H242V-44H56Z" />
<glyph unicode="^" glyph-name="null" horiz-adv-x="568" d="M434 354L284 667L134 354H72L251 718H317L496 354H434Z" />
<glyph unicode="_" glyph-name="null" horiz-adv-x="556" d="M-5 -120V-76H561V-120H-5Z" />
<glyph unicode="`" glyph-name="null" horiz-adv-x="400" d="M241 578L103 718H185L296 578H241Z" />
<glyph unicode="a" glyph-name="null" horiz-adv-x="516" d="M385 0L378 66Q334 26 287 7T192 -12Q121 -12 84 25T46 126Q46 168 65 205T132 267Q151 277 178 287T237 306T305 323T377 339Q380 380 374 407T353 451T315 473T261 480Q211 480 177 460T112 392L68
418Q104 476 151 502T261 529Q353 529 394 490T436 371V70L444 0H385ZM377 291Q293 274 241 258T157 223Q131 207 118 183T105 126Q105 85 128 61T197 37Q221 37 246 43T294 61T339 89T377 127V291Z" />
<glyph unicode="b" glyph-name="null" horiz-adv-x="559" d="M86 0V718H145V449Q179 488 216 506T302 525Q349 525 388 507T454 453T497 367T513 253Q513 193 499 145T459 61T395 7T311 -12Q258 -12 220 4T140 63L126 0H86ZM145 135Q171 89 213 64T301 39Q373
39 413 96T454 253Q454 303 444 344T413 414T364 458T299 474Q254 474 214 450T145 377V135Z" />
<glyph unicode="c" glyph-name="null" horiz-adv-x="511" d="M473 121Q404 -12 266 -12Q214 -12 174 7T105 61T61 145T46 256Q46 385 104 457T267 529Q338 529 387 495T462 388L409 369Q386 426 352 452T268 478Q231 478 201 463T150 418T117 348T105 256Q105
153 147 96T266 39Q316 39 353 63T421 148L473 121Z" />
<glyph unicode="d" glyph-name="null" horiz-adv-x="559" d="M432 0L419 64Q399 43 380 29T340 5T297 -8T248 -12Q201 -12 164 7T101 61T60 144T46 253Q46 316 61 366T104 452T171 506T257 525Q305 525 342 507T414 449V718H473V0H432ZM414 377Q385 425 345 449T260
474Q224 474 196 459T147 414T116 344T105 253Q105 153 145 96T258 39Q303 39 345 64T414 135V377Z" />
<glyph unicode="e" glyph-name="null" horiz-adv-x="518" d="M464 116Q429 47 376 18T258 -12Q161 -12 104 57T46 255Q46 318 61 368T105 455T173 510T259 529Q309 529 347 512T412 462T452 384T466 284Q466 279 466 272T465 255H105Q106 205 115 165T144 97T192
54T262 39Q310 39 349 61T418 142L464 116ZM257 480Q222 480 196 466T150 427T121 371T106 304H405Q404 383 367 431T257 480Z" />
<glyph unicode="f" glyph-name="null" horiz-adv-x="289" d="M112 0V468H26V517H112V588Q112 656 139 693T235 730Q246 730 257 729T282 725V673Q261 679 240 679Q204 679 188 663T171 599V517H277V468H171V0H112Z" />
<glyph unicode="g" glyph-name="null" horiz-adv-x="511" d="M437 352Q437 270 385 222T244 174Q194 174 152 191Q133 181 119 168T105 140Q105 122 121 113T165 101T226 96T296 92T366 83T427 63T470 24T487 -40Q487 -78 469 -105T418 -150T343 -176T251 -184Q200
-184 159 -177T88 -153T42 -113T26 -54Q26 -12 47 11T110 52V54Q47 69 47 123Q47 148 66 171T116 212Q85 235 68 270T51 352Q51 391 64 424T103 480T164 516T244 529Q324 529 375 487Q395 510 421 524T481 538V481Q438 481 406 454Q437 411 437 352ZM380 350Q380
412 344 447T244 483Q180 483 144 448T108 350Q108 287 144 254T244 221Q307 221 343 254T380 350ZM428 -45Q428 -17 414 0T371 26T302 38T209 44Q186 41 164 34T124 15T96 -12T85 -49Q85 -93 131 -114T251 -135Q287 -135 319 -130T375 -114T414 -86T428 -45Z"
/>
<glyph unicode="h" glyph-name="null" horiz-adv-x="553" d="M414 0V336Q414 367 412 393T399 439T369 469T315 480Q270 480 229 454T145 381V0H86V718H145V439Q196 490 238 509T322 529Q365 529 393 519T441 484Q461 459 467 424T473 334V0H414Z" />
<glyph unicode="i" glyph-name="null" horiz-adv-x="231" d="M80 630V718H152V630H80ZM86 0V517H145V0H86Z" />
<glyph unicode="j" glyph-name="null" horiz-adv-x="222" d="M142 -64Q142 -130 112 -157T27 -184Q10 -184 -2 -183T-32 -177V-125Q-16 -130 -5 -131T21 -133Q83 -133 83 -63V517H142V-64ZM77 630V718H149V630H77Z" />
<glyph unicode="k" glyph-name="null" horiz-adv-x="500" d="M415 0L249 282L145 165V0H86V718H145V244H147L387 517H456L287 323L482 0H415Z" />
<glyph unicode="l" glyph-name="null" horiz-adv-x="231" d="M86 0V718H145V0H86Z" />
<glyph unicode="m" glyph-name="null" horiz-adv-x="835" d="M696 0V372Q696 404 689 424T669 457T640 473T608 478Q569 478 531 455T451 382V0H392V363Q392 478 306 478Q266 478 225 452T145 378V0H86V516H145V437Q182 481 225 505T311 529Q365 529 397 506T444
435Q466 460 486 478T527 507T568 523T615 529Q689 529 722 487T755 366V0H696Z" />
<glyph unicode="n" glyph-name="null" horiz-adv-x="550" d="M411 0V363Q411 423 389 450T315 478Q294 478 275 473T236 457T193 427T145 380V0H86V517H145V437Q188 484 230 506T324 529Q402 529 438 484Q455 463 462 432T470 360V0H411Z" />
<glyph unicode="o" glyph-name="null" horiz-adv-x="516" d="M258 -12Q210 -12 171 6T104 60T61 145T46 257Q46 386 102 457T258 529Q358 529 414 458T470 257Q470 195 455 145T412 60T345 7T258 -12ZM258 37Q335 37 373 97T411 257Q411 307 402 348T373 418T325
464T258 480Q220 480 191 464T143 419T115 348T105 257Q105 157 143 97T258 37Z" />
<glyph unicode="p" glyph-name="null" horiz-adv-x="559" d="M86 -172V517H145V434Q180 482 218 505T311 529Q357 529 394 510T458 456T499 373T513 264Q513 201 499 151T457 65T390 11T302 -8Q254 -8 217 10T145 68V-172H86ZM145 140Q174 92 214 68T299 43Q376
43 415 103T454 264Q454 364 414 421T301 478Q264 478 222 453T145 367V140Z" />
<glyph unicode="q" glyph-name="null" horiz-adv-x="553" d="M414 -172V68Q380 29 343 11T257 -8Q208 -8 169 10T103 64T61 150T46 264Q46 324 60 372T100 456T164 510T248 529Q302 529 342 507T417 436L433 517H473V-172H414ZM414 367Q379 427 337 452T258 478Q186
478 146 421T105 264Q105 163 144 103T260 43Q305 43 345 67T414 140V367Z" />
<glyph unicode="r" glyph-name="null" horiz-adv-x="340" d="M86 0V517H145V416Q182 480 221 504T308 529Q313 529 316 529T324 528V470Q318 471 313 471T306 471Q276 471 251 459T206 427T171 381T145 326V0H86Z" />
<glyph unicode="s" glyph-name="null" horiz-adv-x="445" d="M339 403Q312 445 281 462T206 479Q159 479 134 456T108 393Q108 359 130 341T185 312T256 290T328 263T383 215T405 134Q405 100 392 73T354 27T297 -2T223 -12Q157 -12 111 15T32 94L78 127Q108 79
142 59T226 39Q284 39 315 64T346 134Q346 172 324 192T269 225T198 248T126 274T71 317T49 393Q49 423 61 448T94 491T144 519T210 529Q326 529 385 436L339 403Z" />
<glyph unicode="t" glyph-name="null" horiz-adv-x="312" d="M276 -2Q259 -5 243 -6T206 -8Q149 -8 126 18T102 110V468H26V517H102V686H161V517H276V468H161V111Q161 76 174 60T216 43Q231 43 245 44T276 49V-2Z" />
<glyph unicode="u" glyph-name="null" horiz-adv-x="550" d="M405 0V80Q362 33 320 11T226 -12Q148 -12 112 33Q95 54 88 85T80 157V517H139V154Q139 94 161 67T235 39Q256 39 275 44T314 60T357 90T405 137V517H464V0H405Z" />
<glyph unicode="v" glyph-name="null" horiz-adv-x="444" d="M192 0L14 517H78L221 89H223L368 517H432L251 0H192Z" />
<glyph unicode="w" glyph-name="null" horiz-adv-x="677" d="M454 0L337 418H335L219 0H158L12 517H73L187 95H189L308 517H367L483 95H485L602 517H664L513 0H454Z" />
<glyph unicode="x" glyph-name="null" horiz-adv-x="448" d="M369 0L223 225H221L79 0H12L189 271L28 517H95L223 317H225L353 517H419L259 271L436 0H369Z" />
<glyph unicode="y" glyph-name="null" horiz-adv-x="452" d="M265 12Q245 -45 228 -83T192 -143T149 -175T93 -184Q75 -184 61 -183T32 -179V-127Q63 -133 87 -133Q107 -133 122 -128T149 -110T171 -77T191 -25L202 8L20 517H86L232 94H234L376 517H438L265 12V12Z" />
<glyph unicode="z" glyph-name="null" horiz-adv-x="444" d="M25 0V40L327 468H48V517H405V476L103 49H412V0H25Z" />
<glyph unicode="{" glyph-name="null" horiz-adv-x="328" d="M232 -44Q173 -44 152 -14T130 83V255Q130 298 116 316T69 334H35V380H69Q101 380 115 398T130 459V591Q130 657 151 687T232 718H276V672H251Q219 672 205 654T190 593V461Q190 419 176 394T136 358V356Q170
341 180 312T190 253V81Q190 38 204 20T251 2H276V-44H232Z" />
<glyph unicode="|" glyph-name="null" horiz-adv-x="279" d="M114 -56V730H165V-56H114Z" />
<glyph unicode="}" glyph-name="null" horiz-adv-x="328" d="M198 83Q198 17 177 -13T96 -44H52V2H77Q109 2 123 20T138 81V253Q138 283 148 312T192 356V358Q166 369 152 394T138 461V593Q138 636 124 654T77 672H52V718H96Q155 718 176 688T198 591V459Q198
416 212 398T259 380H293V334H259Q227 334 213 316T198 255V83V83Z" />
<glyph unicode="~" glyph-name="null" horiz-adv-x="568" d="M515 331Q507 266 475 228T383 189Q355 189 329 200T276 225T225 250T172 262Q140 262 125 240T104 182H53Q61 247 93 285T185 324Q213 324 239 313T292 288T343 263T396 251Q428 251 443 273T464 331H515Z" />
</font>
</defs>
</svg>
