<?xml version="1.0" encoding="UTF-8" standalone="no"?>
<!-- Created with Inkscape (http://www.inkscape.org/) -->

<svg
   xmlns:dc="http://purl.org/dc/elements/1.1/"
   xmlns:cc="http://creativecommons.org/ns#"
   xmlns:rdf="http://www.w3.org/1999/02/22-rdf-syntax-ns#"
   xmlns:svg="http://www.w3.org/2000/svg"
   xmlns="http://www.w3.org/2000/svg"
   xmlns:sodipodi="http://sodipodi.sourceforge.net/DTD/sodipodi-0.dtd"
   xmlns:inkscape="http://www.inkscape.org/namespaces/inkscape"
   id="svg2"
   version="1.1"
   inkscape:version="0.48.4 r9939"
   width="266"
   height="480"
   sodipodi:docname="phone.svg">
  <metadata
     id="metadata8">
    <rdf:RDF>
      <cc:Work
         rdf:about="">
        <dc:format>image/svg+xml</dc:format>
        <dc:type
           rdf:resource="http://purl.org/dc/dcmitype/StillImage" />
        <dc:title />
      </cc:Work>
    </rdf:RDF>
  </metadata>
  <defs
     id="defs6" />
  <sodipodi:namedview
     pagecolor="#ffffff"
     bordercolor="#666666"
     borderopacity="1"
     objecttolerance="10"
     gridtolerance="10"
     guidetolerance="10"
     inkscape:pageopacity="0"
     inkscape:pageshadow="2"
     inkscape:window-width="1301"
     inkscape:window-height="744"
     id="namedview4"
     showgrid="false"
     inkscape:zoom="5.06"
     inkscape:cx="107.57759"
     inkscape:cy="114.13018"
     inkscape:window-x="65"
     inkscape:window-y="24"
     inkscape:window-maximized="1"
     inkscape:current-layer="svg2" />
  <path
     style="fill:#ffffff"
     d="m 73.50013,470.31029 c -4.148352,-0.64562 -7.359014,-2.9004 -8.049954,-5.65332 -0.33953,-1.35279 0.53342,-5.40666 2.096815,-9.73735 1.473187,-4.0808 3.55892,-10.56964 4.634962,-14.41964 L 106.56057,335.90219 c 1.9705,-3.18833 9.80421,-2.46666 20.43956,1.88296 1.375,0.56235 6.55,2.24083 11.5,3.72996 11.26302,3.3883 15.38805,5.64823 18.44025,10.10262 3.08153,4.4972 3.90454,12.74043 1.74663,17.49428 -7.28006,21.93958 -15.3728,47.20402 -21.72916,66.8339 -9.20656,28.43898 -13.12879,38.10338 -16.35721,40.30433 -1.0558,0.71978 -5.29994,1.95335 -10.60051,3.08106 -12.567439,-0.86706 -24.029322,-6.94317 -36.5,-9.02101 z m -23.641291,-8.87938 c -5.23883,-2.66245 -15.943246,-12.89404 -21.606296,-20.65193 -3.94637,-5.40617 -12.94747,-23.23557 -15.20883,-30.12567 -0.69437,-2.11567 -1.88547,-5.04067 -2.64688,-6.5 -5.0325642,-18.25411 -8.891925,-37.75104 -9.3593898,-56.65333 -0.0611,-3.85 -0.13308005,-8.35 -0.15988005,-10 -0.1087,-6.69379 2.29963005,-40.23996 3.12294005,-43.5 0.93493,-3.70203 1.50722,-7.72304 2.4907,-17.5 0.75282,-7.48403 4.9339998,-27.70246 7.6515998,-37 3.38898,-11.59447 8.83121,-28.68283 10.82819,-34 4.839346,-15.36143 9.919715,-30.53319 15.23875,-45.79814 4.910507,-14.09411 33.036805,-68.948284 37.790387,-73.701864 12.225779,-17.715628 27.1258,-37.141782 42.85686,-51.202621 8.55145,-7.537678 21.96231,-16.458487 33.14154,-22.045522 6.32588,-3.1614778 12.1991,-5.7489778 13.0516,-5.7499998 10.49966,-2.6060225 25.75526,-7.86867948 36.20278,-5.083449 6.79137,2.241355 6.6054,4.075033 -3.55808,35.0815898 -1.35212,4.125 -6.35477,19.650002 -11.11702,34.500002 -5.65836,9.351635 -16.071,60.180514 -23.35626,67.128854 -0.94678,0.71915 -3.51496,1.32185 -5.70707,1.33935 -8.34581,0.0666 -17.56853,6.92849 -23.56355,17.5318 -4.57573,8.09302 -11.92056,23.03762 -11.93546,24.28518 -4.28607,10.32074 -8.01135,20.99378 -10.92819,29.80689 -12.24348,37.10066 -14.785165,45.48224 -15.589297,51.40793 -0.4105,3.025 -1.111875,6.46664 -1.55861,7.64809 -2.973266,9.84508 -3.209846,19.81 -5.307684,29.63718 -1.541088,7.10987 -0.849828,17.42746 1.476895,22.04379 1.167181,2.31575 7.859288,8.67094 9.130616,8.67094 0.41851,0 0.76093,1.58925 0.76093,3.53166 0,3.61941 -2.459452,12.38635 -10.370983,36.96834 -8.922638,29.47711 -19.1691,56.98155 -27.757433,86.14176 -1.7326,6.00938 -6.896607,7.40576 -14.012875,3.78917 z M 199.25013,153.06034 c -6.1875,-2.10464 -11.25,-3.69745 -11.25,-3.53957 -17.42577,-4.62748 -16.9801,-14.73328 -14.06427,-23.86853 5.54184,-17.14467 10.4456,-33.446569 16.06379,-50.652264 1.53002,-4.675 6.92549,-21.325002 11.98993,-37.000002 9.17532,-28.3986048 10.82028,-31.9143158 14.96205,-31.9777648 0.79833,-0.01223 10.02333,2.729144 20.5,6.0919408 17.65493,5.666869 19.32155,6.409228 22.78081,10.147224 3.35986,3.630593 4.23059,5.690911 5.17043,12.234239 -8.7342,35.453042 -21.48988,69.065297 -32.88603,105.635517 -2.97282,9.58762 -6.6023,14.17262 -12.57495,15.88555 -5.48316,1.57255 -8.74896,1.10595 -20.69176,-2.95634 z"
     id="path2989"
     inkscape:connector-curvature="0"
     sodipodi:nodetypes="cssccsssccsccsssccssssccccsccsccssccsccsssccsscccssssccss" />
</svg>
