<?xml version="1.0" encoding="UTF-8" standalone="no"?>
<!-- Generator: Adobe Illustrator 17.1.0, SVG Export Plug-In . SVG Version: 6.00 Build 0)  -->

<svg
   xmlns:dc="http://purl.org/dc/elements/1.1/"
   xmlns:cc="http://creativecommons.org/ns#"
   xmlns:rdf="http://www.w3.org/1999/02/22-rdf-syntax-ns#"
   xmlns:svg="http://www.w3.org/2000/svg"
   xmlns="http://www.w3.org/2000/svg"
   xmlns:sodipodi="http://sodipodi.sourceforge.net/DTD/sodipodi-0.dtd"
   xmlns:inkscape="http://www.inkscape.org/namespaces/inkscape"
   version="1.1"
   id="Layer_1"
   x="0px"
   y="0px"
   viewBox="0 0 32 48"
   xml:space="preserve"
   inkscape:version="0.48.4 r9939"
   width="100%"
   height="100%"
   sodipodi:docname="battery.svg"><metadata
     id="metadata11"><rdf:RDF><cc:Work
         rdf:about=""><dc:format>image/svg+xml</dc:format><dc:type
           rdf:resource="http://purl.org/dc/dcmitype/StillImage" /></cc:Work></rdf:RDF></metadata><defs
     id="defs9" /><sodipodi:namedview
     pagecolor="#ffffff"
     bordercolor="#666666"
     borderopacity="1"
     objecttolerance="10"
     gridtolerance="10"
     guidetolerance="10"
     inkscape:pageopacity="0"
     inkscape:pageshadow="2"
     inkscape:window-width="1301"
     inkscape:window-height="744"
     id="namedview7"
     showgrid="false"
     inkscape:zoom="12.66"
     inkscape:cx="16"
     inkscape:cy="25"
     inkscape:window-x="65"
     inkscape:window-y="24"
     inkscape:window-maximized="1"
     inkscape:current-layer="Layer_1" /><polygon
     points="34.895,27.316 25.796,39 31.564,39 29.105,47.684 38.204,36 32.436,36 "
     id="polygon3"
     transform="translate(-16,-12)"
     style="fill:#ffffff" /><path
     d="M 21,2 H 11 C 9.895,2 9,2.895 9,4 V 6 H 5 C 3.346,6 2,7.346 2,9 v 34 c 0,1.654 1.346,3 3,3 h 22 c 1.654,0 3,-1.346 3,-3 V 9 C 30,7.346 28.654,6 27,6 H 23 V 4 C 23,2.895 22.105,2 21,2 z m 6,6 c 0.552,0 1,0.448 1,1 v 34 c 0,0.552 -0.448,1 -1,1 H 5 C 4.448,44 4,43.552 4,43 V 9 C 4,8.448 4.448,8 5,8 h 6 10 6 z"
     id="path5"
     inkscape:connector-curvature="0"
     style="fill:#ffffff" /></svg>