<?xml version="1.0" encoding="UTF-8" standalone="no"?>
<!-- Created with Inkscape (http://www.inkscape.org/) -->

<svg
   xmlns:dc="http://purl.org/dc/elements/1.1/"
   xmlns:cc="http://creativecommons.org/ns#"
   xmlns:rdf="http://www.w3.org/1999/02/22-rdf-syntax-ns#"
   xmlns:svg="http://www.w3.org/2000/svg"
   xmlns="http://www.w3.org/2000/svg"
   xmlns:sodipodi="http://sodipodi.sourceforge.net/DTD/sodipodi-0.dtd"
   xmlns:inkscape="http://www.inkscape.org/namespaces/inkscape"
   width="480"
   height="496"
   id="svg2"
   version="1.1"
   inkscape:version="0.48.4 r9939"
   sodipodi:docname="frontCurtain.svg">
  <defs
     id="defs4" />
  <sodipodi:namedview
     id="base"
     pagecolor="#ffffff"
     bordercolor="#666666"
     borderopacity="1.0"
     inkscape:pageopacity="0.0"
     inkscape:pageshadow="2"
     inkscape:zoom="0.98994949"
     inkscape:cx="248.38004"
     inkscape:cy="258.27031"
     inkscape:document-units="px"
     inkscape:current-layer="layer1"
     showgrid="false"
     inkscape:window-width="1301"
     inkscape:window-height="744"
     inkscape:window-x="65"
     inkscape:window-y="24"
     inkscape:window-maximized="1" />
  <metadata
     id="metadata7">
    <rdf:RDF>
      <cc:Work
         rdf:about="">
        <dc:format>image/svg+xml</dc:format>
        <dc:type
           rdf:resource="http://purl.org/dc/dcmitype/StillImage" />
        <dc:title></dc:title>
      </cc:Work>
    </rdf:RDF>
  </metadata>
  <g
     inkscape:label="Layer 1"
     inkscape:groupmode="layer"
     id="layer1"
     transform="translate(0,-556.36218)">
    <g
       id="g3071"
       transform="translate(0.01592362,-0.13512)">
      <path
         style="fill:#ce2c2c"
         d="m 0,804.34551 0,-248.01671 240,0 240,0 0,248.01671 0,248.01669 -240,0 -240,0 0,-248.01669 z"
         id="path3087"
         inkscape:connector-curvature="0" />
      <path
         style="fill:#b52222"
         d="m 0,804.34551 0,-248.01671 240,0 240,0 0,248.01671 0,248.01669 -240,0 -240,0 0,-248.01669 z m 117.76783,239.96359 c 0.58206,-0.9418 -0.8499,-108.64537 -2.01131,-151.27883 -0.26275,-9.64509 -0.73491,-34.44676 -1.04925,-55.11482 -0.59642,-39.21626 -1.66977,-93.1067 -3.49279,-175.36535 -0.97736,-44.09994 -2.05348,-64.5342 -3.47332,-65.95404 -0.28477,-0.28478 -0.85598,-0.17751 -1.26934,0.23837 -0.90096,0.90645 -0.75978,147.67304 0.19045,197.99125 0.36949,19.56576 1.11387,57.89561 1.65418,85.17745 0.5403,27.28184 1.19098,64.48435 1.44593,82.67224 1.1588,82.66713 1.10068,80.82183 2.5748,81.75523 1.90227,1.2045 4.64911,1.143 5.43065,-0.1215 z m 89.23252,-0.076 c 0.37871,-0.6128 0.23128,-1.4019 -0.32762,-1.7536 -0.6498,-0.409 -1.24775,-18.3439 -1.65842,-49.74187 -0.35321,-27.00626 -0.86604,-57.89562 -1.1396,-68.64301 -0.7031,-27.62181 -1.23484,-53.47449 -1.89624,-92.19207 -0.31541,-18.46346 -0.79982,-45.7453 -1.07646,-60.6263 -0.27666,-14.88101 -0.94011,-55.01462 -1.47434,-89.18581 -1.05521,-67.49605 -1.59928,-82.44678 -3.14858,-86.52167 -0.97756,-2.57112 -1.05419,-2.59416 -2.19507,-0.65996 -2.16575,3.67176 -1.53812,254.2466 0.92117,367.76619 0.62196,28.70916 0.84426,34.43185 2.28268,58.7631 1.10949,18.7672 1.57315,21.7834 3.55762,23.1422 1.63433,1.1191 5.37919,0.9079 6.15486,-0.3472 z m 72.2097,-0.096 c 0.93412,-1.5114 1.01858,-2.3692 1.80483,-18.3305 0.35293,-7.1649 1.00595,-14.6141 1.45113,-16.5537 0.44519,-1.9396 0.93158,-15.01684 1.08087,-29.06053 0.14929,-14.04368 0.42284,-27.78867 0.60789,-30.54441 2.11487,-31.49536 2.75365,-353.32432 0.70536,-355.3733 -3.9142,-3.91549 -3.94283,-3.09362 -7.30182,209.56954 -0.93175,58.99048 -1.357,80.25165 -2.47528,123.75783 -0.7686,29.90168 -1.70782,94.51227 -1.53173,105.37037 0.0916,5.6492 -0.26729,9.4271 -0.93476,9.8396 -0.59591,0.3683 -0.82404,1.0894 -0.50693,1.6025 0.83728,1.3548 6.22172,1.1444 7.10044,-0.2774 z m 87.30265,0.3847 c 1.40714,-0.8935 2.16615,-23.0447 2.70143,-78.84044 0.39271,-40.93477 2.27039,-141.39947 2.99663,-160.33403 0.90859,-23.68881 1.89265,-202.38088 1.13671,-206.41042 -0.43773,-2.33328 -1.06828,-3.43037 -1.6419,-2.85674 -1.62291,1.62291 -2.79284,15.26554 -2.90726,33.90181 -0.0609,9.92067 -0.29508,20.29227 -0.52038,23.04801 -0.2253,2.75575 -0.87692,27.33195 -1.44804,54.61379 -0.57113,27.28183 -1.276,59.52401 -1.56639,71.64927 -1.80859,75.5174 -4.42719,264.80295 -3.67374,265.55635 0.7524,0.7524 3.51123,0.5688 4.92294,-0.3276 z M 320.62208,920.08664 c 0.64858,-8.5428 1.37155,-21.1691 1.60659,-28.05845 0.23504,-6.88936 0.95052,-27.85804 1.58994,-46.59708 0.63943,-18.73904 1.28277,-53.02587 1.42964,-76.19294 0.88951,-140.31306 0.87883,-165.33644 -0.0708,-165.81125 -1.57688,-0.78844 -2.25981,18.31341 -2.93729,82.157 -0.34205,32.23436 -0.8185,60.19261 -1.05877,62.12943 -0.24028,1.93683 -0.7062,13.66765 -1.03539,26.06848 -0.32918,12.40084 -0.76737,28.63466 -0.97375,36.07516 -1.64013,59.13198 -1.64387,127.8701 -0.007,126.06752 0.1526,-0.16803 0.8081,-7.29507 1.45669,-15.83787 z M 160.37187,853.44781 c -1.09121,-66.55749 -1.38346,-78.24287 -2.638,-105.47418 -0.55024,-11.94389 -1.38228,-15.63733 -3.12915,-13.89046 -1.46086,1.46085 0.51915,129.56357 2.65036,171.4732 0.056,1.1023 0.37672,7.64092 0.71257,14.53027 l 0.61063,12.5261 1.45539,-5.51148 c 1.25751,-4.76215 1.30349,-14.7761 0.3382,-73.65345 z m 80.58296,-4.30629 c 0.43426,-5.95921 0.26582,-7.21772 -0.96599,-7.21772 -0.97351,0 -1.49197,0.99607 -1.49197,2.8664 0,3.6285 1.17508,12.32595 1.60696,11.89407 0.17877,-0.17876 0.56172,-3.573 0.851,-7.54275 z m 0.88731,-32.01939 c 0.82793,-27.41739 0.86551,-91.75114 0.0548,-93.86376 -0.98204,-2.55919 -4.28132,-1.91452 -5.0074,0.97841 -0.71323,2.84172 0.67003,106.29929 1.52326,113.92919 0.0462,0.41336 0.68865,0.75157 1.4276,0.75157 1.06198,0 1.48147,-4.56763 2.00172,-21.79541 z M 156.39185,668.13491 c -1.06469,-57.24821 -1.713,-69.06956 -3.54064,-64.56088 -0.36792,0.90764 -0.42262,27.51306 -0.12157,59.12317 0.30105,31.61012 0.54659,58.882 0.54563,60.60417 -0.002,4.54068 1.85447,8.98747 3.19384,7.6481 0.75999,-0.75999 0.73755,-19.00221 -0.0773,-62.81456 z"
         id="path3085"
         inkscape:connector-curvature="0" />
      <path
         style="fill:#a51d1c"
         d="m 0,804.34551 0,-248.01671 240,0 240,0 0,248.01671 0,248.01669 -240,0 -240,0 0,-248.01669 z m 118.92343,240.75159 c 0.43745,-0.689 0.84299,-2.6054 0.9012,-4.2589 0.18103,-5.1415 -1.45486,-99.26099 -2.04652,-117.7453 -0.30872,-9.64509 -0.99943,-40.75991 -1.53491,-69.14405 -1.77002,-93.82478 -2.03525,-106.40072 -3.04328,-144.30063 -2.25806,-84.89876 -3.06179,-107.8176 -4.01721,-114.55419 -1.01508,-7.1573 -1.47949,-8.51438 -2.54799,-7.44587 -1.96856,1.96855 -2.75083,12.19324 -3.35388,43.83722 -0.37288,19.56576 -0.83446,32.64301 -1.02573,29.06054 l -0.34777,-6.51357 -0.8089,6.51357 c -1.219357,9.81882 -2.384318,381.70368 -1.19943,382.88858 0.53719,0.5372 1.61579,0.731 2.39689,0.4308 1.20754,-0.4642 1.40509,-10.7091 1.31946,-68.42536 -0.0554,-37.33367 -0.24617,-81.63305 -0.42392,-98.44307 -0.40254,-38.06858 -0.0195,-62.44237 1.00722,-64.10374 1.04226,-1.68643 2.23456,45.70716 1.86477,74.12462 -0.16137,12.40083 0.034,27.22005 0.43396,32.93159 0.40005,5.71154 0.98667,32.0915 1.30358,58.62213 0.79589,66.62833 0.71373,64.77863 2.9501,66.41393 2.33699,1.7088 7.11675,1.7742 8.17236,0.1117 z M 103.29415,809.27244 c 0.0481,-1.16738 0.28553,-1.40482 0.60542,-0.60543 0.28947,0.72338 0.25388,1.58768 -0.0791,1.92067 -0.33299,0.33299 -0.56982,-0.25887 -0.52631,-1.31524 z m 0.15337,-33.48643 c 0,-1.92902 0.20623,-2.71816 0.45828,-1.75365 0.25205,0.96451 0.25205,2.54279 0,3.5073 -0.25205,0.96451 -0.45828,0.17537 -0.45828,-1.75365 z m 0.0678,-18.03758 c 0,-3.03131 0.18786,-4.2714 0.41746,-2.75574 0.22961,1.51566 0.22961,3.99582 0,5.51148 -0.2296,1.51566 -0.41746,0.27558 -0.41746,-2.75574 z m -0.0678,-27.05637 c 0,-1.92902 0.20623,-2.71816 0.45828,-1.75365 0.25205,0.96451 0.25205,2.5428 0,3.50731 -0.25205,0.96451 -0.45828,0.17536 -0.45828,-1.75366 z m 106.14626,314.40504 c 1.3196,-1.0715 1.4323,-3.1359 0.77953,-14.2798 -0.41971,-7.1649 -0.80221,-20.0976 -0.85003,-28.7394 -0.0478,-8.64178 -0.7491,-26.45389 -1.5584,-39.58248 -0.8093,-13.12859 -1.69291,-31.08519 -1.96359,-39.90356 -0.27067,-8.81837 -0.94394,-30.01253 -1.49614,-47.09812 -0.5522,-17.0856 -1.69579,-64.20877 -2.54131,-104.71817 -0.84552,-40.50939 -2.01322,-95.97495 -2.59488,-123.25679 -1.01873,-47.78262 -1.91733,-59.95121 -4.46291,-60.43561 -3.61889,-0.68866 -4.45739,32.06873 -4.25313,166.15587 0.0562,36.92693 0.10487,69.39457 0.10805,72.15031 0.003,2.75574 -0.10089,20.91126 -0.23126,40.3456 -0.13036,19.43434 -0.0162,35.69246 0.25369,36.12916 0.2699,0.43671 0.75427,26.47325 1.07638,57.859 0.81454,79.36769 1.07069,83.11809 5.83388,85.41779 3.08603,1.4899 10.04285,1.4643 11.90012,-0.044 z m 72.91317,-0.6549 c 1.33288,-1.0247 2.49579,-2.9311 2.58423,-4.2366 1.14861,-16.9557 1.59161,-33.5598 2.08186,-78.03127 0.31898,-28.93529 0.78244,-64.33404 1.02991,-78.66389 0.24749,-14.32985 0.34581,-68.89353 0.21853,-121.25261 -0.1273,-52.35909 -0.13483,-107.59917 -0.0167,-122.75575 0.22311,-28.63733 -0.79074,-44.71374 -3.17393,-50.32864 l -1.39346,-3.28305 -1.25276,3.00626 c -1.63115,3.91431 -2.63484,30.89487 -3.95149,106.2213 -1.3079,74.82493 -2.77347,139.05543 -4.08144,178.87266 -0.55219,16.81002 -1.24122,38.22964 -1.53118,47.59916 -0.28995,9.36952 -1.16614,30.33821 -1.94709,46.59708 -1.15355,24.01609 -2.22433,74.27105 -1.6494,77.41125 0.29803,1.6279 10.65162,0.7131 13.08296,-1.1559 z m 85.21858,0.9272 c 1.60489,-0.8589 1.91102,-2.8759 2.4715,-16.284 0.35185,-8.4169 0.84177,-35.51167 1.08871,-60.21046 0.24694,-24.69881 0.67766,-45.27693 0.95717,-45.72918 0.27949,-0.45224 0.57655,-19.02492 0.66011,-41.27262 0.18787,-50.01919 1.44045,-75.95098 2.4863,-51.47335 0.11775,2.75574 0.1583,11.54906 0.0901,19.54071 -0.0681,7.99165 -0.006,54.65088 0.13865,103.68717 0.26232,89.06583 0.37419,91.94533 3.4969,90.01543 1.40532,-0.8686 0.25672,-376.24125 -1.15872,-378.67935 -0.82375,-1.41897 -1.12606,-1.52465 -1.17127,-0.40948 -0.0489,1.20618 -0.25908,1.16321 -1.06386,-0.21746 -1.23756,-2.12316 -0.0563,-15.6075 1.19443,-13.6348 0.50282,0.79306 0.84082,-1.29224 0.84082,-5.1874 0,-4.23689 -0.31454,-6.01661 -0.89993,-5.09176 -0.55462,0.87625 -1.06519,-7.00624 -1.33062,-20.5428 -0.42737,-21.79539 -2.12376,-36.36125 -3.8711,-33.23892 -0.47198,0.84339 -1.2939,4.62701 -1.82648,8.40805 -1.75263,12.44264 -5.43711,160.66698 -9.61155,386.66586 -0.32577,17.63674 -0.72773,38.91536 -0.89327,47.28576 -0.1939,9.8051 0.0779,15.5978 0.76401,16.2839 1.3334,1.3334 5.22423,1.3765 7.63811,0.085 z m 6.06852,-236.26397 c -0.009,-4.1856 0.40942,-7.26514 0.98674,-7.26514 1.28539,0 1.28539,11.03815 0,13.02714 -0.67665,1.04703 -0.97605,-0.70134 -0.98674,-5.762 z m 0.61626,-12.5261 c -0.86907,-3.2429 -0.77228,-16.78506 0.11996,-16.78448 0.41336,2.8e-4 0.78982,4.28421 0.83657,9.51984 0.0468,5.23563 -0.0134,9.51934 -0.13364,9.51934 -0.12026,0 -0.49057,-1.01462 -0.82289,-2.2547 z m 0.0365,-35.49061 c -0.99114,-0.99111 -0.78056,-5.62399 0.334,-7.34864 0.70258,-1.08715 0.97565,-0.18586 0.98675,3.25679 0.0155,4.8328 -0.12971,5.28292 -1.32077,4.09185 z m 1.41523,-69.06054 c 0.0481,-1.16738 0.28553,-1.40483 0.60542,-0.60543 0.28947,0.72338 0.25388,1.58768 -0.0791,1.92067 -0.33298,0.33299 -0.56982,-0.25888 -0.52631,-1.31524 z m -0.44152,-7.9332 c -0.31724,-0.82672 -0.14002,-1.50313 0.39383,-1.50313 0.53385,0 0.97064,0.67641 0.97064,1.50313 0,0.82673 -0.17723,1.50314 -0.39383,1.50314 -0.21661,0 -0.65339,-0.67641 -0.97064,-1.50314 z m -0.63971,-10.46277 c 0,-2.72322 0.45094,-5.23 1.00209,-5.57063 0.62216,-0.38451 1.00209,1.49273 1.00209,4.9513 0,3.06384 -0.45094,5.57062 -1.00209,5.57062 -0.55115,0 -1.00209,-2.22808 -1.00209,-4.95129 z m -209.5884,369.82639 c 1.12484,-0.7128 1.17065,-6.6245 0.27357,-35.3082 -0.59261,-18.94865 -1.33495,-52.48964 -1.64964,-74.53557 -0.72809,-51.0086 -1.21985,-76.7481 -2.48882,-130.27141 -3.39968,-143.39292 -4.88459,-197.37219 -5.56838,-202.42172 -1.60518,-11.85343 -2.61178,-12.36694 -4.41974,-2.25469 -1.84224,10.30402 -0.54866,170.76182 2.33271,289.35282 1.57002,64.61872 2.2731,88.71613 3.143,107.72443 0.27745,6.06264 0.56685,18.91444 0.64311,28.55954 0.0776,9.8087 0.57503,18.0885 1.1289,18.7891 1.13403,1.4345 4.6147,1.6272 6.60529,0.3657 z m 154.15168,0.105 c 1.48021,-0.9414 2.15002,-10.8912 2.84809,-42.3079 0.69153,-31.12187 1.28712,-49.03985 2.03613,-61.25691 0.32538,-5.3072 0.79521,-21.54102 1.04406,-36.07516 0.24886,-14.53414 0.62945,-35.44451 0.84575,-46.46747 1.21796,-62.06722 1.51401,-90.37688 1.77627,-169.85387 0.23907,-72.44787 0.0496,-88.36156 -1.09031,-91.58997 -3.5726,-10.11794 -4.2498,1.51782 -7.13852,122.65469 -1.11059,46.57203 -2.23877,93.6952 -2.50708,104.71817 -0.82204,33.77233 -1.48442,71.25736 -2.00979,113.73695 -0.27607,22.32151 -0.92872,53.88727 -1.45033,70.14617 -1.14767,35.773 -1.1452,35.8764 0.87369,36.4186 2.5844,0.6941 3.52499,0.6698 4.77204,-0.1233 z m -256.845498,-6.4832 c 0.707139,-7.3494 0.0719,-125.91267 -0.772143,-144.11668 -0.317735,-6.85274 -0.857978,-43.79984 -1.200538,-82.10464 -0.342562,-38.3048 -0.919389,-75.05637 -1.281839,-81.67015 -1.328442,-24.24067 -2.145636,40.58682 -1.654788,131.27349 0.262516,48.50105 0.489568,109.49061 0.504561,135.53237 0.02631,45.69471 0.09318,47.34861 1.914696,47.34861 1.582916,0 1.984661,-1.0105 2.490051,-6.263 z m 358.072068,-10.2869 c 0.84339,-69.32977 1.23522,-284.45685 0.52472,-288.08474 -1.26684,-6.46858 -2.04099,12.26302 -2.67129,64.63466 -0.2786,23.14823 -0.82054,61.70355 -1.20432,85.6785 -0.78437,48.99954 -1.11092,148.58978 -0.49878,152.11598 0.25638,1.4769 0.98414,2.1907 2.02738,1.9887 1.41091,-0.2733 1.65336,-2.4463 1.82229,-16.3331 z M 239.16053,920.83821 c -0.27799,-0.68894 -0.50544,-0.12526 -0.50544,1.25261 0,1.37787 0.22745,1.94154 0.50544,1.25261 0.27799,-0.68894 0.27799,-1.81629 0,-2.50522 z m 3.45153,-12.27558 c 0.0651,-4.96033 0.32743,-51.4071 0.58288,-103.21503 0.45356,-91.98843 0.0391,-119.3161 -1.79253,-118.1841 -0.49575,0.30639 -0.92995,2.22148 -0.96489,4.25576 -0.0583,3.39494 -0.14274,3.50056 -1.02821,1.28606 -1.38361,-3.46029 -2.30881,-16.2153 -1.49202,-20.56921 0.76868,-4.09743 2.63235,-4.34511 3.70884,-0.49293 0.70995,2.54056 0.75828,2.22286 1.45947,-9.59413 0.43051,-7.25517 -0.78109,-25.55323 -1.692,-25.55323 -0.4909,0 -0.89256,1.15396 -0.89256,2.56436 0,1.45439 -0.43374,2.29629 -1.00208,1.94503 -0.55115,-0.34063 -1.00209,-1.69344 -1.00209,-3.00626 0,-1.31282 -0.40651,-2.63818 -0.90335,-2.94524 -0.50369,-0.3113 -1.16365,4.42843 -1.4917,10.7133 -0.61239,11.73228 0.0452,244.85495 0.72291,256.28205 0.53936,9.09399 0.56014,9.205 1.60289,8.56055 0.51307,-0.3171 1.2161,-0.11824 1.56228,0.4419 0.34618,0.56013 -0.0736,1.01843 -0.93284,1.01843 -2.03353,0 -2.07397,4.35559 -0.0591,6.37041 0.82672,0.82672 1.54929,2.54996 1.60571,3.82941 0.25629,5.81241 1.89938,-5.40126 2.00844,-13.70713 z M 73.5926,873.63644 c -0.168979,-3.38767 -0.337152,-6.79823 -0.373718,-7.57903 -0.03657,-0.78079 -0.313209,-1.17289 -0.614765,-0.87134 -0.873117,0.87312 -1.564041,12.89766 -0.867241,15.09309 1.139491,3.59022 2.18031,-0.13548 1.855724,-6.64272 z m 334.54988,-10.91932 c 0.31543,-8.95616 0.80578,-22.37161 1.08964,-29.81211 0.28386,-7.4405 0.5044,-23.67432 0.4901,-36.07516 -0.0343,-29.69087 -0.0811,-27.88386 1.06432,-41.08559 1.03645,-11.94633 0.42968,-26.25445 -1.01431,-23.91803 -1.85904,3.00799 -2.43473,19.29168 -3.51149,99.32513 -0.41464,30.81939 -0.2964,47.84968 0.33223,47.84968 0.56969,0 1.21474,-6.77889 1.54951,-16.28392 z M 73.152401,857.75679 c 0,-3.41712 -0.370627,-5.78456 -0.823617,-5.26097 -0.792742,0.9163 -0.406938,11.47391 0.419287,11.47391 0.222382,0 0.40433,-2.79583 0.40433,-6.21294 z m -0.410721,-33.119 c -0.295062,-13.36535 -0.780408,-36.02506 -1.078548,-50.35491 -0.620985,-29.84712 -1.348908,-42.36657 -2.504875,-43.081 -1.159621,-0.71668 -2.347909,14.61584 -1.514878,19.5465 0.385523,2.28189 0.860378,19.55867 1.055235,38.39284 0.5027,48.58935 1.176364,59.79719 3.594197,59.79719 0.633394,0 0.793723,-8.67983 0.448869,-24.30062 z M 420.6177,714.44741 c -0.19624,-3.46628 -0.35842,-0.89105 -0.3604,5.72273 -0.002,6.61378 0.15858,9.44982 0.3568,6.30232 0.19822,-3.14751 0.19984,-8.55878 0.004,-12.02505 z m -8.41437,0.46327 c 0.32388,-0.52407 0.84257,-16.69078 1.15263,-35.92602 0.31006,-19.23526 0.76221,-38.6922 1.00477,-43.23767 0.24256,-4.54546 0.0588,-9.28033 -0.40824,-10.52192 -1.24511,-3.30966 -1.86449,6.69121 -3.08746,49.85112 -0.57782,20.39249 -1.2716,39.81606 -1.54172,43.16349 -0.59862,7.41842 0.78231,9.59738 1.66136,2.62147 0.34637,-2.7487 0.89476,-5.4264 1.21866,-5.95047 z M 69.191294,696.16387 c -0.692808,-9.39363 -1.207125,-24.97077 -1.142928,-34.61586 0.0642,-9.64509 -0.278817,-18.88935 -0.762255,-20.5428 l -0.878977,-3.00626 -0.689611,3.50731 c -0.660674,3.36012 -0.488679,22.62379 0.518932,58.12108 0.484859,17.08121 1.438845,21.94279 3.243465,16.52893 0.645129,-1.93539 0.54826,-8.64524 -0.288626,-19.9924 z m 352.687616,-3.61028 c 0,-0.51862 -0.45094,-0.94295 -1.00208,-0.94295 -0.55115,0 -1.00209,0.70303 -1.00209,1.56228 0,0.85925 0.45094,1.28357 1.00209,0.94294 0.55114,-0.34063 1.00208,-1.04365 1.00208,-1.56227 z M 67.139875,633.07047 c 0,-4.18501 -0.905475,-6.77352 -2.109179,-6.02959 -1.037152,0.641 -1.223549,7.79236 -0.229026,8.78688 1.488364,1.48836 2.338205,0.4862 2.338205,-2.75729 z m -2.311826,-16.34681 c -0.254073,-0.975 -0.47866,-0.41991 -0.499081,1.23353 -0.02042,1.65345 0.187455,2.45118 0.46195,1.77273 0.274495,-0.67845 0.291204,-2.03127 0.03713,-3.00626 z"
         id="path3083"
         inkscape:connector-curvature="0" />
      <path
         style="fill:#971b1b"
         d="m 0,804.34551 0,-248.01671 240,0 240,0 0,248.01671 0,248.01669 -240,0 -240,0 0,-248.01669 z m 118.76329,241.99809 2.65161,-1.0081 -0.60211,-29.8061 c -0.94189,-46.62694 -2.48747,-114.42864 -3.54625,-155.56802 -0.53193,-20.66806 -1.22777,-52.00835 -1.54632,-69.6451 -0.31854,-17.63674 -0.99367,-45.59499 -1.50028,-62.12944 -0.50661,-16.53444 -1.39133,-49.45303 -1.96604,-73.1524 -1.24884,-51.49854 -2.70022,-71.64927 -5.16064,-71.64927 -2.25098,0 -4.24339,9.99231 -5.80548,29.11553 -1.20835,14.79273 -2.13924,129.28493 -2.378639,292.55463 l -0.203504,138.78917 4.509393,0.1288 c 2.48017,0.071 6.31315,0.8402 8.51775,1.7097 2.20459,0.8694 4.09173,1.6006 4.19363,1.6248 0.10192,0.024 1.37851,-0.4097 2.83688,-0.9642 z m -13.54408,-6.9494 c 0,-0.5186 0.45094,-1.2216 1.00208,-1.5623 0.55115,-0.3406 1.00209,0.084 1.00209,0.943 0,0.8592 -0.45094,1.5623 -1.00209,1.5623 -0.55114,0 -1.00208,-0.4244 -1.00208,-0.943 z m 106.34708,6.2547 5.73645,-1.703 1.21941,-8.5684 c 1.18602,-8.3337 0.6704,-41.05491 -0.70334,-44.63482 -0.31912,-0.83159 -1.43384,-1.51199 -2.47717,-1.51199 -2.29209,0 -2.35764,-0.96598 -0.38582,-5.68523 1.15603,-2.76677 1.27509,-4.46649 0.50664,-7.23295 -0.55249,-1.98894 -1.00704,-6.01031 -1.0101,-8.93637 -0.003,-2.92605 -0.41416,-5.06758 -0.91352,-4.75897 -1.15663,0.71484 -2.48553,-8.66725 -1.61578,-11.40755 0.90054,-2.83738 2.32487,-2.58808 2.70767,0.47394 0.58047,4.64326 2.32125,2.55328 2.32125,-2.7869 0,-4.65368 -0.24453,-5.27332 -2.11843,-5.36812 -1.16514,-0.0589 -2.63069,-0.42376 -3.25679,-0.81071 -1.70023,-1.0508 -1.39847,-8.14068 0.41039,-9.6419 0.8518,-0.70693 1.31689,-1.88949 1.03353,-2.62791 -1.19074,-3.10303 0.66249,-1.02885 2.15797,2.41524 l 1.63171,3.75783 0.74977,-4.00835 c 0.41238,-2.2046 0.50437,-5.66793 0.20444,-7.69631 -0.54416,-3.67993 -0.54986,-3.68375 -2.62158,-1.75365 -2.644,2.46326 -3.24217,2.42924 -5.1488,-0.29285 -2.27637,-3.24998 -2.00622,-9.69475 0.51908,-12.3828 1.77547,-1.88991 1.89335,-2.51032 0.8074,-4.24921 -0.9988,-1.59933 -1.01485,-2.59971 -0.0748,-4.6628 1.39022,-3.05122 1.54805,-8.44304 0.30459,-10.40548 -1.42552,-2.24977 -2.14505,0.20919 -2.28542,7.81034 -0.20751,11.23733 -1.47696,8.22488 -2.19049,-5.19814 -2.28894,-43.05942 -6.19682,-176.52747 -7.18114,-245.26097 -0.31965,-22.3215 -1.02577,-45.22171 -1.56914,-50.88935 -1.96182,-20.46273 -4.61503,-20.34619 -7.35902,0.32324 -1.16352,8.76441 -1.73269,24.23997 -2.11771,57.58072 -0.75657,65.51622 -0.89927,71.51777 -1.73137,72.82274 -0.41155,0.6454 -0.78161,44.74554 -0.82237,98.00031 -0.0605,79.10801 0.16943,97.1203 1.25676,98.43044 1.06507,1.28333 1.36337,12.2699 1.49365,55.01251 0.0896,29.37492 0.47466,53.91352 0.85581,54.53022 0.38116,0.6167 -0.0717,1.9664 -1.00645,2.9992 -1.71396,1.8939 -1.32793,4.0084 0.7318,4.0084 0.61301,0 1.90936,0.7192 2.88078,1.5984 2.01728,1.8256 8.46711,4.3048 11.36915,4.3701 1.07503,0.024 4.53599,-0.7223 7.69103,-1.6589 z m 4.49082,-28.9428 c -0.96159,-2.5058 -0.70821,-8.2557 0.39383,-8.9368 0.62216,-0.3845 1.00209,1.4927 1.00209,4.9513 0,5.7454 -0.34387,6.7272 -1.39592,3.9855 z m 65.75977,29 c 7.93995,-3.0535 7.56236,-1.6215 8.68198,-32.9263 2.1465,-60.01761 2.43324,-79.96189 2.32677,-161.83721 -0.0955,-73.46604 -0.73236,-127.04004 -1.73913,-146.30481 -0.15842,-3.03131 -0.57037,-26.02923 -0.91545,-51.10647 -0.4266,-31.00133 -1.07991,-48.65117 -2.04112,-55.14342 -3.42499,-23.13308 -6.8467,-19.26372 -8.00066,9.04738 -0.32575,7.99165 -1.03643,37.97913 -1.57931,66.63884 -0.54288,28.65971 -1.20122,58.64718 -1.46297,66.63883 -0.26175,7.99165 -0.71681,25.57829 -1.01123,39.08142 -1.43617,65.86632 -4.12066,124.91056 -5.77481,127.01462 -0.54162,0.68893 -1.81557,1.25261 -2.83098,1.25261 -2.60452,0 -4.43497,3.59666 -2.256,4.43281 0.89551,0.34364 1.72263,0.50145 1.83804,0.35069 0.1154,-0.15076 0.69556,-1.17599 1.28923,-2.27828 1.04261,-1.93583 1.11047,-1.91874 1.98991,0.50104 1.19023,3.2749 0.0892,13.25153 -1.52113,13.7829 -1.17945,0.38921 -1.42935,-0.71972 -1.67453,-7.4308 -0.12637,-3.45894 -1.58225,-4.00191 -1.58225,-0.59009 0,1.69937 -0.50341,3.25757 -1.1187,3.46267 -1.47496,0.49164 -2.7554,26.99489 -1.56348,32.36196 1.12296,5.05661 0.81048,20.66637 -0.44411,22.18518 -1.9198,2.32414 -3.00977,48.52433 -1.47654,62.58543 l 0.72051,6.6077 4.69689,1.5637 c 6.22376,2.072 10.27172,2.1007 15.44907,0.1096 z m 8.01894,-76.51716 c 0,-1.92902 0.20623,-2.71816 0.45829,-1.75365 0.25204,0.96451 0.25204,2.54279 0,3.5073 -0.25206,0.96451 -0.45829,0.17537 -0.45829,-1.75365 z m -0.0743,-9.01879 c 0,-1.37787 0.22745,-1.94154 0.50544,-1.25261 0.27799,0.68894 0.27799,1.81628 0,2.50522 -0.27799,0.68893 -0.50544,0.12526 -0.50544,-1.25261 z m -24.65256,-10.22906 c -0.93686,-8.54588 -0.94377,-11.34415 -0.0446,-18.07992 1.16407,-8.71996 3.09914,-7.44745 3.80959,2.50522 1.14207,15.99898 -2.20199,29.83229 -3.76502,15.5747 z m 105.4812,94.30161 c 1.85769,-1.4364 2.79828,-1.5796 4.69602,-0.7149 5.48421,2.4987 5.17194,11.6939 4.89498,-144.13474 -0.37015,-208.26821 -1.20552,-292.34039 -2.956,-297.49632 -0.76969,-2.26706 -1.82381,-7.11861 -2.3425,-10.78121 -1.00506,-7.09696 -1.74203,-9.07572 -3.07368,-8.25272 -1.30845,0.80867 -2.91908,12.00688 -3.53423,24.57246 -1.06952,21.84686 -3.79327,123.61906 -5.01517,187.39041 -0.32209,16.81002 -0.78402,36.65135 -1.02651,44.09186 -0.24248,7.4405 -1.10771,46.8977 -1.92271,87.68267 -0.81501,40.78497 -1.77011,84.18599 -2.12246,96.44659 l -0.64061,22.2922 2.35368,0.9023 c 3.03251,1.1625 7.73903,0.2825 10.68919,-1.9986 z m -127.58395,-0.3982 c 0,-0.5512 -1.69102,-1.1421 -3.75783,-1.3131 -3.524,-0.2917 -4.68888,0.549 -3.04227,2.1956 1.04357,1.0436 6.8001,0.2965 6.8001,-0.8825 z m -178.755278,-9.0188 c 0.999667,-14.5789 0.120649,-130.7785 -1.61465,-213.4447 -0.300806,-14.32985 -0.580048,-36.65136 -0.620537,-49.60334 -0.04049,-12.95198 -0.47233,-38.2046 -0.959648,-56.11691 -1.450891,-53.33047 -1.831241,-69.80162 -2.001614,-86.68059 -0.120796,-11.96742 -0.38696,-15.01691 -1.04956,-12.02505 -0.987639,4.45951 -1.235455,421.13969 -0.252797,425.05489 0.484925,1.9321 1.166099,2.381 3.247027,2.1398 2.572145,-0.2982 2.647742,-0.515 3.251779,-9.3241 z m 75.540248,-12.0251 c 0,-33.91016 -1.57766,-100.73667 -2.4328,-103.04833 -0.75063,-2.02916 -0.8557,-1.98982 -2.28951,0.85746 -1.06833,2.1215 -1.25162,3.85331 -0.63404,5.99048 1.07763,3.72918 0.0575,46.93712 -1.65602,70.14614 -1.02268,13.85135 -1.02424,46.58495 -0.002,47.04065 0.55115,0.2458 2.3549,0.3593 4.00835,0.2522 l 3.00626,-0.1947 0,-21.0439 z m 28.80884,20.6385 c 1.88457,-0.7165 2.30939,-1.5037 2.0279,-3.7578 -3.01141,-24.1144 -3.43953,-33.2752 -5.28476,-113.08109 -0.5862,-25.35282 -1.73272,-72.47599 -2.54784,-104.71816 -0.81512,-32.24218 -1.91836,-76.20878 -2.45164,-97.70356 -2.62474,-105.79333 -3.88529,-133.97378 -6.09397,-136.23382 -1.65677,-1.69531 -2.66392,0.70126 -3.87375,9.21791 -1.7747,12.49304 -1.36757,284.92922 0.43016,287.838 0.49181,0.79578 0.98238,15.09958 1.99008,58.02647 0.23796,10.13705 0.89348,29.07651 1.4567,42.08769 0.56321,13.01117 1.09702,31.09716 1.18621,40.19116 0.0892,9.0939 0.60584,17.0981 1.14809,17.787 1.14481,1.4545 8.53749,1.6676 12.01282,0.3462 z m 153.55833,-0.075 c 0.76596,-1.2394 1.32959,-13.6389 2.11905,-46.6178 0.34303,-14.32985 0.79004,-27.85804 0.99336,-30.06263 1.86652,-20.23927 5.41644,-202.23188 4.39165,-225.1451 -0.23249,-5.19814 0.0685,-8.18921 0.92854,-9.22542 0.72989,-0.87946 0.9266,-2.08623 0.46129,-2.82986 -0.4462,-0.71307 -0.87825,-29.25474 -0.9601,-63.42594 -0.12992,-54.23481 -0.36653,-63.20893 -1.86212,-70.62487 -1.97477,-9.79203 -2.58599,-11.185 -3.64807,-8.31395 -2.25109,6.08529 -2.93487,22.71565 -6.39762,155.59854 -0.7971,30.58872 -1.69903,64.63465 -2.00428,75.65762 -0.30526,11.02296 -1.21547,51.60752 -2.0227,90.18789 -0.80723,38.58038 -1.69448,75.10648 -1.97166,81.16911 -0.2772,6.06263 -0.77876,18.43181 -1.11459,27.48711 -0.33581,9.0552 -0.90758,17.3976 -1.27056,18.5386 -1.07654,3.3839 -0.70544,6.6253 0.8728,7.6234 1.96249,1.241 10.71553,1.2283 11.48501,-0.017 z m 24.93263,-2.2754 c 0.32545,-1.7912 0.32243,-13.4029 -0.007,-25.8037 -0.32915,-12.4009 -0.65798,-31.43051 -0.73073,-42.28813 -0.0959,-14.30574 -0.47716,-20.08602 -1.38489,-20.99373 -1.55228,-1.55229 -1.64417,-10.92105 -0.13951,-14.22343 0.76033,-1.66873 0.79356,-3.01397 0.10485,-4.24462 -0.70307,-1.25633 -0.59557,-3.17288 0.35519,-6.33202 1.21812,-4.04749 1.18298,-4.72982 -0.32971,-6.40132 -1.63643,-1.80824 -1.71924,-1.77601 -2.47124,0.96168 -1.28652,4.68355 -3.57385,66.40514 -3.6979,99.78457 l -0.0844,22.7975 3.89683,0 c 3.60697,0 3.94084,-0.2422 4.48856,-3.2568 z m 73.96815,-22.2964 c 0.76177,-27.92525 1.07665,-387.36098 0.35246,-402.33824 -0.25317,-5.23591 -0.47706,-9.93319 -0.49756,-10.43841 -0.0204,-0.50522 -0.26952,-0.68631 -0.5534,-0.40243 -0.28389,0.28388 -0.7272,17.60747 -0.98514,38.49687 -0.25795,20.88939 -0.71236,48.35233 -1.00978,61.02874 -0.29744,12.67641 -0.7473,39.73277 -0.9997,60.12526 -0.25239,20.39248 -0.71972,44.06681 -1.03849,52.6096 -1.61664,43.32389 -2.57139,221.39861 -1.20521,224.78851 0.47313,1.1739 1.54011,1.7096 2.99425,1.5031 2.25421,-0.3201 2.26068,-0.3758 2.94257,-25.373 z m -405.297568,20.0054 c -0.535551,-3.9991 -1.732384,-4.0485 -1.732384,-0.072 0,2.2928 0.396068,3.4886 1.026434,3.099 0.564539,-0.3488 0.882217,-1.7112 0.70595,-3.0275 z M 465.1437,1032.571 c 0.25943,-4.8226 0.17539,-12.3758 -0.18674,-16.785 -0.64462,-7.8485 -0.66191,-7.7622 -0.8244,4.119 -0.0913,6.6747 -0.45273,14.2279 -0.80321,16.785 -0.38702,2.8235 -0.24851,4.6493 0.35271,4.6493 0.54448,0 1.20222,-3.9458 1.46164,-8.7683 z m -222.08664,-4.8352 c 1.23334,-21.5868 1.43544,-48.67588 1.4685,-196.83497 0.0333,-149.12272 -0.37758,-196.50949 -1.89407,-218.45512 -0.67366,-9.7488 -0.82101,-10.30103 -2.00532,-7.51566 l -1.27822,3.00627 -1.30904,-2.43532 c -1.29208,-2.40381 -1.31593,-2.38436 -1.84234,1.50313 -0.29332,2.16615 -0.55137,4.84033 -0.57345,5.94263 -2.18435,109.11028 -1.87145,386.6888 0.44012,390.42904 1.08583,1.7569 2.40093,-1.135 2.41829,-5.3177 0.0249,-6.00159 2.00943,-5.63917 2.09596,0.38276 0.0421,2.92604 0.17614,8.70214 0.29798,12.83574 0.12185,4.1336 0.31292,11.9875 0.4246,17.4531 0.11168,5.4655 0.42484,9.7155 0.69591,9.4445 0.27107,-0.2711 0.74856,-4.9684 1.06108,-10.4384 z m -4.40197,-413.28591 c 0,-1.37787 0.22745,-1.94155 0.50544,-1.25261 0.27799,0.68893 0.27799,1.81628 0,2.50522 -0.27799,0.68893 -0.50544,0.12526 -0.50544,-1.25261 z M 15.508588,1012.1441 c -0.210244,-8.8758 -0.62911,-16.38465 -0.930812,-16.68636 -0.301701,-0.3017 -0.548548,7.21916 -0.548548,16.71306 0,10.3714 0.371548,17.0321 0.930812,16.6864 0.536811,-0.3318 0.769004,-7.4062 0.548548,-16.7131 z M 465.19232,997.58471 c -0.95936,-3.62106 -1.01866,-3.43672 -1.01985,3.16999 -10e-4,6.1654 0.1222,6.6308 1.01859,3.8446 0.69126,-2.1486 0.69166,-4.4087 0.001,-7.01459 z M 14.920318,979.96138 c 0.150654,-6.75156 0.295717,-13.40292 0.322365,-14.78079 0.04616,-2.38643 -0.286346,-34.59574 -1.768926,-171.357 -0.369935,-34.12491 -1.062685,-61.28337 -1.584776,-62.12944 -0.570519,-0.92455 -0.718342,32.0547 -0.384037,85.6785 0.852,136.66443 1.495216,174.86431 2.944395,174.86431 0.108385,0 0.320325,-5.52401 0.470979,-12.27558 z m 451.660852,-72.9972 c 0.43099,-59.18012 0.2905,-80.28906 -0.52912,-79.50428 -1.15323,1.10421 -2.39632,76.7288 -2.04142,124.1925 0.0948,12.67641 0.10655,25.23185 0.0262,27.90096 -0.14223,4.72172 0.68633,9.25484 1.53625,8.40492 0.23176,-0.23174 0.68541,-36.67908 1.00814,-80.9941 z m -58.61874,37.48935 c 0.46558,-4.859 1.092,-24.61741 1.39203,-43.9076 0.30005,-19.29019 1.02266,-45.44468 1.60582,-58.12109 0.58316,-12.67641 1.20374,-37.47808 1.37906,-55.11482 0.17533,-17.63675 0.57797,-34.09604 0.89477,-36.5762 0.50812,-3.97795 1.98228,-54.94639 1.85494,-64.13362 -0.0268,-1.92902 0.42924,-18.61378 1.0133,-37.07724 1.47395,-46.59545 1.4759,-49.79263 0.0313,-51.23879 -0.67976,-0.68046 -1.46572,-1.00741 -1.74658,-0.72654 -1.61399,1.61399 -2.68623,15.6517 -4.07328,53.32727 -0.85507,23.22588 -1.99779,52.60048 -2.53938,65.27689 -2.61797,61.27641 -4.91306,213.24239 -3.47861,230.33162 0.93512,11.14057 2.48643,10.27752 3.66666,-2.03988 z M 75.109539,902.04906 c -0.01663,-50.48897 -0.943092,-93.00114 -4.029138,-184.88518 -0.518309,-15.43215 -1.383353,-41.58664 -1.922319,-58.12109 -0.951935,-29.20357 -2.505819,-55.26489 -3.629729,-60.87683 -0.706678,-3.5286 -2.14251,-3.5286 -3.129303,0 -1.275667,4.56157 -0.528809,45.65511 1.743849,95.9499 1.176244,26.03072 2.114179,66.39171 2.491726,107.22339 0.157981,17.08559 0.746588,40.08351 1.308015,51.10647 0.561427,11.02297 1.018858,21.39457 1.016515,23.04802 -0.0023,1.65344 0.296783,10.67223 0.664727,20.04175 0.367943,9.36952 0.793771,22.67224 0.946284,29.56159 0.272556,12.31191 1.28617,25.12665 2.217134,28.03037 1.78651,5.57223 2.33692,-6.53421 2.322239,-51.07839 z m 63.108121,0.30967 c 0.0402,-5.82006 -0.36136,-10.47912 -0.93352,-10.83275 -2.9678,-1.83419 -4.30543,13.92474 -1.8275,21.53009 0.9945,3.05234 1.23518,3.24135 1.91407,1.50314 0.42709,-1.09353 0.80822,-6.58374 0.84695,-12.20048 z m 207.37643,-1.42618 c -1.73226,-6.75893 -3.88219,-6.48744 -3.88219,0.49021 0,2.96242 0.28197,6.79605 0.6266,8.51918 l 0.62658,3.13296 1.94191,-3.62318 c 1.73938,-3.24531 1.81104,-4.13377 0.6871,-8.51917 z m -128.37071,8.94532 c -0.61936,-1.85809 -2.77662,-2.16627 -2.77662,-0.39665 0,0.87264 0.71399,1.58663 1.58664,1.58663 0.87266,0 1.40814,-0.53549 1.18998,-1.18998 z m 47.99143,-23.11065 c -0.27799,-0.68893 -0.50544,-0.12526 -0.50544,1.25261 0,1.37787 0.22745,1.94155 0.50544,1.25261 0.27799,-0.68893 0.27799,-1.81628 0,-2.50522 z m 1.32517,-12.22547 c 0.009,-3.00824 -0.34345,-4.58569 -0.89639,-4.00835 -0.85068,0.88824 -1.56903,7.06861 -1.21716,10.47182 0.37053,3.58374 2.09882,-1.70154 2.11355,-6.46347 z m -52.09322,-2.25469 c 0,-2.01519 -0.28967,-2.41597 -1.13514,-1.57049 -0.62433,0.62433 -0.86396,1.84186 -0.5325,2.70563 0.91734,2.39056 1.66764,1.87984 1.66764,-1.13514 z m 52.12187,-8.34946 c 1.43825,-3.47223 0.74934,-4.85456 -1.49222,-2.99424 -1.62512,1.34873 -2.12734,6.03263 -0.64684,6.03263 0.48428,0 1.44686,-1.36728 2.13906,-3.03839 z m -51.11978,-1.83966 c 0,-0.96443 -0.60638,-2.58278 -1.34751,-3.59633 -1.30161,-1.78006 -1.36478,-1.77678 -1.85462,0.0964 -0.66042,2.52541 0.88959,6.6827 2.19157,5.87803 0.5558,-0.34351 1.01056,-1.41364 1.01056,-2.37807 z m 50.69726,-14.78471 c -0.31829,-0.82946 -1.03284,-1.22744 -1.58789,-0.88442 -1.42726,0.88211 -1.25502,4.26221 0.24345,4.77754 1.44202,0.4959 2.19356,-1.68034 1.34444,-3.89312 z m 200.48833,-29.69006 c -0.27799,-0.68893 -0.50545,-0.12526 -0.50545,1.25261 0,1.37787 0.22746,1.94155 0.50545,1.25261 0.27798,-0.68893 0.27798,-1.81628 0,-2.50522 z m 0.40574,-16.78497 c 0.14126,-7.99165 0.13896,-15.88309 -0.005,-17.53653 -0.26001,-2.98375 -0.26799,-2.98751 -1.06429,-0.50105 -1.5098,4.71438 -1.02646,34.48107 0.53355,32.85812 0.15345,-0.15964 0.3946,-6.82889 0.53586,-14.82054 z m 0.62712,-26.78677 c -0.25407,-0.97501 -0.47866,-0.41991 -0.49908,1.23354 -0.0205,1.65344 0.18745,2.45116 0.46195,1.77272 0.27449,-0.67844 0.2912,-2.03126 0.0372,-3.00626 z m 0.30765,-24.98776 c 0,-9.1858 -0.29154,-16.40992 -0.64786,-16.0536 -0.81708,0.81708 -1.6936,29.42863 -0.96011,31.34006 1.29744,3.38109 1.60797,0.42899 1.60797,-15.28646 z M 12.411304,705.13883 c -0.606156,-3.72583 -0.715538,-3.83746 -1.551817,-1.5838 -0.494833,1.3335 -0.574971,5.16649 -0.178085,8.51774 l 0.72161,6.0932 0.830206,-4.5094 c 0.456614,-2.48017 0.536752,-6.31315 0.178086,-8.51774 z m 455.225216,-0.75157 c -0.27799,-0.68894 -0.50544,-0.12526 -0.50544,1.25261 0,1.37787 0.22745,1.94154 0.50544,1.25261 0.27799,-0.68894 0.27799,-1.81628 0,-2.50522 z M 58.811851,607.6858 c -0.252053,-0.96451 -0.458278,-0.17537 -0.458278,1.75365 0,1.92902 0.206225,2.71816 0.458278,1.75365 0.252052,-0.96451 0.252052,-2.5428 0,-3.5073 z"
         id="path3081"
         inkscape:connector-curvature="0" />
      <path
         style="fill:#871818"
         d="m 0,804.34551 0,-248.01671 240,0 240,0 0,248.01671 0,248.01669 -240,0 -240,0 0,-248.01669 z m 285.9135,240.30029 c 5.25109,-1.9458 7.07186,-3.143 7.86827,-5.1738 0.67378,-1.7181 1.00122,-22.0936 0.93622,-58.25801 -0.17202,-95.70465 -1.16009,-228.2115 -2.02873,-272.06681 -0.4585,-23.14823 -0.71506,-46.37161 -0.57014,-51.60752 0.50523,-18.25386 -1.41234,-54.14772 -3.42623,-64.13361 -2.28723,-11.34124 -3.82455,-15.71043 -5.08184,-14.44293 -3.5238,3.5524 -4.42649,23.90785 -7.63951,172.27174 -0.25065,11.57411 -0.89355,25.45819 -1.42867,30.8535 -0.53511,5.39531 -0.97293,13.82381 -0.97293,18.73 0,4.90619 -0.42322,9.18192 -0.9405,9.50162 -1.93748,1.19742 -2.78513,-3.0125 -2.30436,-11.44465 0.41338,-7.25002 0.13058,-9.73193 -1.69468,-14.87293 -1.29064,-3.63519 -2.29768,-9.13939 -2.45082,-13.39554 -0.26683,-7.41599 -1.60078,-9.64031 -3.57224,-5.95661 -0.65263,1.21945 -1.26022,12.40454 -1.54109,28.36987 -0.25503,14.49619 -0.73059,36.95378 -1.05682,49.90577 -1.41378,56.13054 -1.82375,200.46541 -0.57296,201.71621 1.46199,1.462 12.3557,3.4805 16.13764,2.9901 1.92902,-0.2501 6.58174,-1.594 10.33939,-2.9864 z m -164.25862,0.811 c 1.64241,-1.8149 2.53474,-10.8163 1.2744,-12.8555 -0.28543,-0.4619 -0.59802,-7.5908 -0.69465,-15.8421 -0.0966,-8.2513 -0.58679,-29.43247 -1.08923,-47.06922 -0.50244,-17.63674 -1.8083,-69.04384 -2.90191,-114.238 -2.44174,-100.90684 -2.76776,-113.27559 -4.01483,-152.31733 -0.54575,-17.0856 -1.45861,-46.8476 -2.02859,-66.13779 -0.94482,-31.97638 -2.13138,-50.22842 -3.5667,-54.8643 -0.81454,-2.63082 -3.02702,-2.11245 -4.27703,1.00209 -0.60832,1.51565 -1.76024,6.58872 -2.55983,11.27348 -2.096181,12.2814 -3.804243,177.58679 -3.406578,329.68686 l 0.315705,120.75161 5.010443,0.051 c 2.75574,0.028 5.91231,0.5778 7.01461,1.2221 3.1644,1.8496 8.96929,1.4975 10.92419,-0.6626 z m 91.59657,0.7616 c 2.58644,-0.6233 5.33961,-1.7274 6.11814,-2.4534 2.00198,-1.8669 1.765,-99.31738 -0.49449,-203.34433 -0.33519,-15.43215 -0.82129,-39.10648 -1.08024,-52.60961 -0.70228,-36.62223 -0.81951,-38.95784 -2.0153,-40.15363 -0.79975,-0.79975 -1.53727,-0.47778 -2.69643,1.17714 -1.34384,1.9186 -1.50693,4.44083 -1.03371,15.98647 0.45228,11.0349 0.24938,14.62883 -1.04034,18.42761 -1.23935,3.65044 -1.45715,6.80055 -0.96174,13.9101 0.53283,7.64663 0.33752,9.86444 -1.16239,13.19929 l -1.80284,4.00835 -0.7565,-10.02088 c -2.83831,-37.5969 -3.66094,-59.73098 -5.9311,-159.58527 -1.03679,-45.60341 -2.32956,-63.12641 -4.8426,-65.63945 -3.11462,-3.11462 -7.4485,20.41464 -7.79933,42.34371 -0.14548,9.09395 -0.73433,45.84551 -1.30853,81.67015 -1.76809,110.30982 -2.76121,331.55425 -1.51065,336.53685 0.44854,1.7871 1.56044,2.908 3.31938,3.3463 1.45471,0.3624 4.44868,1.4759 6.65327,2.4744 4.60434,2.0855 11.56254,2.3609 18.3454,0.7262 z m 156.2484,-0.3933 c 1.33494,-0.935 3.84848,-1.4204 6.48602,-1.2526 l 4.30641,0.2741 0.29533,-122.75578 c 0.31493,-130.89964 -1.29407,-317.20695 -2.80397,-324.67642 -0.50135,-2.48017 -1.34459,-6.7641 -1.87386,-9.51984 -1.27533,-6.64013 -2.14398,-8.67914 -3.50715,-8.23242 -3.63763,1.19209 -4.88544,20.30094 -7.11394,108.94224 -0.82444,32.79332 -1.72858,64.58455 -2.0092,70.64718 -0.28061,6.06263 -0.75359,21.62005 -1.05107,34.57203 -0.29747,12.95198 -0.97741,39.33194 -1.511,58.62213 -0.53359,19.29019 -1.43088,56.71817 -1.99398,83.17328 -0.56311,26.45512 -1.464,61.85387 -2.00199,78.6639 -0.90301,28.2156 -0.84805,30.6599 0.71542,31.8163 2.34152,1.7318 9.42904,1.5708 12.06298,-0.2741 z m -123.86179,-14.5067 c 0.88704,-20.5367 1.17756,-269.05341 0.39944,-341.71193 -0.64011,-59.7723 -1.6891,-89.81094 -3.34194,-95.69938 l -0.84384,-3.00626 -1.30164,2.42287 -1.30165,2.42287 -1.25744,-2.34955 c -1.16014,-2.16775 -1.34155,-1.81244 -2.34447,4.59174 -0.99172,6.33261 -1.98672,44.01709 -2.67038,101.13754 -0.27021,22.57543 -0.36694,337.6879 -0.10505,342.213 0.25117,4.34 1.39865,5.132 6.96797,4.8091 l 5.17138,-0.2998 0.62762,-14.5302 z m 103.92278,13.529 c 0.36784,-0.3679 0.83968,-41.554 1.04854,-91.5248 0.20885,-49.9708 0.49368,-98.97291 0.63296,-108.89358 0.38639,-27.52139 0.4101,-39.11459 0.15728,-76.90697 -0.20231,-30.24218 -0.44178,-35.02812 -1.82168,-36.40803 -1.75513,-1.75512 -1.55658,-9.1893 0.35038,-13.1186 1.15923,-2.38862 0.31265,-8.91434 -1.28452,-9.90145 -3.35744,-2.07502 -4.56295,6.9009 -3.97713,29.61271 0.0639,2.48016 -0.39143,10.59707 -1.01198,18.03758 -0.62057,7.4405 -1.26537,18.26304 -1.43291,24.0501 -0.16754,5.78706 -0.55386,14.35491 -0.8585,19.03967 -0.30463,4.68476 -0.79535,19.56576 -1.09049,33.06889 -0.29513,13.50313 -0.75629,32.21712 -1.0248,41.58664 -0.26851,9.36952 -0.79416,51.82435 -1.1681,94.34407 -0.66333,75.42397 -0.63345,77.32167 1.22554,77.84467 2.33107,0.6558 9.33616,0.088 10.25541,-0.8309 z m -306.653363,-13.028 c 0.41345,-16.8975 0.344028,-98.13003 -0.103194,-120.75155 -0.21392,-10.82055 -1.006121,-21.10212 -2.068568,-26.84686 -0.94703,-5.12069 -1.460345,-9.7335 -1.140699,-10.2507 0.319645,-0.51719 0.06536,-1.90416 -0.565081,-3.08215 -1.065845,-1.99155 -1.262405,-2.02565 -2.802081,-0.48607 -1.510516,1.51043 -1.673111,9.11349 -1.852754,86.63671 -0.108309,46.73952 -0.274445,85.39152 -0.36919,85.89332 -0.406354,2.1522 0.29745,2.5139 4.323944,2.2226 l 4.258873,-0.3081 0.31875,-13.0272 z m 23.69005,12.5929 c 0.317911,-0.5143 0.703249,-11.0944 0.856305,-23.5111 0.153056,-12.4167 0.541813,-22.83943 0.863904,-23.16152 0.756584,-0.75659 1.779083,3.36452 2.861401,11.53272 0.474689,3.5825 1.157651,7.8664 1.517692,9.5199 0.36004,1.6534 0.966105,5.4864 1.346812,8.5177 1.452081,11.562 2.452763,-30.1202 2.369665,-98.70561 -0.08336,-68.80184 -1.219044,-123.76606 -4.31708,-208.93529 -0.531273,-14.60543 -1.406189,-39.85804 -1.944257,-56.11691 -1.717899,-51.91 -3.649462,-74.77711 -6.243319,-73.91249 -0.58395,0.19465 -1.786835,2.73611 -2.673079,5.64769 -0.886245,2.91158 -2.055713,5.23016 -2.598818,5.1524 -0.543106,-0.0778 -1.38539,1.35168 -1.871745,3.17653 -1.047542,3.93049 -0.297606,438.86418 0.759664,440.57488 0.852395,1.3792 8.24576,1.5594 9.072855,0.2211 z m 73.858953,-72.2171 c -0.54263,-117.03588 -2.34685,-204.96927 -4.28045,-208.61889 -0.4918,-0.92827 -0.89419,-2.82355 -0.89419,-4.21172 0,-1.38816 -0.51724,-3.65916 -1.14942,-5.04664 -0.82478,-1.8102 -0.8441,-2.89058 -0.0684,-3.82526 1.16828,-1.40769 -0.18654,-15.53312 -1.8511,-19.29958 -0.48715,-1.1023 -0.68023,-4.48435 -0.42907,-7.51566 1.08475,-13.09204 1.12757,-12.5261 -0.94771,-12.5261 -2.58845,0 -3.9885,5.43699 -3.09654,12.02505 0.3731,2.75575 0.67692,5.46138 0.67515,6.01253 -0.002,0.55115 -0.3158,21.0689 -0.69783,45.59499 -0.38204,24.5261 -0.66448,45.94572 -0.62765,47.59917 0.18502,8.30549 1.29208,170.96915 1.32306,194.40181 0.0256,19.3769 0.36553,27.2701 1.19793,27.8179 0.63919,0.4206 3.41687,0.6475 6.17261,0.5043 l 5.01044,-0.2605 -0.33684,-72.6514 z m 36.22026,70.9827 c 1.97821,-1.0587 1.99571,-1.7867 1.39006,-57.82286 -0.42454,-39.28032 -0.99236,-58.39019 -1.8445,-62.07652 -0.91417,-3.95473 -0.95828,-6.79257 -0.17129,-11.02296 1.30868,-7.03463 0.78801,-28.69466 -0.7808,-32.48211 -0.63529,-1.53372 -0.87692,-4.17936 -0.53695,-5.87918 0.79433,-3.9717 -1.19113,-27.16013 -2.43283,-28.41306 -0.59059,-0.59594 -1.03118,2.58967 -1.17804,8.51775 -0.12903,5.20835 -0.32538,12.85177 -0.43634,16.98538 -1.08095,40.26966 -1.01785,50.70973 0.3224,53.35253 0.76623,1.51089 1.13547,3.7738 0.82052,5.02865 -0.31495,1.25487 -0.15442,4.94846 0.35672,8.208 0.71367,4.551 0.5872,6.93062 -0.54492,10.25318 -0.81084,2.37971 -1.84434,4.32675 -2.29665,4.32675 -1.08549,0 -1.93682,-11.53185 -1.99741,-27.05637 -0.0269,-6.88935 -0.20793,-15.90814 -0.40233,-20.04175 -0.56247,-11.96079 -1.55182,-42.75904 -1.69,-52.60961 -0.0695,-4.96033 -0.75037,-26.15449 -1.51288,-47.09812 -0.7625,-20.94364 -1.82977,-53.86222 -2.3717,-73.15241 -3.46969,-123.50395 -4.88341,-149.81211 -8.05038,-149.81211 -1.14756,0 -1.95171,2.52863 -3.65319,11.48729 -0.83357,4.38899 -1.94573,8.78372 -2.47146,9.76606 -0.82556,1.54256 -1.21608,154.38098 -0.45522,178.16211 0.13224,4.13361 0.35122,25.79385 0.4866,48.13388 0.13538,22.34002 0.63214,46.91622 1.10388,54.61378 1.02201,16.67604 2.34072,63.74093 2.51199,89.65318 0.0674,10.19624 0.60234,29.78152 1.18876,43.52292 1.27554,29.8889 0.38597,28.1272 13.71923,27.1691 4.90781,-0.3527 9.82484,-1.1238 10.92673,-1.7135 z m 147.92416,0.4161 c 2.39251,-1.9509 2.63206,-6.2825 2.1127,-38.2035 -0.18066,-11.10365 0.0839,-15.61274 0.9473,-16.14635 0.885,-0.54696 1.16308,-7.51731 1.06446,-26.68172 -0.14536,-28.24999 0.55784,-63.33974 1.36402,-68.06428 1.10158,-6.45576 2.09691,-98.79169 1.98987,-184.59941 -0.062,-49.74113 -0.20976,-91.22756 -0.32824,-92.19207 -0.11849,-0.96451 0.10151,-3.64865 0.48888,-5.96477 0.38736,-2.31611 0.33305,-5.02175 -0.12068,-6.01252 -0.45375,-0.99078 -1.75118,-6.53628 -2.88319,-12.32333 -1.4877,-7.60541 -2.46293,-10.52193 -3.51835,-10.52193 -0.85738,0 -1.7707,1.44786 -2.21245,3.50731 -1.32721,6.18745 -3.82701,69.42442 -6.31833,159.83299 -0.78976,28.65971 -1.69445,58.64719 -2.01044,66.63884 -0.31599,7.99165 -0.80132,24.45094 -1.07853,36.5762 -0.67464,29.51015 -1.82122,46.37048 -3.2506,47.79986 -2.48093,2.48093 -2.74784,0.79385 -3.28177,-20.74349 -0.041,-1.65345 -0.0246,-5.44776 0.0363,-8.4318 0.10302,-5.04524 -1.10681,-8.29286 -2.55124,-6.84842 -0.34076,0.34076 -0.70119,4.14368 -0.80094,8.45094 -0.0997,4.30725 -0.54128,8.41091 -0.9812,9.11925 -0.90267,1.45346 -1.4717,43.96016 -0.60721,45.35894 0.30685,0.49649 1.66555,1.02661 3.01932,1.17805 2.25071,0.25176 2.50431,-0.13424 2.96247,-4.50917 0.6433,-6.14288 2.54841,-5.73425 2.36865,0.50805 -0.17481,6.07052 -1.04856,8.5026 -2.52443,7.02673 -0.76637,-0.76637 -1.77179,-0.78251 -3.37054,-0.054 -2.11597,0.9641 -2.32713,1.86934 -2.96224,12.69913 -0.42116,7.18149 -0.27801,13.39328 0.37263,16.17042 1.49813,6.39441 1.34953,12.32143 -0.36578,14.58926 -2.09561,2.77065 -2.25741,67.21299 -0.17589,70.05959 2.51195,3.4353 18.99476,4.7335 22.61549,1.7812 z m -15.87878,-93.02719 c 0.0481,-1.16738 0.28554,-1.40482 0.60542,-0.60543 0.28948,0.72338 0.25388,1.58769 -0.0791,1.92067 -0.33299,0.33299 -0.56983,-0.25888 -0.52632,-1.31524 z m -0.73462,-6.67998 c -0.78813,-1.27523 -0.64394,-5.83932 0.28542,-9.03395 0.9881,-3.39661 2.37426,-0.57463 2.37426,4.83362 0,5.23626 -1.02196,6.85021 -2.65968,4.20033 z m 0.26168,-34.40407 c -0.86435,-2.25246 -0.75943,-3.89937 0.45137,-7.08399 0.8483,-2.23124 1.24492,-2.49403 1.98882,-1.31784 1.51882,2.40142 1.18764,9.98692 -0.43602,9.98692 -0.76776,0 -1.66964,-0.71328 -2.00417,-1.58509 z m 112.69545,134.28004 c 1.07646,-1.2971 1.32619,-41.5582 1.37531,-221.72492 l 0.06,-220.14006 -3.20397,-4.83899 c -1.76218,-2.66144 -3.39146,-5.36123 -3.62063,-5.99954 -0.84646,-2.35763 -1.84514,0.3425 -3.18266,8.60498 -0.75497,4.66377 -1.85181,23.76483 -2.43742,42.44679 -0.58561,18.68198 -1.30633,37.80021 -1.60159,42.48497 -1.85789,29.47728 -4.12921,107.34377 -4.95456,169.85387 -0.29836,22.59707 -0.74743,52.81002 -0.99795,67.13987 -0.37225,21.2931 0.0614,41.15707 1.56416,71.64927 0.0679,1.37788 -0.16201,5.94742 -0.51094,10.15456 -0.38119,4.5961 -0.20929,8.7675 0.43069,10.4507 l 1.06507,2.8014 2.09071,-2.0907 c 1.50856,-1.5086 2.159,-3.5814 2.33599,-7.4445 0.13491,-2.9445 0.7404,-6.4811 1.34555,-7.85893 0.93692,-2.13328 1.08924,-1.5382 1.02603,4.00833 -0.17059,14.9667 0.29776,40.547 0.75593,41.2883 0.88002,1.4239 7.10642,0.8459 8.46026,-0.7854 z m 23.50838,0.5388 c 0.35555,-0.5753 0.12541,-1.6738 -0.51143,-2.4411 -0.82822,-0.998 -0.858,-1.9556 -0.10461,-3.3633 0.85935,-1.6057 0.87317,-124.62849 0.0193,-172.02225 -0.0695,-3.85804 -0.0255,-12.42589 0.098,-19.03967 0.21387,-11.46348 -1.09115,-20.5428 -2.95272,-20.5428 -1.89078,0 -3.26695,6.03209 -2.67235,11.71348 1.26103,12.04915 2.63225,25.93566 2.7519,27.86899 0.12349,1.99537 -2.71244,20.78179 -3.85742,25.55324 l -0.60117,2.50521 -0.75833,-2.50521 c -0.48822,-1.61286 -0.79391,0.61801 -0.85822,6.26304 -0.0817,7.17035 0.17405,8.76827 1.40325,8.76827 2.28619,0 2.19352,20.22547 -0.1014,22.13008 -1.31958,1.09516 -1.48723,2.5851 -0.94405,8.38993 0.36325,3.88205 0.61731,8.86204 0.56456,11.06663 -0.70737,29.56323 -0.39352,55.59906 0.70972,58.87536 0.95571,2.8382 1.01666,5.5207 0.2485,10.9369 -0.5598,3.9471 -0.94329,11.6118 -0.85223,17.0328 l 0.16558,9.8564 3.80334,0 c 2.09185,0 4.09425,-0.4707 4.4498,-1.046 z m -427.319844,-3.5461 c 0.329295,-1.6079 0.429494,-14.197 0.222663,-27.9757 -0.20683,-13.77875 -0.827811,-68.79337 -1.379957,-122.25475 -1.517896,-146.96996 -1.897644,-172.37921 -2.942881,-196.91023 -0.528385,-12.40084 -1.291744,-31.79124 -1.696353,-43.08977 -0.604329,-16.87559 -0.860526,-19.29058 -1.4351512,-13.52819 -0.3847231,3.85804 -0.5339481,17.38622 -0.3316111,30.06263 0.202337,12.67641 0.6179833,75.13153 0.9236583,138.78915 0.305674,63.65762 0.787154,130.39667 1.069955,148.30898 1.245492,78.88848 1.462023,88.37248 2.038963,89.30598 1.0686,1.729 2.911521,0.3155 3.530714,-2.7081 z m 448.781244,1.6912 c 0.55892,-1.0444 0.92992,-4.3137 0.82444,-7.2652 -0.35443,-9.9173 1.33443,-234.81961 1.77961,-236.98615 0.68233,-3.32073 0.74013,-165.76036 0.0592,-166.44127 -0.3315,-0.3315 -0.64659,1.61439 -0.70022,4.3242 -0.0536,2.70981 -0.25344,9.43633 -0.44405,14.94781 -3.55962,102.92648 -7.26694,388.60071 -5.08879,392.12501 1.07025,1.7317 2.40718,1.4679 3.56979,-0.7044 z m -59.56785,-22.1513 c 0.34062,-0.5511 0.14177,-1.0021 -0.44191,-1.0021 -0.58367,0 -1.06123,0.451 -1.06123,1.0021 0,0.5512 0.19886,1.0021 0.4419,1.0021 0.24305,0 0.72061,-0.4509 1.06124,-1.0021 z M 40.161771,838.03413 c 0.04043,-7.39309 -0.439389,-9.13747 -2.513408,-9.13747 -2.852502,0 -3.908941,7.50783 -2.716631,19.30639 0.599639,5.93375 1.553155,11.65359 2.118926,12.71074 0.565771,1.05715 1.107698,3.19182 1.204282,4.74372 0.239789,3.85285 1.863316,-19.66642 1.906831,-27.62338 z m 265.167319,10.17179 c -0.25407,-0.975 -0.47865,-0.41991 -0.49908,1.23354 -0.0204,1.65344 0.18745,2.45116 0.46195,1.77272 0.2745,-0.67844 0.2912,-2.03126 0.0372,-3.00626 z m 3.56769,-2.42083 c -0.55593,-0.55593 -0.70299,0.3789 -0.37286,2.37027 0.46132,2.78272 0.60246,2.92386 0.918,0.91799 0.20507,-1.30364 -0.0403,-2.78336 -0.54514,-3.28826 z M 175.18955,834.49674 c 0.17889,-1.51972 0.007,-3.51417 -0.38227,-4.43212 -0.38913,-0.91795 -0.79465,-12.16449 -0.90117,-24.99232 -0.13176,-15.87023 -0.55837,-23.68803 -1.335,-24.46465 -0.85375,-0.85375 -0.99157,-0.21837 -0.54695,2.5215 0.36824,2.26921 0.12251,4.23145 -0.64584,5.15725 -1.82784,2.20242 -1.70501,44.55648 0.13777,47.50724 1.71438,2.74516 3.26198,2.19878 3.67346,-1.2969 z m 133.84729,-1.17265 c 0.33454,-0.87179 0.60825,-3.00123 0.60825,-4.73208 l 0,-3.14698 -2.06411,2.06411 c -1.52585,1.52584 -1.88949,2.75986 -1.3945,4.73208 0.75317,3.00086 1.94116,3.45219 2.85036,1.08287 z m -1.59723,-15.77207 c 1.40765,-3.89278 1.60452,-12.33927 0.30631,-13.14161 -1.3274,-0.82038 -2.18453,2.12121 -2.82803,9.70546 -0.62237,7.3352 0.53938,8.91823 2.52172,3.43615 z m 135.18979,-1.92134 c -0.23968,-1.24651 -0.4449,-0.46262 -0.45603,1.74197 -0.0111,2.20459 0.185,3.22447 0.43581,2.26638 0.25081,-0.95808 0.25991,-2.76184 0.0202,-4.00835 z m -0.1061,-17.84129 c 0.71205,-10.92374 0.67084,-9.94106 0.51812,-12.35572 -0.10227,-1.61721 -0.34386,-1.68946 -1.74916,-0.52317 -1.32793,1.10209 -1.53117,2.66654 -1.09525,8.43044 0.29439,3.89248 0.11336,7.83111 -0.40227,8.75251 -1.11305,1.98889 -0.0192,7.30325 1.24333,6.04071 0.47711,-0.47711 1.14548,-5.13226 1.48523,-10.34477 z m -404.443968,6.05508 c 0,-1.03724 -0.45094,-2.16459 -1.002088,-2.50522 -0.58622,-0.36231 -1.002087,0.67736 -1.002087,2.50522 0,1.82785 0.415867,2.86752 1.002087,2.50522 0.551148,-0.34063 1.002088,-1.46798 1.002088,-2.50522 z M 307.79054,784.45122 c 0.31768,-3.94316 0.18306,-4.25674 -1.40223,-3.26625 -2.17141,1.35667 -2.46034,7.62818 -0.35142,7.62818 0.93299,0 1.51982,-1.45965 1.75365,-4.36193 z m -269.711208,1.35567 c 0,-1.1023 -0.45094,-2.00418 -1.002088,-2.00418 -0.551148,0 -1.002087,0.90188 -1.002087,2.00418 0,1.10229 0.450939,2.00417 1.002087,2.00417 0.551148,0 1.002088,-0.90188 1.002088,-2.00417 z M 309.18642,765.07614 c -0.42815,-1.7059 -0.99446,-2.26706 -1.63821,-1.6233 -0.64375,0.64374 -0.58328,1.99288 0.17492,3.90277 1.34374,3.38486 2.45175,1.65884 1.46329,-2.27947 z m -136.0023,0.35543 c 0.19178,-0.98882 -0.31943,-1.67061 -1.25261,-1.67061 -0.92957,0 -1.5766,0.85678 -1.5766,2.08768 0,2.44213 2.34164,2.09694 2.82921,-0.41707 z m -0.41443,-20.60922 c 0.0497,-3.46818 -0.24777,-6.51463 -0.66113,-6.76987 -0.41336,-0.25524 -0.76459,-0.0993 -0.78051,0.34662 -0.0159,0.44589 -0.19596,3.65152 -0.40012,7.12362 -0.24388,4.14786 -0.007,6.1916 0.69007,5.95917 0.58369,-0.19457 1.10195,-3.19136 1.15169,-6.65954 z m 136.8754,2.96435 c 0,-1.06977 -0.45094,-2.22374 -1.00208,-2.56437 -0.56835,-0.35125 -1.00209,0.49065 -1.00209,1.94504 0,1.4104 0.45094,2.56436 1.00209,2.56436 0.55114,0 1.00208,-0.87526 1.00208,-1.94503 z m -92.79706,-5.66106 c 0.83461,-2.17496 -0.39628,-4.0275 -1.5091,-2.27125 -1.12862,1.7812 -1.12716,3.86481 0.003,3.86481 0.49218,0 1.17006,-0.7171 1.50639,-1.59356 z m -44.48895,-7.92627 c 0,-1.37787 -0.45094,-2.50522 -1.00209,-2.50522 -1.1195,0 -1.37356,3.30284 -0.33402,4.34238 1.10464,1.10464 1.33611,0.78637 1.33611,-1.83716 z m 43.31072,-7.76618 c -0.95474,-1.97963 -1.08739,-1.70457 -1.08739,2.2547 0,3.95927 0.13265,4.23433 1.08739,2.25469 0.78181,-1.62105 0.78181,-2.88833 0,-4.50939 z M 129.96375,694.8865 c -0.25407,-0.975 -0.47866,-0.41991 -0.49908,1.23354 -0.0204,1.65344 0.18745,2.45116 0.46195,1.77272 0.27449,-0.67844 0.2912,-2.03126 0.0372,-3.00626 z"
         id="path3079"
         inkscape:connector-curvature="0" />
      <path
         style="fill:#6f1313"
         d="m 0,804.41304 0,-248.08424 240.002,0 240.002,0 -0.25252,247.26514 -0.25252,247.26516 -4.5094,0.025 c -2.48017,0.014 -4.96033,0.2984 -5.51148,0.6321 -0.55115,0.3336 -5.06054,0.4858 -10.02088,0.3381 -11.43317,-0.3404 -24.95292,-0.4933 -49.54477,-0.5604 -10.71518,-0.029 -19.83738,-0.2726 -20.27157,-0.541 -0.43418,-0.2683 -1.66425,-0.02 -2.73346,0.5526 -1.42445,0.7623 -2.05603,0.7077 -2.36298,-0.2042 -0.33,-0.9805 -0.75181,-0.9699 -1.98734,0.05 -1.63321,1.3477 -9.27965,1.2569 -11.53412,-0.137 -0.68893,-0.426 -1.76946,-0.4551 -2.40118,-0.065 -1.57022,0.9705 -39.873,1.1044 -40.19413,0.1406 -0.14128,-0.424 -3.00629,-0.395 -6.36668,0.065 -3.3604,0.4596 -6.965,0.5 -8.01024,0.09 -1.04523,-0.4101 -3.02777,-0.7241 -4.40564,-0.6976 -2.23344,0.043 -2.17908,0.123 0.50105,0.7386 1.65344,0.3797 -3.53236,0.6053 -11.52401,0.5014 -7.99165,-0.1039 -14.75574,-0.2959 -15.03132,-0.4266 -0.27557,-0.1307 -0.93842,-0.1512 -1.473,-0.045 -3.17274,0.6272 -114.6894,0.2128 -115.72952,-0.43 -0.73065,-0.4516 -1.61291,-0.2254 -2.08212,0.5338 -0.60171,0.9736 -1.40516,1.0537 -3.07837,0.3071 -1.37131,-0.6119 -4.25565,-0.6954 -7.31441,-0.2119 -4.47141,0.7068 -15.51756,0.4388 -22.6399,-0.5494 -1.37787,-0.1912 -6.11274,-0.036 -10.52192,0.3452 -4.8054,0.4152 -8.27468,0.3091 -8.66072,-0.2651 -0.3643,-0.5418 -1.88758,-0.6299 -3.5073,-0.2028 -3.34003,0.8807 -41.700418,0.7436 -45.308335,-0.162 -1.346179,-0.3378 -2.197131,-0.2103 -1.891764,0.2836 0.455972,0.7375 -47.554505,0.9534 -54.8698811,0.2468 -1.1022964,-0.1065 -3.0187891,0.1395 -4.2588726,0.5467 L 0,1052.4973 0,804.41304 z m 120.61655,243.43166 c 2.65775,-1.1105 5.43495,-1.3424 10.47134,-0.8743 4.62076,0.4294 7.60104,0.2374 9.14592,-0.5894 l 2.29164,-1.2265 -0.62697,-106.87629 c -0.34482,-58.78198 -0.84388,-113.41495 -1.10901,-121.4066 -0.26512,-7.99165 -0.70555,-28.28393 -0.97872,-45.09395 -0.70649,-43.47547 -1.77986,-99.22927 -2.10285,-109.22756 -0.74655,-23.11003 -3.16474,-55.82057 -4.2782,-57.87057 -1.61067,-2.96542 -4.24935,-2.8548 -7.21546,0.30249 l -2.40235,2.55718 -0.24919,121.95221 c -0.13704,67.07372 -0.50063,122.98527 -0.80797,124.24791 -1.38807,5.70263 -2.2657,-0.30517 -2.92919,-20.05179 -0.39409,-11.72893 -0.88907,-26.51112 -1.09993,-32.84933 -1.01062,-30.37694 -1.63757,-48.74334 -2.49711,-73.1524 -0.51431,-14.60543 -1.39589,-41.88727 -1.95907,-60.62631 -1.23792,-41.19029 -2.78124,-71.70538 -4.1052,-81.1691 -1.74665,-12.48523 -2.56837,-13.04675 -6.98804,-4.77524 -2.54972,4.77186 -2.79321,6.26699 -3.337551,20.49368 -1.219293,31.86697 -1.708694,89.76972 -2.227505,263.54455 l -0.534575,179.05422 2.046587,1.0953 c 1.125624,0.6024 3.144974,0.8196 4.487444,0.4827 1.3609,-0.3416 3.91937,0.061 5.78256,0.9097 1.83794,0.8373 4.24359,1.7262 5.34589,1.9753 1.1023,0.2491 2.06184,0.5052 2.13232,0.5691 0.0705,0.064 1.75582,-0.5638 3.74519,-1.395 z m 1.06189,-144.12718 c -0.35309,-0.92012 -0.30176,-2.91202 0.11404,-4.42644 l 0.75603,-2.7535 1.0125,3.29988 c 0.71782,2.33948 0.68464,3.62775 -0.11405,4.42644 -0.83403,0.83402 -1.29326,0.69214 -1.76852,-0.54638 z m -0.26761,-38.7457 c 0,-4.85145 0.12054,-5.18147 1.00649,-2.75574 0.67392,1.84518 0.67392,3.66629 0,5.51148 -0.88595,2.42572 -1.00649,2.0957 -1.00649,-2.75574 z m 90.44086,182.93548 c 3.80821,-0.7968 7.64103,-2.1657 8.51737,-3.042 1.44554,-1.4456 1.58392,-18.5793 1.49158,-184.68914 -0.10272,-184.79541 -0.52484,-227.36708 -2.42652,-244.7203 -1.18845,-10.84491 -2.45489,-13.04792 -6.45347,-11.22605 -2.6139,1.19097 -3.00594,2.59577 -2.60815,9.34565 0.11781,1.99923 -0.29337,13.22374 -0.91373,24.94337 -0.62036,11.71962 -1.29659,30.16487 -1.50274,40.98944 -0.3911,20.53718 -1.27034,31.86786 -2.53346,32.64851 -1.34915,0.83382 -1.96983,-8.59659 -3.00113,-45.59833 -1.30372,-46.77642 -2.58044,-72.65197 -4.0652,-82.39041 -1.22329,-8.02347 -3.09364,-12.10052 -4.72639,-10.3027 -1.23455,1.35935 -4.92042,16.42583 -6.12877,25.05219 -1.65167,11.79108 -5.58948,429.16387 -4.14999,439.86187 l 0.532,3.9538 9.01879,3.2324 c 10.68773,3.8307 10.17325,3.778 18.94981,1.9417 z m -7.09698,-323.72881 c 0.004,-3.85804 0.18557,-5.31353 0.4025,-3.23444 0.21692,2.07911 0.21329,5.23568 -0.008,7.01462 -0.22137,1.77894 -0.39886,0.0779 -0.39441,-3.78018 z m 78.33506,322.65631 c 1.65345,-0.7356 5.0945,-1.8621 7.6468,-2.5033 l 4.64054,-1.1659 0.68484,-6.0531 c 0.37666,-3.3293 0.43673,-11.068 0.13348,-17.1971 -0.30323,-6.1292 -0.79035,-62.10016 -1.08248,-124.37991 -0.5953,-126.9145 -1.24759,-194.15111 -2.49845,-257.53654 -0.69714,-35.32644 -1.15257,-44.17303 -2.52784,-49.1023 -0.92262,-3.30689 -2.19795,-8.00703 -2.83407,-10.44476 -0.6361,-2.43773 -1.6897,-4.6071 -2.34132,-4.82081 -4.72096,-1.54835 -6.43596,20.75944 -8.95464,116.47643 -0.36842,14.00102 -1.16647,26.14367 -1.90995,29.06054 l -1.27711,5.01044 -0.003,-7.70348 c -0.002,-4.23691 -0.3737,-8.29537 -0.82683,-9.01879 -0.45313,-0.72341 -0.88422,-9.88316 -0.95797,-20.35497 -0.0738,-10.47182 -0.41339,-25.35282 -0.75471,-33.0689 -0.34133,-7.71607 -0.88102,-19.89144 -1.19931,-27.05637 -0.63778,-14.35701 -2.33793,-22.14874 -5.40305,-24.76214 -2.15895,-1.84076 -3.68549,-0.80306 -2.6786,1.82084 0.3195,0.83263 0.0844,3.6294 -0.5224,6.21506 -2.7423,11.68473 -3.16878,44.02568 -3.28408,249.04094 -0.1025,182.25002 -0.0731,185.23932 1.84102,186.63882 1.06985,0.7823 3.32455,1.4292 5.01044,1.4376 1.68589,0.01 3.74167,0.4528 4.56839,0.9874 1.84721,1.1944 10.45247,0.2945 14.53027,-1.5197 z m -36.48373,-0.5323 c 3.10446,-1.5838 3.88552,-2.4782 3.42663,-3.924 -0.3269,-1.03 -0.11772,-2.1672 0.46483,-2.5273 0.58256,-0.36 0.74999,-1.1549 0.37207,-1.7664 -0.74686,-1.2085 -1.29212,-74.44178 -1.3262,-178.12342 -0.0277,-84.0875 -1.80646,-232.84128 -2.99588,-250.53053 -0.50426,-7.49945 -1.66592,-16.6175 -2.58148,-20.26233 -1.53763,-6.12137 -1.85758,-6.60641 -4.19344,-6.35737 -3.26244,0.34783 -3.79406,1.41529 -5.6947,11.43469 -1.94718,10.26471 -3.26818,63.51005 -4.04398,163.00155 -0.44057,56.49933 -0.70538,173.42863 -0.42552,187.89144 0.0374,1.92902 -0.0672,24.7914 -0.23237,50.80529 -0.28205,44.43178 -0.19063,47.41908 1.50869,49.29688 3.16246,3.4944 10.04191,3.959 15.72135,1.0615 z m 123.00852,0.4444 c 1.43602,-1.0059 3.48756,-1.4256 5.48394,-1.1221 1.75428,0.2667 3.97874,0.072 4.94325,-0.4324 1.65032,-0.8633 1.75299,-6.1855 1.74232,-90.31846 -0.0155,-122.35118 -1.83663,-347.67051 -2.90992,-360.03105 -0.67617,-7.78709 -1.49536,-11.32795 -3.56628,-15.41469 -1.66529,-3.28629 -3.0446,-4.94931 -3.62423,-4.36967 -2.89537,2.89536 -5.10679,29.85616 -6.4366,78.47278 -0.98775,36.11079 -3.42284,106.23568 -3.98433,114.73904 -0.29115,4.40919 -1.00259,26.27975 -1.58098,48.60126 -0.5784,22.3215 -1.41967,40.95643 -1.86951,41.41097 -0.44983,0.45453 -1.13049,-0.83997 -1.51257,-2.87665 -0.38209,-2.03669 -0.84458,-57.19773 -1.02777,-122.58008 -0.18318,-65.38236 -0.66283,-120.68076 -1.06589,-122.88536 -1.42569,-7.79804 -3.98711,-9.48752 -8.29679,-5.47244 -1.62326,1.51229 -2.2149,3.2699 -2.27691,6.76409 -0.0461,2.59648 -0.29619,8.32839 -0.5558,12.73758 -0.92048,15.63367 -1.13888,23.95021 -2.72372,103.71608 -0.23543,11.84969 -0.91531,37.32777 -1.51082,56.61796 -0.59552,19.29018 -1.36988,85.82049 -1.72081,147.84513 -0.58647,103.65211 -0.50553,112.88211 1.00088,114.13231 1.20012,0.996 3.57702,1.211 8.87746,0.8029 3.98118,-0.3065 8.14039,-0.1778 9.24269,0.2858 3.42206,1.4395 10.9269,1.0898 13.37239,-0.623 z M 357.02982,864.47077 c 0.008,-2.75574 0.20214,-3.76415 0.43247,-2.24092 0.23034,1.52324 0.22418,3.77794 -0.0136,5.01044 -0.23785,1.23251 -0.4263,-0.0138 -0.41879,-2.76952 z m -312.502154,181.90373 2.570455,-0.9773 -0.01,-95.47365 c -0.0087,-83.47553 -0.620886,-121.41302 -2.591689,-160.60936 -0.277118,-5.51148 -0.860854,-22.19624 -1.297189,-37.07724 -0.436337,-14.881 -1.058941,-27.73278 -1.383566,-28.5595 -0.324625,-0.82672 -0.859499,-9.84551 -1.188608,-20.04176 -0.745201,-23.08728 -1.624553,-30.91095 -3.827834,-34.05659 -0.949416,-1.35547 -1.72621,-3.49151 -1.72621,-4.74676 0,-2.35004 -2.523394,-3.22981 -3.225184,-1.12443 -0.530438,1.59131 0.191365,380.82969 0.727803,382.39129 0.517431,1.5062 8.246169,1.6842 11.951978,0.2753 z m 34.85673,-1.2178 c 2.291016,-0.8649 2.718121,-1.6094 2.683419,-4.6777 -0.0227,-2.007 -0.0083,-11.3151 0.03186,-20.6846 0.105179,-24.50304 -0.85172,-60.41966 -1.935596,-72.65139 -0.5128,-5.78706 -1.178204,-23.82464 -1.478674,-40.08351 -0.300471,-16.25887 -0.770746,-35.19833 -1.045055,-42.08768 -0.27431,-6.88936 -0.73529,-24.25053 -1.0244,-38.58038 -0.289112,-14.32985 -0.718938,-30.78915 -0.955171,-36.5762 -0.236233,-5.78706 -0.895049,-25.40293 -1.464037,-43.59082 -0.568988,-18.18789 -1.26446,-36.22547 -1.545494,-40.08351 -0.281035,-3.85803 -1.194289,-25.50313 -2.029454,-48.10021 -2.038032,-55.14306 -3.511598,-73.08188 -6.226229,-75.79651 -0.530281,-0.53028 -2.246087,0.97738 -4.185075,3.67737 -2.921993,4.0688 -3.386644,5.65386 -4.191245,14.29753 -1.277913,13.72836 -0.22749,441.64641 1.090166,444.10851 0.556001,1.0389 2.251167,2.0627 3.767037,2.2752 4.201271,0.5888 15.444645,-0.2897 18.507954,-1.4461 z m 342.120904,-0.4449 c 2.24445,-2.8112 3.1053,-443.90591 0.87979,-450.80471 -1.1629,-3.60485 -5.9992,-12.51901 -6.79403,-12.52259 -2.62861,-0.0119 -5.30581,21.57756 -6.21275,50.10088 -0.60573,19.05048 -1.49257,40.77895 -3.49692,85.6785 -1.42376,31.89386 -2.98643,85.11265 -5.07568,172.86013 -0.57084,23.97495 -1.62284,53.73695 -2.33779,66.13779 -0.71494,12.40083 -1.29825,24.12526 -1.29625,26.05428 0.002,1.92902 -0.15354,14.63971 -0.34564,28.24602 -0.2733,19.3567 -0.0631,25.0834 0.96609,26.3235 1.09755,1.3225 1.04356,1.8853 -0.32606,3.3987 -0.90278,0.9976 -1.64143,2.1006 -1.64143,2.4512 0,1.5089 4.98397,3.2202 11.02297,3.7849 8.02989,0.7508 13.17265,0.1513 14.6577,-1.7086 z m 24.0548,1.8731 c 1.48114,-0.9614 2.6757,-356.2599 1.22054,-363.02167 -0.5301,-2.46328 -0.90784,-7.97347 -0.83941,-12.24486 0.11292,-7.04789 -0.0545,-7.76618 -1.8101,-7.76618 -1.59949,0 -2.04728,0.95937 -2.58558,5.53953 -0.35809,3.04674 -0.38348,6.60569 -0.0564,7.90877 0.32705,1.30309 -0.0687,3.65789 -0.87966,5.23292 -2.167,4.20914 -3.38315,23.50471 -4.2227,66.99728 -0.24469,12.67641 -1.08231,34.09603 -1.86136,47.59916 -0.77905,13.50313 -1.68529,36.72652 -2.01386,51.60752 -0.79703,36.09722 -0.84439,194.13583 -0.0588,196.18313 0.34088,0.8883 1.37053,1.8139 2.28811,2.0569 2.81165,0.7447 9.61918,0.6864 10.81925,-0.092 z m -427.53438,-2.2275 c 2.207225,-2.2072 2.171789,6.3283 0.538803,-129.78224 -1.243598,-103.65472 -1.628499,-131.83902 -1.998024,-146.30481 -0.211184,-8.26722 -0.691897,-30.13779 -1.068249,-48.60125 -0.376352,-18.46347 -0.820973,-35.3737 -0.988046,-37.57829 -0.167074,-2.20459 -0.595342,-18.21295 -0.951706,-35.57412 -0.356365,-17.36117 -0.832735,-34.00894 -1.058602,-36.99505 -0.407789,-5.39124 -1.740991,-8.16889 -3.2138834,-6.69594 -0.9622256,0.96226 -0.9440447,46.74587 0.077438,195.00624 1.2291624,178.40347 2.2264314,245.28286 3.6837094,247.03876 1.631701,1.9661 2.598894,1.8663 4.97856,-0.5133 z m 159.62477,-0.1623 c 1.98955,-1.0647 1.99725,-1.8421 1.36109,-137.49568 -0.35186,-75.03369 -0.79337,-142.96351 -0.98111,-150.95516 -0.18774,-7.99165 -0.66277,-37.97913 -1.05561,-66.63884 -0.39284,-28.65971 -1.1893,-55.26514 -1.76991,-59.12317 -0.58061,-3.85804 -1.23554,-10.31835 -1.4554,-14.35625 -0.42595,-7.82286 -1.59201,-11.19699 -3.86954,-11.19699 -2.82181,0 -3.50471,15.9738 -3.64147,85.17746 -0.0582,29.48643 -0.33137,54.62319 -0.6069,55.85946 -0.67275,3.01851 -2.34744,1.81823 -2.1795,-1.56208 0.20423,-4.11055 -1.04425,-35.16415 -1.61894,-40.26816 -0.27926,-2.48016 -1.18521,-25.02714 -2.01322,-50.10438 -1.86704,-56.54472 -3.68017,-78.16284 -6.55561,-78.16284 -0.49008,0 -1.60576,2.5929 -2.47929,5.762 -0.87353,3.1691 -2.21282,7.34029 -2.9762,9.26931 -0.76339,1.92902 -1.70891,4.63466 -2.10117,6.01253 -1.19593,4.20079 -0.21514,255.98107 1.1008,282.58873 0.25895,5.23591 0.76185,31.83226 1.11754,59.103 0.3557,27.27073 0.92558,62.20606 1.26639,77.63416 l 0.61967,28.0509 2.50522,1.3383 c 2.9242,1.5622 21.98287,0.8608 25.33316,-0.9323 z m -13.229,-291.03957 c 0.0481,-1.16738 0.28554,-1.40482 0.60543,-0.60543 0.28947,0.72338 0.25387,1.58768 -0.0791,1.92067 -0.33299,0.33299 -0.56983,-0.25888 -0.52632,-1.31524 z m 163.26118,291.18997 c 1.65529,-1.6553 2.00745,-3.3561 2.02298,-9.7703 0.0103,-4.2714 0.45321,-33.9207 0.98415,-65.8873 2.41243,-145.24796 2.97541,-196.42759 3.09863,-281.69355 0.1299,-89.88631 0.10055,-91.35714 -1.89952,-95.19832 -1.1173,-2.14581 -2.76929,-6.49437 -3.6711,-9.66347 -0.9018,-3.1691 -2.05015,-5.76201 -2.5519,-5.76201 -2.71112,0 -4.47265,18.96925 -6.00211,64.63466 -0.57226,17.0856 -1.4798,39.63257 -2.01678,50.10439 -1.08957,21.2482 -1.69954,37.04115 -2.51393,65.08915 -0.53924,18.57148 -1.36434,25.80601 -1.59583,13.99227 -0.0639,-3.26096 -0.20936,-10.66388 -0.32325,-16.45094 -0.1139,-5.78706 -0.25512,-34.87265 -0.31382,-64.63466 -0.12609,-63.92456 -0.0806,-61.55587 -1.26283,-65.67824 -0.51265,-1.78756 -0.71851,-3.5957 -0.45746,-4.0181 0.26106,-0.4224 0.53322,-3.30863 0.60481,-6.41385 0.10301,-4.46816 -0.26335,-5.93448 -1.7563,-7.02954 -1.62582,-1.19253 -2.13854,-1.15626 -3.7112,0.2626 -1.50724,1.35983 -1.81135,3.13382 -1.74774,10.19491 0.0424,4.70173 -0.13574,12.83253 -0.39578,18.06844 -0.26005,5.23591 -0.74855,14.93111 -1.0856,21.54489 -1.94353,38.13887 -3.21208,136.83123 -3.38229,263.141 -0.15258,113.22447 -0.0356,122.95657 1.49328,124.22547 1.95092,1.6191 8.29451,2.6263 17.71533,2.8128 5.54143,0.1097 7.12635,-0.2284 8.76826,-1.8703 z m 138.72078,0.1106 c 0.98188,-1.5887 1.46221,-31.7991 2.13677,-134.39034 0.36419,-55.39039 0.96318,-130.69729 1.3311,-167.34864 0.8616,-85.83426 0.80619,-140.92904 -0.14272,-141.87849 -0.41336,-0.4136 -1.06287,-0.44069 -1.44337,-0.0602 -1.03802,1.03802 -2.14224,21.05644 -2.77167,50.24766 -0.30898,14.32985 -0.77734,31.01461 -1.04078,37.07724 -0.26345,6.06264 -0.77299,23.87474 -1.13233,39.58247 -0.35933,15.70772 -0.76413,33.06889 -0.89954,38.58038 -1.09877,44.72043 -2.33241,147.83 -2.95292,246.80982 -0.16762,26.7376 -0.001,30.4694 1.39258,31.2848 2.0345,1.19 4.81666,1.238 5.52288,0.095 z M 82.865628,752.0055 c -0.254074,-0.975 -0.47866,-0.41991 -0.499082,1.23354 -0.02042,1.65344 0.187456,2.45116 0.46195,1.77272 0.274495,-0.67844 0.291204,-2.03126 0.03713,-3.00626 z m 315.499432,-4.3349 c 1.1164,-1.80638 -0.4101,-5.94108 -1.97211,-5.34167 -2.02968,0.77885 -2.79895,3.41728 -1.46499,5.02459 1.36725,1.64744 2.54759,1.75632 3.4371,0.31708 z M 83.173278,745.66424 c 0,-1.13483 -0.45094,-1.78462 -1.002088,-1.44399 -0.551148,0.34063 -1.002088,1.26912 -1.002088,2.06332 0,0.79419 0.45094,1.44398 1.002088,1.44398 0.551148,0 1.002088,-0.92849 1.002088,-2.06331 z m 0,-32.63141 c 0,-0.75924 -0.67641,-1.38043 -1.503132,-1.38043 -0.953997,0 -1.503131,0.96005 -1.503131,2.62791 0,2.22231 0.232003,2.43538 1.503131,1.38044 0.826722,-0.68612 1.503132,-1.86869 1.503132,-2.62792 z m 315.657622,0.62374 c 0,-1.65344 -0.46509,-3.00626 -1.03354,-3.00626 -1.38377,0 -2.32709,2.64156 -1.61034,4.50939 0.99125,2.58316 2.64388,1.6436 2.64388,-1.50313 z m 0.66366,-61.37787 c -0.27799,-0.68894 -0.50544,-0.12526 -0.50544,1.25261 0,1.37787 0.22745,1.94154 0.50544,1.25261 0.27799,-0.68894 0.27799,-1.81629 0,-2.50522 z"
         id="path3077"
         inkscape:connector-curvature="0" />
      <path
         style="fill:#530d0d"
         d="m 49.60334,1048.6149 c -1.072047,-148.20499 2.232794,-296.527 -5.34009,-444.61409 -38.3121225,8.7225 -4.839581,78.94901 -15.916472,111.10951 -0.148871,21.52359 0.428112,85.53489 -1.286304,80.43336 C 21.457506,732.89988 24.88016,669.88876 20.504085,607.18288 -7.7981189,595.85842 14.080999,674.14112 7.9066077,698.21671 8.327354,814.10834 8.8825326,930.00367 10.8633,1045.881 -0.76701282,1005.6916 10.16901,962.91778 5.7447986,921.5688 4.5822162,801.45423 -2.0195124,681.40265 0.00246307,561.25951 20.452489,550.40055 49.063496,558.84567 73.086306,556.3288 c 135.637894,0 271.275794,0 406.913694,0 0.0662,88.50556 0.55706,177.01961 -4.73786,265.31273 -0.78633,71.80421 -2.1753,143.60885 -2.32681,215.42657 20.80038,-13.3573 -8.9905,21.3999 -6.04474,-14.4309 6.43296,-57.10785 1.35304,-114.74744 3.63239,-172.29202 0.65052,-84.07923 1.08218,-168.16346 0.44389,-252.24418 -31.52071,29.96211 -5.46885,86.69123 -15.80789,127.84315 -0.36769,22.92265 -3.55007,105.85405 -4.41114,44.19733 -1.24762,-52.8738 1.09166,-105.74888 0.39907,-158.62535 -32.93987,-16.5349 -12.99034,64.60537 -20.03059,88.51506 -3.8306,113.15839 -0.16208,226.38569 -1.7196,339.57081 -14.48831,-45.51058 0.74665,-94.38762 -5.16526,-141.26923 0.15394,-104.86955 0.63,-209.75225 -1.53625,-314.60657 -29.02344,23.51912 -7.28555,78.43473 -17.15534,114.71031 -0.30294,24.08092 -4.88921,60.73021 -3.77708,14.81641 -1.9114,-33.30688 7.37719,-99.58409 -4.73391,-112.25153 -16.79575,44.11645 -0.69727,93.57061 -8.12414,139.81059 -0.89065,100.84125 -0.47407,201.6976 1.65407,302.52162 -22.47815,-43.41496 -0.37793,-95.41738 -8.63074,-142.26194 0.22181,-105.86424 0.19125,-211.74774 -2.72126,-317.5805 -31.42662,8.23214 -5.20864,105.12623 -20.2311,99.01086 -6.08767,-25.20974 12.49262,-83.63162 -13.17749,-86.37794 -18.11621,35.94371 -0.44997,78.11572 -8.29308,116.65125 -1.40641,111.89655 -2.03381,223.80308 -1.83951,335.70837 -12.15551,-38.7265 1.74468,-79.54933 -3.07113,-119.20655 1.82305,-114.32721 3.90937,-228.68212 1.89915,-343.02186 -11.8328,-21.41016 -16.89674,24.18559 -30.39303,14.14701 -14.57713,48.80051 0.14995,101.08695 -5.9422,151.30972 -0.25487,31.85876 -0.48932,124.54401 -1.45178,118.69385 -2.49307,-95.8421 -0.15114,-191.79627 -5.35725,-287.56701 -20.79559,-15.84067 -10.47358,49.115 -26.80307,11.31539 -22.284,30.9533 -4.02256,77.95966 -9.92985,115.70969 0.0915,111.32793 -0.54651,222.67199 1.97096,333.98056 -8.68122,-66.79015 -1.2236,-134.56588 -4.6775,-201.76365 -0.78045,-84.64031 -2.14468,-169.27998 -4.85247,-253.88243 -35.56447,14.22728 -6.52232,72.86977 -17.71367,104.89194 -2.49967,116.13101 -3.01738,232.29371 -3.02208,348.44824 -7.48299,-40.6359 1.12123,-82.88874 -2.01279,-124.3135 0.0374,-105.35461 0.53039,-210.7103 -0.0925,-316.06414 -7.57149,-36.72575 -30.35721,39.8295 -20.86424,-4.42703 -23.99151,-47.78219 -16.66304,62.91848 -19.06709,82.75447 -1.00493,62.43777 0.0537,124.90623 -2.17967,187.32347 -1.94984,-90.43852 0.31594,-180.95239 -3.82479,-271.34475 -9.37684,-17.80032 -24.07652,25.84265 -19.50687,-6.05961 -29.61606,-5.93049 -8.69083,71.23953 -15.022,97.70009 0.72367,118.71564 1.99334,237.4304 4.42414,356.1243 -9.49038,-48.31557 -2.36675,-98.71495 -5.07393,-148.04855 -0.6602,-99.41047 -1.77965,-198.81929 -3.73937,-298.21317 -42.91923,-5.96552 -5.49614,82.52365 -22.0833,84.86314 -7.09856,-29.87978 7.28971,-86.98311 -14.6763,-99.06329 -8.114034,40.89811 -1.74682,85.1434 -4.843801,127.39635 -0.922285,112.64324 -0.819683,225.2923 -0.284949,337.93722 -19.983909,-43.7937 0.339776,-94.04477 -7.045783,-140.47906 0.405895,-100.29841 -0.296758,-200.60013 -1.920937,-300.88581 -26.685038,-12.61562 -5.497264,58.43516 -12.505035,77.1052 -1.155484,23.83334 1.015182,76.47311 -2.099092,22.64227 -4.828238,-37.01588 2.639832,-103.00614 -11.963939,-121.91486 -17.863619,34.30729 0.13247,75.13181 -7.504584,112.17179 -0.611454,117.25703 0.08034,234.51765 1.504878,351.76657 -2.112133,0.035 -4.224265,0.07 -6.336398,0.1052 z M 478.68036,730.50417 c -2.88763,2.8911 6.59543,4.12675 0,0 z m -304.3171,317.93833 c 8.92134,-14.5483 19.33152,10.0204 0,0 z m 113.26986,-0.046 c 12.83544,-12.3701 18.34686,8.9692 0,0 z m -265.705859,-0.7938 c -9.350081,-33.5471 20.815375,-10.5347 0.816699,0.2531 l -0.816699,-0.2531 z m 428.755049,-0.3345 c 2.2848,-21.2657 -2.45652,-93.68335 3.08282,-79.37269 0.0231,26.175 7.88445,54.58619 -3.08282,79.37269 z M 23.904434,1004.5125 c -0.415725,-16.76981 2.115788,-65.05753 5.142391,-20.87109 0.361087,7.18533 -0.343952,15.05974 -5.142391,20.87109 z m 272.853786,-2.7557 c 0.1641,-17.3726 1.44583,12.1201 0,0 z m 0.27378,-38.07934 c 0.46787,-18.69469 0.18071,23.70406 0,0 z m -115.96849,-6.26305 c 2.52947,-24.43686 -0.12098,32.00142 0,0 z M 24.300626,935.45638 c -11.40812,-15.92535 17.44809,-12.19747 0,0 z M 450.99456,930.3668 c -10.78537,-16.48609 11.44552,1.68649 0,0 z M 296.95487,917.08038 c 0.71507,-13.41908 0.71507,13.41908 0,0 z M 450.231,903.79018 c -1.60077,-32.84886 7.63255,-7.91567 0,0 z m -422.673589,6.27558 c 0.554342,-5.69588 2.328859,2.85053 0,0 z m -1.83716,-5.6785 c -7.712839,-9.88715 8.386879,-12.18354 0,0 z M 26.05428,883.0094 c -0.09538,-16.18854 3.433569,7.96137 0,0 z m 424.53233,-12.16133 c -2.69939,-37.81985 6.23057,-30.43137 0,0 z M 25.553236,863.96973 c -2.411341,-9.03172 6.646064,4.77338 0,0 z M 450.70814,812.90702 c -5.10422,-12.79164 4.05574,2.37058 0,0 z M 26.05428,810.41718 c -0.403265,-13.79569 3.806592,5.9815 0,0 z m 453.29377,-37.63743 c 0.69862,-15.19159 0.69864,15.1915 0,0 z m -78.44516,-12.97704 c 0.80833,-12.1232 2.50889,8.36571 0,0 z M 76.237776,753.15553 c 2.404227,-2.55298 -1.419985,6.33077 0,0 z m 325.098344,-0.41754 c 0.55432,-5.69591 2.32888,2.85054 0,0 z"
         id="path3075"
         inkscape:connector-curvature="0" />
      <path
         style="fill:#230505"
         d="m 50.660595,598.43109 c -0.812015,-10.38003 -2.796032,-15.95994 -7.43951,-20.9231 -2.616848,-2.79701 -3.623185,-3.25654 -5.901914,-2.69502 -1.51093,0.37232 -3.938605,0.91913 -5.394832,1.21514 -2.817141,0.57264 -4.756759,3.90462 -7.199396,12.3675 l -1.301545,4.50939 -1.782583,-7.1991 c -2.158705,-8.71809 -3.740047,-11.30095 -5.847909,-9.55158 -1.172406,0.97301 -1.819912,0.81295 -3.292078,-0.81377 -1.007938,-1.11376 -2.316472,-1.86776 -2.9078495,-1.67554 -0.5913783,0.19221 -1.9771121,4.78957 -3.0794086,10.21635 -2.0333288,10.01041 -4.373773,13.70371 -4.6599018,7.3535 -0.1334107,-2.96086 -0.2301442,-2.82806 -0.8515804,1.1691 -0.41206404,2.65045 -0.763118,-3.85586 -0.85158042,-15.78288 L 0,556.3288 l 240,0 240,0 -0.18537,21.79541 c -0.10195,11.98747 -0.3502,19.45086 -0.55165,16.58531 -0.44549,-6.33685 -2.74335,-6.39214 -3.80782,-0.0916 -0.97717,5.78391 -2.43521,2.86102 -2.45443,-4.92035 -0.0305,-12.349 -3.01877,-19.71381 -5.91567,-14.5796 -0.79252,1.40459 -1.24125,1.50432 -2.25438,0.50105 -3.22096,-3.18963 -5.1867,-0.44911 -7.00811,9.77035 -1.91435,10.74081 -3.14844,11.56129 -4.30264,2.86057 -0.98295,-7.40988 -3.04793,-11.87936 -5.48845,-11.87936 -1.10449,0 -3.14256,-0.51686 -4.52905,-1.14859 -2.24185,-1.02145 -2.99581,-0.7574 -6.81125,2.38547 -4.29158,3.53508 -6.43166,8.31132 -8.38896,18.72255 -0.99713,5.30382 -2.02632,1.99139 -3.32932,-10.71537 -1.3104,-12.77888 -2.15232,-15.6842 -4.98431,-17.19983 -5.74328,-3.07371 -7.60519,-0.23685 -10.64764,16.223 -0.99328,5.37369 -2.09721,9.77035 -2.45318,9.77035 -0.35597,0 -1.39486,-3.87825 -2.30866,-8.61834 -0.91379,-4.74009 -2.18524,-9.24948 -2.82543,-10.02088 -2.20938,-2.66212 -5.31343,-1.4584 -11.16095,4.3281 -5.17541,5.12141 -5.79106,6.16638 -5.79106,9.82935 0,2.25429 -0.66207,4.97405 -1.47126,6.0439 -1.36521,1.80496 -1.47497,1.62012 -1.52262,-2.56421 -0.10067,-8.84026 -2.78692,-24.13729 -4.58818,-26.12765 -1.98434,-2.19268 -5.71603,-2.54452 -7.19317,-0.6782 -0.54527,0.68893 -2.01333,4.40919 -3.26235,8.26722 -3.65648,11.29431 -4.65802,11.63765 -8.51397,2.91869 -2.98111,-6.74081 -5.81719,-8.34792 -11.14998,-6.31824 -2.87039,1.09248 -4.41212,2.70848 -6.94084,7.27527 -3.48316,6.29043 -3.65038,6.22836 -5.04147,-1.87154 -1.25103,-7.28442 -4.50565,-11.52401 -8.84668,-11.52401 -1.9472,0 -4.15457,4.2509 -5.07074,9.7651 -0.38871,2.3395 -1.10643,4.50065 -1.59494,4.80256 -0.84402,0.52164 -1.38744,0.0121 -5.64774,-5.29533 -0.99408,-1.23842 -3.2549,-2.53126 -5.02406,-2.87297 -4.35575,-0.84132 -8.29723,3.14487 -11.32769,11.45617 -1.25189,3.43341 -2.40043,6.11829 -2.55232,5.96639 -0.1519,-0.1519 -0.79053,-4.0328 -1.41919,-8.62424 -1.38174,-10.09162 -2.20254,-12.03312 -6.31681,-14.94146 -3.02232,-2.13645 -3.26612,-2.16152 -4.87172,-0.50104 -0.92961,0.96137 -2.64968,5.01726 -3.82239,9.01309 -1.17273,3.99582 -2.58009,7.26513 -3.12748,7.26513 -0.5474,0 -1.83719,-1.96412 -2.8662,-4.36472 -1.98076,-4.62091 -3.46577,-5.65615 -8.11352,-5.65615 -4.07533,0 -7.58025,1.82868 -8.85118,4.61809 -1.55389,3.41041 -4.14116,15.00067 -4.14116,18.55125 0,1.65177 -0.37554,2.77112 -0.83454,2.48744 -0.459,-0.28367 -1.41856,-5.75551 -2.13234,-12.15962 -1.07621,-9.65576 -1.70448,-12.12716 -3.67962,-14.47448 -3.06907,-3.64738 -8.7204,-3.97774 -10.90889,-0.63769 -1.65453,2.52514 -4.49012,16.35917 -4.49037,21.90728 -9e-5,2.06681 -0.45111,3.75783 -1.00226,3.75783 -0.55115,0 -1.00209,-1.5851 -1.00209,-3.52244 0,-6.78821 -3.12317,-15.41226 -6.7276,-18.57699 -1.84966,-1.62402 -4.13646,-2.95108 -5.0818,-2.94902 -3.14014,0.007 -8.15966,3.895 -9.65807,7.4812 -0.81305,1.94591 -1.87283,3.53802 -2.35507,3.53802 -0.48224,0 -1.94953,-3.42054 -3.26065,-7.6012 -2.93072,-9.34492 -5.00408,-11.22212 -9.07255,-8.21417 -3.57819,2.64547 -3.75985,3.12914 -5.9404,15.81537 -0.99469,5.78706 -1.85065,9.5679 -1.90212,8.40186 -0.0515,-1.16603 -1.70614,-5.34336 -3.67704,-9.28295 -5.73931,-11.4722 -11.61392,-12.96301 -16.54041,-4.19749 -2.33728,4.15862 -3.72097,5.06094 -4.33038,2.82389 -3.77083,-13.84197 -4.54688,-14.87663 -9.5912,-12.7872 -3.05163,1.26402 -4.31308,3.85519 -5.61533,11.53459 -1.13034,6.66553 -1.94924,7.16654 -3.8589,2.36085 -2.38104,-5.99194 -5.09927,-8.6166 -9.73491,-9.39978 -4.77158,-0.80616 -6.15064,0.17313 -9.47095,6.72546 -3.48181,6.87101 -5.85356,6.59324 -8.0191,-0.93914 -2.46415,-8.57104 -4.09125,-11.27349 -6.78759,-11.27349 -5.13512,0 -6.886394,5.34573 -8.253363,25.19316 -0.760012,11.03484 -1.631353,11.14792 -3.541464,0.45958 -0.885478,-4.95483 -2.139145,-8.13598 -4.352755,-11.04501 -2.761075,-3.62848 -3.637402,-4.12001 -7.829154,-4.3914 -4.363001,-0.28246 -4.803539,-0.0929 -5.823334,2.50522 -0.606792,1.54595 -1.575886,6.08012 -2.153543,10.07595 -0.577656,3.99582 -1.432268,7.26513 -1.899138,7.26513 -0.46687,0 -0.848854,-0.37207 -0.848854,-0.82683 0,-0.45476 -0.926115,-5.97004 -2.058033,-12.25618 -2.138639,-11.87699 -3.6825,-14.97545 -7.4618,-14.97545 -5.111703,0 -6.835967,5.60299 -8.091026,26.29177 -0.376575,6.20759 -1.014922,11.90765 -1.418548,12.6668 -0.403625,0.75915 -1.059826,-2.7865 -1.458223,-7.87924 z"
         id="path3073"
         inkscape:connector-curvature="0" />
    </g>
  </g>
</svg>
