<?xml version="1.0" encoding="UTF-8" standalone="no"?>
<!-- Generator: Adobe Illustrator 16.0.0, SVG Export Plug-In . SVG Version: 6.00 Build 0)  -->

<svg
   xmlns:dc="http://purl.org/dc/elements/1.1/"
   xmlns:cc="http://creativecommons.org/ns#"
   xmlns:rdf="http://www.w3.org/1999/02/22-rdf-syntax-ns#"
   xmlns:svg="http://www.w3.org/2000/svg"
   xmlns="http://www.w3.org/2000/svg"
   xmlns:sodipodi="http://sodipodi.sourceforge.net/DTD/sodipodi-0.dtd"
   xmlns:inkscape="http://www.inkscape.org/namespaces/inkscape"
   version="1.1"
   id="Layer_1"
   x="0px"
   y="0px"
   width="512px"
   height="512px"
   viewBox="0 0 512 512"
   enable-background="new 0 0 512 512"
   xml:space="preserve"
   inkscape:version="0.48.4 r9939"
   sodipodi:docname="light61.svg"><metadata
     id="metadata9"><rdf:RDF><cc:Work
         rdf:about=""><dc:format>image/svg+xml</dc:format><dc:type
           rdf:resource="http://purl.org/dc/dcmitype/StillImage" /></cc:Work></rdf:RDF></metadata><defs
     id="defs7" /><sodipodi:namedview
     pagecolor="#ffffff"
     bordercolor="#666666"
     borderopacity="1"
     objecttolerance="10"
     gridtolerance="10"
     guidetolerance="10"
     inkscape:pageopacity="0"
     inkscape:pageshadow="2"
     inkscape:window-width="1301"
     inkscape:window-height="744"
     id="namedview5"
     showgrid="false"
     inkscape:zoom="0.4609375"
     inkscape:cx="256"
     inkscape:cy="256"
     inkscape:window-x="65"
     inkscape:window-y="24"
     inkscape:window-maximized="1"
     inkscape:current-layer="Layer_1" /><path
     d="M256,32c77.313,0,140,62.688,140,140c0,76.125-45.875,85-54.5,168c0,7.75-6.25,14-14,14h-143c-7.75,0-14-6.25-14-14h-0.031  C161.875,257,116,248.125,116,172C116,94.688,178.688,32,256,32 M326,368c7.75,0,14,6.25,14,14s-6.25,14-14,14H186  c-7.75,0-14-6.25-14-14s6.25-14,14-14H326 M326,410c7.75,0,14,6.25,14,14s-6.25,14-14,14H186c-7.75,0-14-6.25-14-14s6.25-14,14-14  H326 M312,452c0,15.469-12.531,28-28,28h-56c-15.469,0-28-12.531-28-28H312 M256,0C161.156,0,84,77.156,84,172  c0,47.625,15.563,74.969,29.25,99.125c11.625,20.438,21.688,38.156,25.281,71.094c0.344,7.313,2.438,14.188,5.844,20.219  C141.563,368.375,140,375,140,382c0,7.563,1.813,14.688,5.063,21c-3.25,6.313-5.063,13.438-5.063,21  c0,19.719,12.469,36.563,29.938,43.094C176.625,492.906,200.125,512,228,512h56c27.875,0,51.375-19.094,58.063-44.906  C359.531,460.563,372,443.719,372,424c0-7.563-1.844-14.688-5.094-21c3.25-6.313,5.094-13.438,5.094-21  c0-7-1.563-13.625-4.375-19.531c3.406-6.063,5.469-12.969,5.813-20.281c3.625-32.906,13.656-50.594,25.281-71.063  C412.438,247,428,219.625,428,172C428,77.156,350.844,0,256,0L256,0z"
     id="path3"
     style="fill:#ffffff" /><path
     style="fill:#ffff00;fill-opacity:1"
     d="m 176.53788,349.35337 c -3.5604,-3.56039 -3.9161,-4.73975 -7.80621,-25.88218 -3.98698,-21.66893 -8.43728,-33.14979 -27.33103,-70.50848 -14.41134,-28.4956 -18.83314,-39.5383 -21.67995,-54.142 -9.13386,-46.85528 8.25238,-98.02934 44.2856,-130.348763 14.02991,-12.583895 45.4503,-28.701204 62.92083,-32.275673 16.29654,-3.33427 44.65023,-2.858953 61.18135,1.025634 25.15873,5.911957 44.55921,17.159779 65.13829,37.765245 27.16837,27.203197 38.58116,52.616717 40.59284,90.390537 1.82753,34.31618 -1.31725,44.75477 -31.28826,103.85621 -12.57205,24.79152 -16.67592,36.79698 -20.28932,59.35442 -4.14373,25.86809 1.93245,24.171 -86.54095,24.171 -65.965,0 -76.21827,-0.44103 -79.18319,-3.40595 z"
     id="path2986"
     inkscape:connector-curvature="0" /></svg>