<?xml version="1.0" encoding="UTF-8" standalone="no"?>
<!-- Created with Inkscape (http://www.inkscape.org/) -->

<svg
   xmlns:dc="http://purl.org/dc/elements/1.1/"
   xmlns:cc="http://creativecommons.org/ns#"
   xmlns:rdf="http://www.w3.org/1999/02/22-rdf-syntax-ns#"
   xmlns:svg="http://www.w3.org/2000/svg"
   xmlns="http://www.w3.org/2000/svg"
   xmlns:sodipodi="http://sodipodi.sourceforge.net/DTD/sodipodi-0.dtd"
   xmlns:inkscape="http://www.inkscape.org/namespaces/inkscape"
   width="510"
   height="180"
   id="svg2"
   version="1.1"
   inkscape:version="0.48.4 r9939"
   sodipodi:docname="rcCar.svg"
   inkscape:export-filename="/home/abhishandy/Documents/GitHub/frontend_CA/projects/main/img/events/rcCar.png"
   inkscape:export-xdpi="90"
   inkscape:export-ydpi="90">
  <defs
     id="defs4" />
  <sodipodi:namedview
     id="base"
     pagecolor="#ffffff"
     bordercolor="#666666"
     borderopacity="1.0"
     inkscape:pageopacity="0.0"
     inkscape:pageshadow="2"
     inkscape:zoom="2.3019608"
     inkscape:cx="255"
     inkscape:cy="112.09204"
     inkscape:document-units="px"
     inkscape:current-layer="layer1"
     showgrid="false"
     inkscape:window-width="1301"
     inkscape:window-height="744"
     inkscape:window-x="65"
     inkscape:window-y="24"
     inkscape:window-maximized="1" />
  <metadata
     id="metadata7">
    <rdf:RDF>
      <cc:Work
         rdf:about="">
        <dc:format>image/svg+xml</dc:format>
        <dc:type
           rdf:resource="http://purl.org/dc/dcmitype/StillImage" />
        <dc:title></dc:title>
      </cc:Work>
    </rdf:RDF>
  </metadata>
  <g
     inkscape:label="Layer 1"
     inkscape:groupmode="layer"
     id="layer1"
     transform="translate(0,-872.36218)">
    <path
       style="fill:#000000"
       d="m 422.87485,1049.132 c 6.5932,3.7886 27.69294,-8.1977 9.63267,-4.1183 -23.35546,2.5849 -50.12682,1.5531 -65.3656,-18.7122 -9.94784,-1.384 -0.93634,-17.3583 -10.27236,-5.4556 -4.8009,7.004 -5.75941,-8.6304 -13.12667,-5.6454 -4.08649,-11.287 -11.74744,-26.44663 -14.9264,-38.90831 -22.38694,-10.14855 -48.03237,-2.09971 -71.74756,-6.02769 -29.99478,0.14508 -59.90072,3.49662 -89.41903,8.68565 -3.48089,5.29209 1.47437,12.62772 -5.19216,14.29747 2.26248,9.37488 -12.5565,34.98868 -16.75908,17.48448 13.57868,-15.05087 -12.37224,0.358 -1.17504,8.6167 0.21294,10.1406 -16.95885,5.5917 -19.3073,16.5006 -19.59908,12.6524 -44.632203,10.9133 -66.941634,9.6749 -13.313362,1.3871 -21.049976,-11.0464 -25.224854,-17.9471 -12.25739,1.5984 -11.324986,-10.564 -12.670489,-13.7236 -6.04103,-4.253 -14.3639536,-17.21065 -3.20221,-19.05645 0.897088,-7.34167 -16.66651429,0.77477 -8.2006252,-12.34844 7.9777292,-6.64681 -12.1300602,-0.61547 0.3965974,-9.01553 7.8062408,-6.77386 -14.2601778,-2.40512 -6.6751947,7.63841 4.9661205,24.97881 16.1149705,54.28481 42.3314565,63.22031 22.744185,8.0512 48.514593,5.4119 71.116483,-1.0702 19.14534,-10.0435 43.66191,-20.0145 50.11285,-42.7285 1.23375,-26.10735 27.21536,-23.71568 46.12611,-25.41777 29.69684,-3.66064 59.63479,-2.8178 89.40367,-1.32684 17.77716,-3.95417 30.61597,7.56251 29.631,24.83873 7.90517,20.41618 27.68595,30.75498 45.53703,40.88888 13.9518,7.4853 30.33993,10.3218 45.91834,9.6558 z M 29.198396,1032.8486 c 4.173951,-3.379 0.374138,4.0272 0,0 z m 1.4135,-4.2628 c 5.256152,0.3494 -0.11702,6.6959 0,0 z m 338.058074,-0.1915 c 1.09248,-3.7526 2.03807,4.4168 0,0 z M 143.80335,1010.91 c 4.46661,-8.4969 -1.28394,6.1801 0,0 z m -131.116854,-7.0422 c 4.947676,-1.4099 -1.856244,5.0449 0,0 z m 136.609744,0.6866 c 2.4981,-4.1094 -1.02838,5.4991 0,0 z m 14.90538,-7.62495 c 2.3199,-4.69658 2.84998,2.39628 0,0 z m 283.17409,51.50155 c 19.16112,-6.8211 40.5588,-21.0139 43.25477,-39.4814 10.11156,-8.5116 20.28404,-34.52789 5.06488,-39.73246 -5.90986,1.68698 8.09205,10.70721 -0.98634,18.6105 -6.4506,-0.22551 -13.0804,13.71866 -1.10306,14.22916 -13.70488,2.8954 -11.79286,21.3054 -17.01834,24.6084 -6.46441,12.7817 -32.92491,12.6839 -40.43788,19.6022 l 11.22597,2.1636 z m 44.86951,-43.3876 c 2.7303,-4.8663 -1.40576,7.3455 0,0 z m -2.64267,-8.71291 c 1.48171,-11.08309 9.7657,0.5237 0,0 z m 9.02647,-18.67772 c 2.97996,3.01051 -4.63509,8.28637 0,0 z m -1.94269,-0.97135 c 2.97991,3.01052 -4.63502,8.28635 0,0 z m -119.0583,59.24078 c 7.90051,-7.8729 -4.42815,-0.4056 0,0 z m -11.8721,-11.4133 c -2.12211,-4.4036 -1.06732,3.7194 0,0 z m -10.27582,-3.4806 c -1.37968,-3.3126 0.21429,4.8122 0,0 z m 14.3231,-1.8191 c -2.06012,-3.9614 -0.41568,5.5472 0,0 z m -13.8472,-3.803 c 8.58625,-9.5445 -11.29283,-30.43608 -4.4721,-11.1103 3.77877,2.5228 1.47471,8.0044 4.4721,11.1103 z m -6.11962,-17.32463 c 4.09984,-3.32889 -0.64232,5.27143 0,0 z M 92.702106,1015.9378 c 0.582066,-5.403 -4.353663,1.1575 0,0 z m 45.532204,-1.2627 c -6.21328,-5.3206 1.29407,3.3688 0,0 z m -39.598554,-0.8508 c 4.761434,0.4725 14.677604,-13.6825 4.681364,-6.6065 4.54228,-5.6397 12.97543,-29.67982 5.06768,-11.73601 -4.61153,7.21811 -27.359505,20.37131 -9.230776,16.19481 -0.599203,1.9959 -7.238638,6.6813 -0.518268,2.1477 z m -13.04455,-2.2394 c 15.022914,2.0927 23.937564,-24.64814 24.405064,-27.87956 -4.0903,24.05116 -38.853569,37.34476 -55.436817,17.26476 -15.741277,-15.59182 -8.868549,-46.33232 12.486954,-53.02765 -26.552532,5.98183 -30.034593,45.70697 -7.610938,59.04325 7.534075,5.1597 17.307522,7.1328 26.155737,4.5992 z m 346.216254,-0.6262 c 27.06569,-4.0069 37.55826,-45.86468 13.68746,-60.6955 -11.53111,-1.98546 17.13532,12.70634 11.61832,22.19699 6.00423,26.89179 -30.80601,50.04531 -51.4854,30.66961 -8.74209,-5.77564 -21.22738,-27.08336 -13.16446,-6.45834 3.86746,6.92264 20.6535,16.83234 7.43029,4.47714 9.37313,7.7747 19.33913,13.061 31.91379,9.8101 z m -357.301654,-4.7119 c 19.699559,7.7392 35.928584,-28.12118 28.324494,-32.68823 1.36267,7.42495 -4.726207,17.73854 -12.951952,12.2879 16.654742,20.21083 -30.012573,21.04353 -31.219121,11.87413 3.362229,2.3371 11.771125,13.0543 15.846579,8.5262 z m 21.05645,-8.51492 c 0.377136,-11.11234 7.161464,5.97962 0,0 z m -1.54039,-9.8058 c 4.122427,-3.46625 1.931945,2.65928 0,0 z m 335.357224,16.22672 c 12.11514,5.1095 24.83391,-22.1841 7.38349,-5.60504 -7.66966,5.58854 -33.55816,3.03234 -10.93095,7.14374 z m 5.82808,-2.5515 c 2.81824,-3.43807 1.23636,4.4414 0,0 z m -23.72713,0.7939 c 12.39193,-7.50363 -24.58353,-16.91373 -3.2671,-6.40113 0.9475,2.69869 -2.90622,9.07663 3.2671,6.40113 z m -3.47056,-2.65632 c 4.45414,-7.69161 4.35181,7.06712 0,0 z m -256.59909,-1.81733 c -4.71183,-11.40615 -5.01495,11.78825 0,0 z m 7.9345,0.84598 c 1.2564,-5.31939 -4.76013,6.67037 0,0 z m -90.453464,-0.27901 c 0.790821,-10.1974 -7.332081,4.96258 0,0 z m 86.239034,-3.78696 c 10.04784,-6.6878 -8.83429,1.06998 0,0 z m -89.046494,-0.28253 c -1.913916,-6.92285 -4.151807,5.92387 0,0 z m 375.449794,-9.8e-4 c 9.55062,-5.02443 -3.50093,-21.15763 -0.97299,-6.27417 -7.88204,0.0108 -7.31368,8.79607 0.97299,6.27417 z m -93.21129,-3.4206 c 9.15182,-8.08449 -3.30272,-3.17209 2.67453,-11.33067 0.0755,-10.58766 -12.39004,6.94874 -8.60968,7.08631 8.20506,-0.73639 0.74285,12.76983 5.93515,4.24436 z m -286.722954,1.44481 c 8.975727,-10.93603 -10.464352,2.52358 0,0 z m 278.415744,0.0122 c 1.96244,-4.14511 -6.31094,4.7537 0,0 z m -254.926044,-0.0846 c 2.433647,-7.31706 -4.095743,3.31418 0,0 z m 67.708064,-2.58659 c 6.42231,-13.09917 -11.38292,9.62517 0,0 z m 258.89296,0.58149 c 6.81042,-8.61815 -15.89116,-3.51616 -1.93222,-3.92639 -10.7516,0.53866 -5.53405,7.0078 1.93222,3.92639 z M 56.827066,988.72314 c -6.492639,-4.93594 -1.536028,-32.94989 -4.998636,-13.26607 1.185956,3.13113 -3.139417,21.18327 4.998636,13.26607 z m -1.1084,-2.27888 c 2.892292,-0.46987 -3.61767,6.33004 0,0 z m -4.99292,-0.1412 c 4.146813,-5.9131 2.40963,6.1719 0,0 z m -39.57358,1.98129 c -3.3833509,-6.48129 0.28931,3.97968 0,0 z m 438.556924,-2.76684 c 13.03109,-11.24185 -23.10104,-34.55972 -10.55012,-11.45915 3.95968,9.28182 18.36297,-5.86397 10.55012,11.45915 z m -9.25766,-11.07818 c 1.56165,-7.12971 3.26172,7.75881 0,0 z m -291.79135,8.78735 c -0.84533,-11.60142 -1.65036,10.58153 0,0 z m -69.936914,3.01796 c -2.319911,-4.69662 -2.84999,2.39629 0,0 z M 400.48322,985.0123 c 3.64133,-6.0517 -4.34969,-2.77025 0,0 z M 94.264696,984.62637 c -2.650764,-2.50276 -0.787549,4.13347 0,0 z M 355.93262,983.5346 c -3.12498,-2.84982 -1.40109,4.01016 0,0 z m -201.44446,0.17773 c -2.26824,-4.42701 -2.07574,4.39622 0,0 z m -7.84746,-0.56661 c -1.37987,-3.31241 0.21449,4.81241 0,0 z m -84.998014,-0.27218 c 4.610906,-10.29197 -3.667571,-16.78313 -6.009193,-5.04221 -3.949353,3.26488 3.480201,6.22289 6.009193,5.04221 z m -5.96876,-2.6621 c 3.101994,-3.6451 1.885577,2.74657 0,0 z m 94.928854,-0.44999 c 3.12603,-7.47099 -9.4548,-5.98029 -1.32717,-1.69072 -1.00589,-0.66001 1.08873,4.0717 1.32717,1.69072 z m 249.41331,-2.04312 c 5.72152,-12.88606 -12.79348,3.40057 0,0 z m -3.66276,-2.26245 c 4.22078,-7.21735 5.34319,7.26116 0,0 z m -42.81591,1.86175 c -1.37987,-3.31238 0.21459,4.81243 0,0 z m -210.70541,-1.37607 c -4.19398,-9.48959 8.50854,-28.41131 -3.3811,-9.68035 -2.08977,3.4752 -0.84073,8.66876 3.3811,9.68035 z m -87.643754,-0.18213 c -2.394994,-5.36292 -2.711867,4.04934 0,0 z m 101.001124,-1.60768 c 3.45568,-8.98998 -5.15604,-10.47449 0,0 z m 237.53136,-1.1242 c -0.65882,-7.45944 -2.15686,7.29921 0,0 z m -32.91207,-4.74995 c -6.50749,-16.83456 23.94838,-35.81742 20.5216,-43.33786 -11.89129,4.41221 -16.91994,32.41911 -25.72181,22.29567 -9.53083,1.02235 -15.70987,29.7709 -2.62376,18.40634 3.7992,4.34986 5.19004,13.55848 7.82397,2.63585 z m -4.28053,3.35026 c -1.65821,-10.1656 6.48781,-12.01886 0,0 z m -3.38373,-15.09143 c -3.74004,-16.5221 9.51805,11.05801 0.0222,0.82668 z m -199.70428,16.89585 c -1.37987,-3.31241 0.21449,4.81241 0,0 z m -44.1909,-1.81658 c 5.15022,-12.47696 -30.236381,-30.16289 -9.16615,-14.33122 3.6903,4.33585 6.55375,9.29427 9.16615,14.33122 z m 292.3488,-1.17797 c -2.50526,-12.31525 -0.63149,6.48092 0,0 z m -304.853684,1.70143 c 6.187734,-14.70315 -22.751227,-11.39037 -7.196758,0.26141 2.292364,0.98989 4.964774,0.75539 7.196758,-0.26141 z m -6.62635,-1.69145 c 7.393779,-3.0017 2.926171,2.65633 0,0 z m 3.3723,-7.26444 c 3.079323,-3.46336 -2.267358,11.78896 0,0 z m 407.211884,7.58784 c 2.92079,-24.66802 -16.09699,5.68394 0,0 z m -50.43507,-2.36029 c 0.81153,-21.24067 -39.6526,-16.66503 -36.79247,-15.0134 5.56699,2.3222 22.38446,-4.92905 26.74015,2.74535 4.18336,0.50209 8.62371,15.53979 10.05232,12.26805 z m -282.68449,1.32403 c 13.57673,0.81246 38.2467,3.54712 35.2737,-8.61617 17.9738,6.26212 -9.92294,-12.41711 -11.249,-18.32997 -8.58009,-17.50969 -27.75702,-25.0009 -44.974,-26.90628 36.08309,2.25454 71.99921,8.35893 107.70014,14.22441 21.07635,0.57909 42.94665,11.71084 63.51007,2.64034 14.33055,-3.26212 13.43966,-15.69846 8.36156,-12.81364 18.34691,-5.9877 1.55635,-10.69187 -6.30749,-15.59517 -2.96222,-9.66757 -22.12772,-11.09894 -10.08549,-0.46341 18.71086,13.02384 -1.3253,25.02342 -15.82436,16.22772 -16.88943,-3.24748 14.88226,-16.97285 -4.02463,-20.86122 -13.03944,2.84299 -38.39601,-6.82265 -42.95959,8.84478 2.22809,9.37517 26.50965,12.68676 7.08519,8.70295 -27.57544,-7.71726 -56.40286,-9.9182 -84.82309,-6.43767 -7.14082,0.1204 -27.56341,-0.40178 -9.19884,0.41662 6.4128,0.79332 32.69985,-0.7123 27.14475,2.61997 -21.09916,-1.1485 -50.59012,2.67292 -65.80082,8.6578 5.10425,7.1772 25.96353,2.89324 19.499,15.92487 7.40639,-16.12244 27.28226,-9.87255 36.21746,-5.00392 -5.53781,-4.42878 -26.60139,-15.82924 -7.39612,-7.92357 12.18587,7.03389 25.7523,17.51846 25.84942,32.97531 -1.68977,-9.20715 -16.76109,-24.26924 -5.56627,-6.60558 -2.32028,12.85377 -35.54456,-1.88314 -24.80921,14.57951 -0.76285,3.52863 -4.16287,8.92589 2.37762,3.74232 z m 14.0186,-2.44543 c -16.7137,3.02272 -6.08682,-17.62561 5.523,-9.2745 15.13934,3.27328 11.79324,14.93466 -1.68916,9.30328 -1.27794,-0.01 -2.55593,-0.0192 -3.83384,-0.0288 z m 22.30168,-2.76115 c -1.62178,-4.27526 6.99682,9.10076 0,0 z m 79.28861,-32.29981 c -37.63652,-5.20578 -75.14086,-11.35631 -112.8493,-16.04197 15.05389,-3.71988 31.28757,0.80009 41.54539,-4.14879 18.41114,2.61121 36.23763,8.93975 55.00963,9.95719 15.10354,3.66265 35.73495,-0.32328 46.97959,10.01607 -6.16149,7.80477 -21.84637,0.62827 -30.68531,0.2175 z m 5.58524,-5.49748 c -4.12242,-3.46623 -1.93194,2.65925 0,0 z m -5.3424,-0.99762 c -6.25701,-3.65235 -3.07388,2.55776 0,0 z m -15.11657,-1.93666 c -5.89094,-3.53368 0.1489,2.84975 0,0 z m -4.09063,-0.60691 c -5.9257,-2.71345 -36.46712,-5.02018 -16.36119,-1.35127 5.41171,0.82717 10.87792,1.4363 16.36119,1.35127 z m -38.0389,-4.42612 c -10.10695,-4.86782 -19.62641,0.97816 -3.46129,0.70891 l 1.78123,-0.10657 z m 90.5147,10.59997 c 7.74301,-11.37398 14.93771,-1.39256 0,0 z m -65.3415,0.28753 c 7.3957,-3.00148 2.92563,2.65627 0,0 z m -108.34382,-4.46242 c 7.88948,-8.2567 9.47295,8.7446 0,0 z m -11.39313,1.15427 c -15.44713,-9.1771 24.32552,-4.168 0,0 z m 171.96528,-0.83278 c 6.43192,-4.32671 9.07561,4.18903 0,5e-5 z m 4.55319,-0.7422 c -5.89094,-3.53367 0.14891,2.84975 0,0 z m -13.07095,-0.94494 c 7.40101,-3.00133 2.92452,2.65561 0,0 z m 5.84656,-0.97751 c 4.12244,-3.46624 1.93196,2.65924 0,0 z m -11.65615,0 c 4.12241,-3.46624 1.93195,2.65924 0,0 z m 5.80959,-0.96518 c 7.40223,-3.00128 2.92425,2.65542 0,0 z m -12.6275,0 c 7.40223,-3.00128 2.92425,2.65542 0,0 z m 6.81791,-0.97751 c 4.12241,-3.46624 1.93195,2.65924 0,0 z m -13.61733,0.006 c 7.39503,-3.00164 2.92593,2.65615 0,0 z m 5.52322,-1.17529 c 4.90463,-2.86687 7.24673,4.86244 0,0 z m -12.32264,0.20394 c 7.39338,-3.00171 2.92624,2.65636 0,0 z m -117.00849,0.0503 c 3.10199,-3.64473 1.88536,2.74652 0,0 z m -6.35247,-1.02163 c 7.39444,-3.00165 2.92606,2.65621 0,0 z m 120.7883,-2.8289 c -17.12741,7.72962 -21.64448,-24.64623 -1.82875,-13.90532 9.67099,-5.81838 42.53421,0.62059 20.92266,11.89558 -5.53088,3.60553 -12.99302,5.15447 -19.09391,2.00974 z m -20.21526,0.93679 c 3.10203,-3.64505 1.8855,2.74663 0,0 z m 72.4247,-5.33087 c -9.7599,-2.26116 -9.80765,-19.7532 -1.25266,-6.53131 5.43533,3.16347 10.49525,15.27527 1.25266,6.53131 z m -79.22412,4.35953 c 3.10203,-3.64531 1.88566,2.74665 0,0 z m -5.82808,-0.97135 c 3.10201,-3.64495 1.88545,2.7466 0,0 z m 1.43679,-1.34515 c 6.94185,-2.23948 9.6561,3.24798 0,0 z m -7.77077,0.31736 c 4.12241,-3.46624 1.93195,2.65924 0,0 z m 98.34879,-1.72773 c 1.46806,-4.47511 2.69255,2.52842 0,0 z m -171.19488,57.49492 c -4.31587,-4.0814 -6.84885,1.84771 0,0 z m 240.08376,-1.29527 c -1.37987,-3.31238 0.21459,4.81241 0,0 z m -104.60721,-1.0425 c 16.88035,-2.6382 54.20136,3.91509 48.23861,-23.93891 -11.24885,-10.71593 -35.6776,13.14616 -38.81479,4.12096 6.8e-4,-8.66842 -23.48811,19.57262 -9.42382,19.81795 z m -2.5864,-2.91821 c -3.99621,-11.23948 23.82615,-10.11644 0,0 z m 14.39231,-0.92954 c -8.8235,-20.11217 44.65812,-27.13247 26.7731,-3.7377 -7.38281,6.41148 -17.90467,4.40451 -26.7731,3.7377 z m -15.91277,-2.68065 c 2.54605,-7.47 4.25784,-0.39187 0,0 z m 2.91404,-3.81376 c 7.48827,-8.21762 6.12142,-4.75412 0,0 z m 46.62461,-3.59026 c 1.90407,-3.38741 1.33312,4.18599 0,0 z m 80.62172,12.69073 c -0.0933,-11.07527 -8.6513,-1.61147 0,0 z m -73.56757,1.2076 c 9.28026,-7.85755 -11.41719,-9.30783 -2.32082,-1.17456 -16.23271,1.97353 -8.10093,1.90864 2.32082,1.17456 z m -2.19283,-6.81948 c 3.52344,-1.78514 -6.01809,10.22439 0,0 z m -239.82143,6.51999 c -1.02247,-9.42569 -10.112605,-10.12024 -0.926632,-1.04915 l 0.698957,0.79137 z m -92.4692308,4.62107 c 6.5613448,-3.49168 10.4268318,-9.32803 8.6219168,-17.01472 2.582853,-4.1833 19.186183,-19.39662 5.009272,-13.92752 -5.578558,-17.86056 23.213596,-3.72098 26.496937,-19.93287 10.064255,-2.65395 1.535003,-8.36681 13.716377,-11.35837 -17.018014,-5.10224 26.085032,-5.00502 10.622348,3.52745 12.860351,-0.12184 25.36112,-1.18343 33.05782,10.06344 8.37692,1.52837 6.8009,-15.93755 2.03525,-4.0741 -16.847922,-6.20606 6.00145,-14.73953 11.70232,-3.74557 12.37933,8.40193 -5.67797,-5.70685 7.53543,-4.97416 19.03908,-8.90528 39.2685,-10.07404 59.46362,-16.18048 25.78107,-7.24604 52.43253,-11.50415 79.27481,-9.44493 17.19704,2.50397 36.45405,-1.58452 51.94901,7.42302 10.8373,6.62101 16.77869,19.95303 24.42376,16.02129 4.70593,0.85234 24.83521,5.95302 12.34382,6.40287 17.80402,-1.76175 36.22345,7.89139 53.03752,-0.52404 9.80598,-5.72566 -12.42433,-1.32832 1.76725,-7.5979 10.70172,-2.74208 35.09602,-5.62521 29.51666,7.72532 2.80002,-4.35643 11.85232,-12.19018 16.00116,-1.68593 8.54173,12.75133 23.60153,20.62416 28.12204,34.73203 1.99321,8.6247 19.80321,25.34631 16.61491,9.38183 -14.45284,-2.74988 -17.72095,-13.83786 -8.65578,-20.33245 -15.45953,-11.80845 -23.73758,-29.0748 -44.64082,-33.23416 -17.78553,-4.37293 -36.34969,-3.04242 -53.15922,4.19879 -14.83028,5.91674 -31.87066,7.63081 -46.31071,-0.30572 -23.86246,-9.81019 -43.99334,-31.41557 -71.72462,-29.28167 -35.30377,-1.17949 -69.73778,8.3526 -103.40103,17.49981 -24.49747,2.59789 -48.60299,20.22968 -73.479093,9.45535 -22.430047,-5.22992 -51.869928,-0.56159 -67.000218,17.42534 20.506967,6.52103 -22.4169061,2.65325 -15.09205,19.91752 2.286334,3.8901 -24.3115405,26.12623 -7.8486898,29.84053 z m -1.8569829,-9.42047 c 0.9739853,-6.13856 2.9260555,3.81633 0,0 z m 3.12022,-9.20199 c 4.9862247,-7.43239 0.7887769,11.64664 0,0 z m 8.5359297,-4.45419 c 4.619415,-10.3397 0.824669,6.90759 0,0 z m -7.7707697,0.0305 c 2.6573757,-2.78678 3.2035337,4.41075 0,0 z M 477.86899,930.82183 c 7.77929,-1.11947 2.66547,8.44608 0,0 z m 5.06151,1.07697 c -8.29545,-6.67078 6.83159,-0.29783 0,0 z m -16.93726,-8.36995 c -4.19812,-8.35881 8.41836,9.19272 0,0 z m 3.8375,-0.60601 c -9.55396,-7.3044 6.18386,-4.83206 0,0 z M 29.700306,922.56628 c 2.097726,-9.13368 7.050176,3.99825 0,0 z m 365.098874,-6.29974 c 2.56769,-6.95879 -0.40668,8.79529 0,0 z m -348.560454,0.98802 c 8.584872,-4.95392 -3.199514,3.83393 0,0 z m -4.67045,-2.65259 c 4.067437,-0.18642 -3.757147,4.76988 0,0 z m 346.184594,-0.23741 c 9.69212,-10.98709 14.06611,3.00132 0,0 z M 79.957576,913.18858 c 3.10204,-3.64539 1.885689,2.74668 0,0 z m -33.54811,-1.10988 c 3.868545,-4.00088 1.718399,5.57589 0,0 z m 344.115794,-2.67432 c 7.09504,-8.3318 1.57988,5.3134 0,0 z m -270.51989,-0.0351 c 6.88422,-4.83255 4.2582,1.93088 -0.49834,1.36826 z m -41.106934,-0.69342 c 5.249372,-11.19839 19.425207,5.4729 3.630106,1.08724 z m 18.2803,0.78584 c 1.337219,-3.62757 3.467624,3.16784 0,0 z m -2.91404,-1.02868 c 2.799543,-8.02001 1.93425,5.27711 0,0 z m -12.6275,-3.39971 c 2.268236,-4.42703 2.075775,4.39622 0,0 z M 295.81901,884.63507 c -2.16868,-3.18551 9.62718,5.06234 0,0 z m -14.32735,-0.71123 c 5.90645,-0.77767 9.53467,1.09851 0,0 z m -39.33952,-0.92969 c 6.25701,-3.65235 3.07388,2.55776 0,0 z m 38.71402,-0.72856 c 11.76397,-2.38171 14.52527,2.40585 0,0 z m -29.49959,-0.25697 c 4.35481,-1.39272 6.91399,2.02781 0,0 z m -16.96496,0.0969 c 3.102,-3.64483 1.88541,2.74654 0,0 z m 7.77077,-0.97134 c 3.10196,-3.64446 1.88525,2.74644 0,0 z m 9.69322,-1.05407 c 6.25703,-3.65236 3.07389,2.55777 0,0 z m 143.87361,83.88561 c 1.01497,-9.13493 30.12122,-23.47388 9.21881,-12.56308 -4.12894,3.1804 -8.43048,7.11734 -9.21881,12.56308 z m 6.39767,-0.56844 c 1.58787,-6.59192 -4.28301,5.80445 0,0 z m -340.532794,1.08315 c -2.687464,-7.97135 -7.527663,-2.19099 0,0 z m 50.144844,-1.82525 c -0.96358,-4.32453 -5.92065,-2.93102 0,0 z m 296.00185,-2.36632 c -2.35516,-7.65307 -5.54491,5.78746 0,0 z m -254.05184,0.41899 c -5.89093,-3.53372 0.14913,2.85006 0,0 z m -13.39607,-0.88113 c 12.89616,-10.35102 -20.02255,-28.77726 -6.9074,-9.81071 2.48647,3.12335 5.41437,6.02584 6.9074,9.81071 z m -1.80331,-5.37639 c -5.38342,-6.57573 5.14557,-2.31713 0,0 z m -6.85648,-10.8171 c -0.21941,-9.72468 5.15289,11.31701 0,0 z m 25.28648,13.24848 c 2.26342,-15.45772 -7.18768,-4.85789 0.30924,2.63995 z m -89.862554,2.54699 c -2.01621,-4.60234 -1.43341,4.20415 0,0 z m -3.1219,-0.99946 c 13.894101,-4.98636 4.685686,-9.59098 -1.454306,0.69332 l 1.454306,-0.69332 z m -2.70617,1.11411 c -0.247871,-7.09725 -3.531021,2.6516 0,0 z m 14.11081,-1.12855 c -0.394151,-10.86865 -8.504713,3.33996 0,0 z m 272.436284,-0.81414 c -0.24786,-7.09726 -3.53103,2.65157 0,0 z m -262.917194,0.21531 c -3.832443,-5.94398 5.999411,-5.20576 -5.21641,-6.0314 -2.475466,2.67714 2.199673,7.83751 5.21641,6.0314 z m -5.17433,-3.27818 c 6.470047,-1.7881 -0.197161,7.98307 0,0 z m -9.71346,2.94822 c -2.016187,-4.60238 -1.433433,4.20416 0,0 z M 151.41,956.22674 c 7.23175,-9.98619 -8.10489,-7.5009 0,0 z m 11.3346,-1.65477 c 13.02994,-5.21879 -7.71103,-8.68757 0,0 z m -29.44393,-2.60624 c -5.89097,-3.53366 0.14893,2.84975 0,0 z m 16.15849,-3.87326 c -1.88276,-7.27816 -2.74326,4.82277 0,0 z m -3.89003,-2.8941 c -0.16746,-4.52053 -7.04263,-2.26494 0,0 z m -68.078634,0.9297 c -6.818329,-4.53971 -2.407878,2.98026 0,0 z M 433.4466,945.16631 c -5.89099,-3.53366 0.14893,2.84974 0,0 z m -81.95604,-0.93507 c -6.66556,-4.1657 -6.0302,6.44234 0,0 z m -189.385,-0.34408 c -0.66523,-5.72456 -0.66523,5.72456 0,0 z m 194.93828,0.0486 c 6.76953,-5.76225 -7.25332,-0.25788 0,0 z m -203.52703,-0.0486 c 1.63396,-4.74874 -8.02057,6.78695 0,0 z m 208.83941,-0.91401 c -0.46922,-6.76769 -2.3951,3.43714 0,0 z m -17.16045,-1.67624 c 1.09145,-4.96477 -4.857,2.21893 0,0 z m -40.69182,-0.84035 c 5.59499,-6.57402 -10.44364,7.71946 0,0 z m 58.82362,-0.30889 c -1.84048,-12.47853 -27.57935,-3.77966 -8.50041,-0.93647 2.66146,0.97291 5.92337,-0.99967 8.50041,0.93647 z m -11.99135,-3.5875 c 2.65449,-3.74944 -1.11686,4.97078 0,0 z m -205.1045,3.44161 c -3.54543,-5.02316 -2.94127,3.14413 0,0 z M 25.324726,937.40283 c 7.192991,-11.98046 -12.514896,4.25957 -0.449883,0.19221 z m -4.22551,-0.1128 c 1.26909,-7.04627 8.89536,-0.85482 0,0 z m 3.61418,-1.01174 c -1.291584,-3.67033 -2.18652,3.46804 0,0 z m 112.626124,1.05229 c -2.33281,-3.52152 -4.16875,3.46443 0,0 z m -7.67523,-0.0264 c 10.88819,1.04682 0.6855,-6.791 0,0 z m 236.02919,-1.4725 c -3.38333,-6.48129 0.2893,3.97967 0,0 z m 6.18873,-3.89291 c 18.96983,-18.79585 -28.54287,-10.86983 -19.46869,-9.91881 12.25185,-3.08984 16.74286,4.07841 3.27007,6.53554 -1.80812,6.06423 13.44309,6.5461 16.19862,3.38327 z m -8.33077,-0.13144 c 5.1009,-3.2243 6.82648,3.41547 0,0 z m 5.92798,-3.13791 c 3.77826,-3.50973 5.20603,5.00715 0,0 z m -6.92537,-0.27961 c 5.12881,-5.92187 -3.04641,6.36534 0,0 z m 3.95062,-2.57372 c 3.10204,-3.64545 1.88573,2.74669 0,0 z m 3.84492,-4.08775 c 7.11049,-7.71414 7.11422,7.42702 0,0 z m -237.71904,11.47771 c 17.14275,-2.8653 -14.15591,-4.19252 0,0 z m -0.94018,-2.0795 c 5.48279,-3.47722 7.8794,3.80269 0,0 z m 221.38679,-5.61205 c 0.44312,-5.5212 -4.53977,2.949 0,0 z m -10.14786,-4.93964 c -2.26821,-4.427 -2.07578,4.39618 0,0 z m -30.11173,-1.11007 c -3.08416,-18.35774 -15.19033,5.55269 0,0 z m -5.82808,-2.77532 c 2.316,-3.36722 2.01656,3.66342 0,0 z M 96.130706,919.0369 c -1.37987,-3.31241 0.214535,4.81241 0,0 z m 204.411344,-0.86536 c 12.79055,-16.14627 -13.82308,-6.42713 0,0 z m -1.8713,-6.11461 c 6.89489,1.56461 -4.45663,6.16901 0,0 z m 43.28036,5.59967 c -4.59711,-5.65842 -5.82532,6.16681 0,0 z M 62.783726,915.99468 c 12.926454,-8.36323 -9.253866,-1.11601 0,0 z m 282.573934,-1.2479 c 7.67289,-7.74416 -9.42131,0.15498 0,0 z m 8.49928,-2.58599 c -4.12242,-3.4662 -1.93194,2.65921 0,0 z m 59.49494,-4.21343 c -2.12231,-4.40343 -1.06712,3.7196 0,0 z m -242.59367,0.25737 c -3.50253,-0.59858 -12.20031,0.57835 -3.62048,0.25892 z m -94.949084,0.34154 c -6.928977,-4.15892 -3.218462,2.43804 0,0 z m 143.865234,-2.74189 c 2.70738,-10.08587 -3.77445,-0.29349 0,0 z m 13.78743,-1.69211 c 10.24369,-9.85429 -7.36266,1.40132 0,0 z m -3.48458,-5.94394 c 18.64708,-3.68274 -18.1293,1.42228 0,0 z m -11.70274,-4.3e-4 c 30.73844,-9.51929 63.19466,-4.59415 94.76782,-6.09701 -29.71958,-2.80706 -59.9401,-5.17319 -89.6624,-2.24097 -0.7275,4.12077 7.20481,1.55123 -3.32128,5.35673 -0.21374,-3.03028 -5.71131,5.15328 -1.78414,2.98125 z m 13.18154,-7.40082 c 7.52213,-3.57266 3.06455,2.6383 0,0 z m 14.09584,-1.02006 c 8.4509,-0.81596 12.8264,1.27486 0,0 z m 10.19914,4.87017 c -7.19387,-0.86842 -6.09941,1.11967 0,0 z m 13.59884,-0.97135 c -7.19385,-0.86844 -6.09942,1.11971 0,0 z m -52.95171,-1.93704 c -5.64541,-1.327 -4.66475,1.57863 0,0 z m 45.63731,-4.87488 c -10.33557,-0.62995 -7.2926,1.00935 0,0 z"
       id="path3050"
       inkscape:connector-curvature="0"
       sodipodi:nodetypes="ccccccccccccccccccccccccccccccccccccccccccccccccccccccccccccccccccccccccccccccccccccccccccccccccccccccccccccccccccccccccccccccccccccccccccccccccccccccccccccccccccccccccccccccccccccccccccccccccccccccccccccccccccccccccccccccccccccccccccccccccccccccccccccccccccccccccccccccccccccccccccccccccccccccccccccccccccccccccccccccccccccccccccccccccccccccccccccccccccccccccccccccccccccccccccccccccccccccccccccccccccccccccccccccccccccccccccccccccccccccccccccccccccccccccccccccccccccccccccccccccccccccccccccccccccccccccccccccccccccccccccccccccccccccccccccccccccccccccccccccccccccccccccccccccccccccccccccccccccccccccccccccc" />
  </g>
</svg>
