<?xml version="1.0" encoding="iso-8859-1"?>
<!-- Generator: Adobe Illustrator 16.0.0, SVG Export Plug-In . SVG Version: 6.00 Build 0)  -->
<!DOCTYPE svg PUBLIC "-//W3C//DTD SVG 1.1//EN" "http://www.w3.org/Graphics/SVG/1.1/DTD/svg11.dtd">
<svg version="1.1" id="Capa_1" xmlns="http://www.w3.org/2000/svg" xmlns:xlink="http://www.w3.org/1999/xlink" x="0px" y="0px"
	 width="25.404px" height="25.24px" viewBox="0 0 25.404 25.24" style="enable-background:new 0 0 25.404 25.24;"
	 xml:space="preserve">
<path style="fill:#000000;" d="M11.314,7.34l-0.109-0.096c0.535-1.92,0.048-4.066-1.461-5.576c-1.5-1.496-3.62-1.986-5.529-1.469
	l3.232,3.232L6.599,6.598L3.432,7.445l-3.234-3.23c-0.514,1.908-0.025,4.029,1.475,5.529c1.571,1.572,3.835,2.033,5.814,1.389
	l0.018,0.018l13.3,13.299c0.526,0.525,1.214,0.791,1.904,0.791s1.377-0.266,1.906-0.791c1.053-1.049,1.053-2.754,0-3.811
	L11.314,7.34z M22.941,23.998c-0.566,0-1.027-0.461-1.027-1.029c0-0.57,0.461-1.029,1.027-1.029c0.57,0,1.03,0.459,1.03,1.029
	C23.972,23.537,23.512,23.998,22.941,23.998z"/>
<g>
</g>
<g>
</g>
<g>
</g>
<g>
</g>
<g>
</g>
<g>
</g>
<g>
</g>
<g>
</g>
<g>
</g>
<g>
</g>
<g>
</g>
<g>
</g>
<g>
</g>
<g>
</g>
<g>
</g>
</svg>
