<?xml version="1.0" encoding="UTF-8" standalone="no"?>
<!-- Created with Inkscape (http://www.inkscape.org/) -->

<svg
   xmlns:dc="http://purl.org/dc/elements/1.1/"
   xmlns:cc="http://creativecommons.org/ns#"
   xmlns:rdf="http://www.w3.org/1999/02/22-rdf-syntax-ns#"
   xmlns:svg="http://www.w3.org/2000/svg"
   xmlns="http://www.w3.org/2000/svg"
   xmlns:sodipodi="http://sodipodi.sourceforge.net/DTD/sodipodi-0.dtd"
   xmlns:inkscape="http://www.inkscape.org/namespaces/inkscape"
   width="744.09448819"
   height="1052.3622047"
   id="svg2"
   version="1.1"
   inkscape:version="0.48.4 r9939"
   sodipodi:docname="New document 1">
  <defs
     id="defs4" />
  <sodipodi:namedview
     id="base"
     pagecolor="#ffffff"
     bordercolor="#666666"
     borderopacity="1.0"
     inkscape:pageopacity="0.0"
     inkscape:pageshadow="2"
     inkscape:zoom="1.8328947"
     inkscape:cx="137.14286"
     inkscape:cy="903.89088"
     inkscape:document-units="px"
     inkscape:current-layer="layer1"
     showgrid="false"
     inkscape:window-width="1301"
     inkscape:window-height="744"
     inkscape:window-x="65"
     inkscape:window-y="24"
     inkscape:window-maximized="1" />
  <metadata
     id="metadata7">
    <rdf:RDF>
      <cc:Work
         rdf:about="">
        <dc:format>image/svg+xml</dc:format>
        <dc:type
           rdf:resource="http://purl.org/dc/dcmitype/StillImage" />
        <dc:title></dc:title>
      </cc:Work>
    </rdf:RDF>
  </metadata>
  <g
     inkscape:label="Layer 1"
     inkscape:groupmode="layer"
     id="layer1">
    <path
       transform="matrix(1.0718085,0,0,0.94080997,1.7378437,-27.269882)"
       style="fill:#008080;fill-opacity:1"
       d="m 213.86934,124.59477 c 0,48.36159 -45.92215,87.5664 -102.56999,87.5664 -56.647845,0 -102.5699951,-39.20481 -102.5699951,-87.5664 0,-48.361584 45.9221501,-87.566396 102.5699951,-87.566396 56.64784,0 102.56999,39.204812 102.56999,87.566396 z"
       id="path3723" />
    <path
       style="fill:#00415a;fill-opacity:1"
       d="M 113.51902,171.7884 C 93.285189,170.56746 75.762076,165.99618 59.496081,157.69536 25.164687,140.17547 6.7884874,109.42968 12.398666,78.895226 15.149433,63.923657 24.609744,48.067176 37.422818,36.952105 84.708951,-4.0676124 168.93367,-1.1230123 210.70965,43.010426 c 32.16657,33.981777 24.52469,81.045734 -17.63809,108.627394 -21.9509,14.35963 -51.49659,21.84353 -79.55254,20.15058 l 0,0 z"
       id="path4721"
       inkscape:connector-curvature="0" />
  </g>
</svg>
