<?xml version="1.0" encoding="UTF-8" standalone="no"?>
<!-- Created with Inkscape (http://www.inkscape.org/) -->

<svg
   xmlns:dc="http://purl.org/dc/elements/1.1/"
   xmlns:cc="http://creativecommons.org/ns#"
   xmlns:rdf="http://www.w3.org/1999/02/22-rdf-syntax-ns#"
   xmlns:svg="http://www.w3.org/2000/svg"
   xmlns="http://www.w3.org/2000/svg"
   xmlns:sodipodi="http://sodipodi.sourceforge.net/DTD/sodipodi-0.dtd"
   xmlns:inkscape="http://www.inkscape.org/namespaces/inkscape"
   width="195"
   height="472"
   id="svg2"
   version="1.1"
   inkscape:version="0.48.4 r9939"
   sodipodi:docname="mike.svg">
  <defs
     id="defs4" />
  <sodipodi:namedview
     id="base"
     pagecolor="#ffffff"
     bordercolor="#666666"
     borderopacity="1.0"
     inkscape:pageopacity="0.0"
     inkscape:pageshadow="2"
     inkscape:zoom="1.0045673"
     inkscape:cx="481.22038"
     inkscape:cy="215.70633"
     inkscape:document-units="px"
     inkscape:current-layer="layer1"
     showgrid="false"
     inkscape:window-width="1301"
     inkscape:window-height="744"
     inkscape:window-x="65"
     inkscape:window-y="24"
     inkscape:window-maximized="1" />
  <metadata
     id="metadata7">
    <rdf:RDF>
      <cc:Work
         rdf:about="">
        <dc:format>image/svg+xml</dc:format>
        <dc:type
           rdf:resource="http://purl.org/dc/dcmitype/StillImage" />
        <dc:title />
      </cc:Work>
    </rdf:RDF>
  </metadata>
  <g
     inkscape:label="Layer 1"
     inkscape:groupmode="layer"
     id="layer1"
     transform="translate(0,-580.36218)">
    <path
       style="fill:#ffffff;fill-opacity:1"
       d="m 97.51768,1050.8325 c -2.236318,-2.5098 -3.578788,-3.0806 -7.826788,-3.3275 -3.75865,-0.2184 -5.12748,-0.6984 -5.12748,-1.798 0,-0.8776 0.62241,-1.3031 1.5,-1.0254 0.825,0.261 7.17438,0.3639 14.109738,0.2285 13.21368,-0.2578 15.71873,0.4744 14.29721,4.1788 -0.60755,1.5833 -1.51603,1.9259 -7.90695,2.9822 -1.65,0.2727 -3.75295,0.7873 -4.67321,1.1434 -1.1257,0.4357 -2.55649,-0.3438 -4.37252,-2.382 z m -50.865378,-15.2022 c -4.81673,-5.7244 -2.74879,-9.2704 3.80843,-6.5306 4.07643,1.7032 5.10886,3.4544 4.19147,7.1096 -0.89991,3.5855 -4.72888,3.3084 -7.9999,-0.579 z m 49.745488,-5.9002 c -4.541508,-0.518 -6.998288,-1.4039 -9.326718,-3.3632 -1.73861,-1.4629 -4.04071,-2.6599 -5.11577,-2.6599 -2.18697,0 -3.92043,-3.1571 -2.0718,-3.7733 2.10303,-0.7011 1.24828,-2.2267 -1.24751,-2.2267 -3.50141,0 -6.74526,-4.5158 -6.37122,-8.8694 0.39315,-4.576 2.06986,-4.9674 3.85946,-0.9009 2.06215,4.6859 6.86364,6.7669 15.61775,6.7688 5.194248,10e-4 7.612948,-0.4329 8.749998,-1.5699 2.1076,-2.1076 2.00387,-2.7612 -1.00587,-6.3381 l -2.5773,-3.0629 2.64107,-1.2034 c 2.00005,-0.9113 3.65712,-0.9313 6.8273,-0.083 5.43109,1.4539 8.56233,0.035 11.01859,-4.9914 2.2207,-4.5448 4.0949,-4.7583 6.19085,-0.7052 1.27715,2.4698 1.42367,4.5947 0.77568,11.25 -0.74821,7.6846 -0.93864,8.1858 -3.00166,7.9003 -1.7543,-0.2428 -3.05919,1.0291 -6.40936,6.247 -3.38227,5.268 -4.91022,6.7473 -7.79723,7.5493 -1.97485,0.5486 -3.81564,0.9383 -4.09064,0.8662 -0.275,-0.072 -3.27453,-0.4478 -6.66562,-0.8346 z m 22.65002,-62.05222 c -1.41494,-2.64385 -1.4329,-23.66102 -0.0234,-27.36833 0.5993,-1.57629 1.0685,-7.8692 1.04265,-13.98426 -0.0258,-6.11505 0.0753,-14.49327 0.22467,-18.61827 0.37107,-10.24464 -1.40541,-9.99887 -7.22834,1 l -4.5,8.5 0.27824,11 c 0.31683,12.52593 -1.25611,32.0678 -2.9148,36.2128 l -1.11534,2.7872 -1.03406,-3 c -0.56872,-1.65 -1.12487,-13.125 -1.23587,-25.5 l -0.20183,-22.5 -2.38817,0.22721 c -1.31349,0.12497 -4.693598,0.51953 -7.511358,0.87682 -4.4164,0.55998 -5.41975,0.35303 -7.27292,-1.50013 -2.9066,-2.90661 -1.40089,-5.64072 3.61901,-6.57149 4.57252,-0.84782 9.918878,-3.99456 11.359138,-6.68571 1.26664,-2.36673 -0.34284,-4.8467 -3.14547,-4.8467 -3.043478,0 -2.945088,-1.31557 0.62952,-8.41797 3.67342,-7.29871 4.89817,-16.3579 2.06448,-15.27051 -1.84744,0.70893 -7.884938,-3.05937 -7.356308,-4.59144 0.45961,-1.33205 4.195308,-1.47255 6.983898,-0.26266 1.61325,0.69995 1.73688,0.0279 1.5,-8.15403 -0.24371,-8.41778 -0.10658,-9.09708 2.45006,-12.13719 3.12479,-3.71569 2.79712,-5.62008 -1.20714,-7.01598 -2.11725,-0.73808 -3.30392,-0.63686 -4.66983,0.39832 -2.852588,2.1619 -6.101348,1.73197 -7.923208,-1.04854 -0.98935,-1.50997 -2.58253,-2.5 -4.02303,-2.5 -1.74363,0 -2.38499,-0.55551 -2.38499,-2.06574 0,-3.92441 1.99823,-5.75856 9.23541,-8.47706 13.019738,-4.8906 21.548588,-11.00569 25.045318,-17.9572 1.99706,-3.97019 4.0397,-17.76459 3.198,-21.59684 -1.05061,-4.78341 1.56715,-6.98799 7.39375,-6.22673 2.54514,0.33253 5.84267,1.21637 7.32786,1.96409 1.48519,0.74771 3.1308,1.35948 3.65693,1.35948 1.23875,0 4.44687,-10.17731 3.97958,-12.62465 -0.64932,-3.40062 -6.63837,-3.97912 -16.54882,-1.59852 -4.83342,1.16105 -11.03803,2.42397 -13.78803,2.8065 -2.75,0.38254 -11.61425,2.62672 -19.698328,4.98707 -22.30299,6.51193 -26.64008,6.65823 -30.3323,1.0232 -3.40767,-5.20076 -0.69259,-7.24257 16.6332,-12.50853 5.28141,-1.60523 14.95642,-4.11699 21.499998,-5.5817 6.54359,-1.46472 13.27664,-3.5124 14.96234,-4.55041 2.22016,-1.36712 4.08313,-1.72206 6.75921,-1.28779 4.32216,0.70139 12.67588,-2.07488 12.67588,-4.21269 0,-1.72524 -3.11322,-3.45248 -6.22282,-3.45248 -1.29486,0 -4.13695,0.93158 -6.31574,2.07017 -2.52437,1.31919 -6.31941,2.17742 -10.46144,2.36582 -4.06665,0.18497 -11.55388,1.85226 -19.999998,4.4537 -17.34223,5.34147 -29.6401,7.82521 -31.85712,6.43404 -2.79395,-1.75319 -3.80583,-6.08935 -1.87223,-8.02295 2.08075,-2.08076 10.39079,-5.29525 13.72935,-5.31079 3.50571,-0.0163 10.85296,-2.3719 15,-4.8091 3.85907,-2.26797 13.472018,-5.12348 27.999998,-8.31736 10.09737,-2.21984 13.7257,-4.16079 11,-5.88438 -2.20487,-1.39425 -9.75577,-1.18357 -18.66203,0.52068 -9.60247,1.83747 -15.292228,1.92803 -15.717738,0.25017 -0.17435,-0.6875 -0.78647,-2.68688 -1.36026,-4.44307 -1.34433,-4.11453 -0.11408,-5.17507 9.460838,-8.15567 3.97145,-1.23629 7.48551,-2.67608 7.80902,-3.19953 0.32351,-0.52345 3.2295,-0.95173 6.45776,-0.95173 6.94025,0 10.31346,-2.12752 7.62917,-4.81181 -1.93838,-1.93838 -6.62124,-1.24086 -39.575738,5.89495 -6.68643,1.44784 -9.41054,1.6176 -13,0.8101 -3.87917,-0.87268 -4.68677,-0.7778 -5.54102,0.65093 -2.88527,4.8256 -4.79168,6.45583 -7.54953,6.45583 -2.00699,0 -3.41878,-0.78509 -4.56927,-2.54096 -2.55618,-3.90123 -0.59283,-7.02659 6.37335,-10.14543 8.72771,-3.9075 24.63241,-9.16957 32.8383,-10.86454 4.03547,-0.83355 9.265448,-2.3907 11.622178,-3.46034 2.35673,-1.06965 6.12773,-1.95469 8.37998,-1.96677 2.62812,-0.0141 4.66974,-0.65702 5.69941,-1.7948 3.65961,-4.04383 -1.95354,-5.71787 -14.09175,-4.20267 -4.78647,0.59749 -10.567538,1.30684 -12.846838,1.57633 -2.61255,0.30889 -5.754,1.72288 -8.5,3.82589 -4.50709,3.45174 -19.08755,8.88566 -27.0436,10.07874 -5.27233,0.79063 -7.81223,-0.96584 -7.81223,-5.40256 0,-6.44725 12.68565,-12.11017 33.77973,-15.0794 4.51191,-0.6351 10.08349,-2.3552 14.654,-4.5241 4.123098,-1.95658 8.938918,-3.49939 10.923218,-3.49939 7.31025,0 11.43549,-4.43516 6.55479,-7.04724 -4.74542,-2.53967 -29.692718,1.66855 -32.916048,5.55243 -0.63562,0.76588 -2.80718,1.9251 -4.82568,2.57604 -2.01851,0.65095 -7.72001,2.88094 -12.67001,4.95554 -12.33533,5.16987 -14.8556,5.60763 -17.43486,3.02838 -2.70446,-2.70447 -2.62297,-6.59823 0.19711,-9.41831 4.43535,-4.43536 21.48509,-10.46342 40.18385,-14.20733 4.37036,-0.87504 9.18552,-2.2319 10.70035,-3.01525 1.514818,-0.78335 3.789078,-1.42678 5.053888,-1.42985 4.15018,-0.0101 9.58782,-2 10.26136,-3.7552 0.98245,-2.56024 -2.78851,-5.19428 -6.73931,-4.70744 -15.224958,1.87613 -20.685788,2.96053 -23.722388,4.71076 -8.04831,4.63888 -31.84814,13.75747 -35.90747,13.75747 -2.21961,0 -3.12294,-0.65919 -4.08449,-2.98059 -1.95793,-4.72686 -0.60487,-7.68329 4.76074,-10.40225 13.10479,-6.6407 44.21064,-16.71614 54.231218,-17.56594 6.11967,-0.51898 6.5,-0.69751 6.5,-3.05123 0,-2.06371 -0.66362,-2.66391 -3.80259,-3.43921 -5.49644,-1.35759 -13.820998,0.62353 -29.697408,7.0675 -19.84474,8.05465 -29.15532,11.32979 -32.27144,11.35198 -5.23326,0.0373 -6.31558,-8.08791 -1.49031,-11.18792 1.24396,-0.79919 7.27149,-3.77004 13.39451,-6.60189 11.9761,-5.53885 23.27941,-8.97235 38.36724,-11.65446 5.225,-0.92883 10.287498,-2.39915 11.249998,-3.26738 1.95008,-1.75908 2.38399,-8.21549 0.7565,-11.25647 -0.93645,-1.74978 -1.22409,-1.76579 -5.00953,-0.27883 -3.323548,1.30553 -4.700438,1.37249 -7.985298,0.38832 -2.1831,-0.65407 -4.669,-2.18652 -5.52421,-3.40543 -4.85446,-6.91896 -6.54453,-10.16232 -6.28174,-12.05506 0.2297,-1.65442 -0.36405,-2.24929 -2.70572,-2.71087 l -3,-0.59134 4,-1.1739 c 7.91924,-2.32408 9.95109,-1.64638 14.74618,4.91842 2.5465,3.48633 8.179888,6.8038 9.430258,5.55343 0.33677,-0.33676 -0.12766,-2.54988 -1.03207,-4.91803 -3.168528,-8.29668 -1.904,-10.1489 5.79703,-8.4912 2.16777,0.46663 6.28402,0.55573 9.14723,0.198 4.49201,-0.56124 5.81472,-0.29359 9.64645,1.95196 2.57449,1.50874 5.965,2.60238 8.06798,2.60238 4.23136,0 10.10313,4.49793 11.11029,8.51078 0.64255,2.56012 3.11354,3.40855 3.81329,1.30931 0.6444,-1.9332 3.55068,-0.15139 5.31359,3.2577 1.56692,3.03009 1.54572,3.31468 -0.44772,6.01095 -4.3093,5.82864 -1.77875,11.09233 7.58964,15.78695 5.01379,2.51247 5.70068,3.46286 4.8764,6.74704 -0.40526,1.61469 -1.86464,3.02504 -4.09414,3.95659 -4.53041,1.89292 -4.382,3.91191 0.46951,6.38697 3.62305,1.84834 7.06608,5.38402 7.06608,7.25621 0,1.73334 -4.16172,4.7775 -6.53138,4.7775 -5.65781,0 -3.38147,5.88357 3.10452,8.02414 5.50133,1.8156 5.70166,7.43769 0.25186,7.06826 -1.27875,-0.0867 -3.675,-0.25543 -5.325,-0.375 -4.72563,-0.34244 -4.38152,2.89175 0.92067,8.653 4.11634,4.47273 4.76074,4.81816 7.89233,4.23067 4.15998,-0.78042 6.21971,1.14034 5.272,4.91629 -0.45251,1.80295 -1.50993,2.71764 -3.63247,3.14214 -3.79717,0.75944 -4.16946,1.41978 -2.88224,5.1123 0.76875,2.20524 1.86779,3.16583 4.14272,3.62081 4.4645,0.8929 5.78782,2.37628 5.78067,6.47984 -0.005,2.97965 -0.54102,3.93182 -3,5.33105 -4.56036,2.59497 -3.73604,5.59113 2.00632,7.2924 3.49061,1.03416 6,3.45615 6,5.79102 0,1.08731 -1.575,3.46235 -3.5,5.27786 -1.925,1.81551 -3.5,3.547 -3.5,3.84775 0,0.30076 1.9125,1.51643 4.25,2.70149 2.3375,1.18506 4.58061,2.65671 4.98469,3.27032 1.56244,2.37267 0.71571,6.75618 -1.78883,9.26072 -3.40359,3.40359 -2.78737,5.44109 2.05414,6.79192 3.28874,0.9176 4.05694,1.6073 4.32021,3.87878 0.17611,1.51951 -0.61139,4.68715 -1.75,7.03922 -2.36731,4.89021 -2.44733,5.74691 -1.01763,10.89503 0.94835,3.41484 1.35225,3.75 4.51917,3.75 4.5783,0 5.42825,2.29626 5.42825,14.6651 0,10.7388 0.46204,9.95269 -11.86415,20.18551 -6.95885,5.77702 -29.92316,18.57007 -37.30213,20.78042 -9.53607,2.8565 -9.54132,2.8708 -7.39926,20.16181 1.16405,9.39631 2.51782,16.086 3.74897,18.52555 1.05985,2.10012 2.18604,6.00554 2.50263,8.67872 l 0.57564,4.86033 -5.54598,3.54771 c -3.05028,1.95125 -6.47928,4.85843 -7.61998,6.4604 -3.00246,4.21657 -6.05995,26.24953 -7.09586,51.13445 -0.46935,11.275 -1.15948,21.2875 -1.53361,22.25 -0.91443,2.35246 -3.14792,2.21336 -4.48187,-0.27914 z m -7.51541,-67.02103 c -0.77111,-1.24769 -3.18573,-1.21717 -3.96899,0.0502 -1.14099,1.84616 0.48952,3.07598 2.5887,1.95253 1.08202,-0.57908 1.70316,-1.4803 1.38029,-2.0027 z m 12.53706,-16.46574 c 0.48547,-1.27689 2.14522,-2.9249 3.68832,-3.66223 3.08316,-1.4732 4.18221,-5.06072 2.25995,-7.3769 -2.34331,-2.82351 -12.3528,-0.91555 -13.45755,2.56522 -0.32172,1.01366 0.11951,3.52903 0.98052,5.58972 2.85472,6.8323 4.7152,7.6542 6.52876,2.88419 z M 110.83158,832.8483 c 5.35251,-2.6723 12.20683,-5.65162 15.23183,-6.62071 8.21905,-2.63308 14.70136,-9.733 10.98397,-12.03048 -0.55882,-0.34537 -6.74632,3.16427 -13.75,7.7992 -7.00369,4.63492 -15.32147,9.59104 -18.48397,11.0136 -3.1625,1.42255 -5.75,3.06136 -5.75,3.64179 0,1.77767 1.67158,1.23743 11.76817,-3.8034 z m 32.35615,-37.51479 c 0.78501,-1.7229 0.76949,-2.95639 -0.0566,-4.5 -2.4422,-4.56327 -5.9721,-0.63545 -4.0269,4.48083 1.1569,3.04287 2.70252,3.05013 4.08352,0.0192 z m 14.87568,-75.15787 c 0,-1.59667 -2.65762,-3.14433 -3.66667,-2.13529 -0.31922,0.31923 -0.31394,1.27482 0.0118,2.12354 0.7669,1.99852 3.65492,2.00779 3.65492,0.0117 z m -30,-48.46862 c 0,-0.55 -0.42344,-1 -0.94098,-1 -0.51754,0 -1.2191,0.45 -1.55902,1 -0.33992,0.55 0.0835,1 0.94098,1 0.85746,0 1.55902,-0.45 1.55902,-1 z m -53.799998,232.8 c -1.77556,-1.77555 -1.45835,-5.26119 0.7225,-7.93922 l 1.92249,-2.36078 -0.12806,5.75 c -0.13254,5.95037 -0.483,6.58393 -2.51693,4.55 z m 4.8,-14.103 c 0,-0.97717 0.9,-3.54082 2,-5.697 2.26648,-4.44266 2.60484,-8.62352 0.75,-9.26695 -0.6875,-0.23849 -2.89682,0.1397 -4.90959,0.84041 -2.01278,0.70071 -3.92528,1.00834 -4.25,0.68362 -2.38287,-2.38287 2.67114,-9.71634 7.41415,-10.75808 6.05571,-1.33006 8.69636,1.1838 6.72622,6.40329 -0.89347,2.36706 -0.85553,3.86382 0.16979,6.69929 1.3168,3.64153 1.30806,3.66348 -3.29013,8.26167 -3.35396,3.35395 -4.61044,4.12623 -4.61044,2.83375 z m -5,-48.697 c 1.93876,-1.25292 3,-1.25292 3,0 0,0.55 -1.0125,0.99311 -2.25,0.98469 -1.81944,-0.0124 -1.96296,-0.20082 -0.75,-0.98469 z m -37,-42.52934 c -1.80309,-1.05191 -4.17285,-1.29575 -8.50095,-0.87474 -5.16739,0.50265 -6.3828,0.28336 -8.75,-1.57867 -3.50365,-2.75598 -3.58657,-6.33306 -0.20216,-8.72057 6.53648,-4.61111 7.04537,-5.1947 5.45311,-6.25354 -0.825,-0.54861 -2.2875,-0.75243 -3.25,-0.45292 -2.78021,0.86513 -5.65846,-0.50982 -7.14058,-3.41109 -1.62891,-3.18859 -0.85357,-5.72642 2.78122,-9.10344 3.40989,-3.16808 3.3467,-5.07569 -0.16814,-5.07569 -7.25604,0 -9.68351,-6.89866 -4.2225,-12 3.87334,-3.61824 3.82566,-5.58487 -0.15469,-6.38094 -6.9558797,-1.39117 -7.7192597,-5.53907 -2.15327,-11.69995 2.95582,-3.27174 3.48033,-4.41891 2.63033,-5.75288 -0.58395,-0.91643 -2.35787,-1.70335 -3.94205,-1.74872 -5.1929397,-0.14873 -5.3803197,-0.29651 -5.3803197,-4.2432 0,-2.78776 0.67826,-4.46287 2.4999997,-6.17431 1.375,-1.29175 2.5,-3.13804 2.5,-4.10289 0,-1.85871 -2.1181,-4.43378 -4.2321497,-5.1452 -0.93326,-0.31407 -0.98095,-0.79947 -0.18073,-1.83929 1.3557897,-1.76173 5.8198297,-13.84686 5.2969797,-14.34009 -0.21126,-0.19929 -2.06702,-1.05976 -4.1239297,-1.91216 -4.23393,-1.75458 -4.21355,-2.17511 0.4777697,-9.8573 2.78041,-4.55301 2.81854,-4.79316 1.24446,-7.8371 -0.89311,-1.72709 -2.9537797,-3.88847 -4.5792597,-4.80307 -2.85756,-1.60785 -2.93493,-1.84499 -2.33696,-7.16291 1.00049,-8.89755 3.37954,-18.28254 5.12286,-20.20889 0.8915097,-0.98511 2.7886897,-1.80542 4.2159497,-1.82291 4.36108,-0.0534 6.09501,-2.1496 6.09501,-7.36828 0,-7.79266 6.833,-18.03578 15.25909,-22.87441 2.3325,-1.33942 6.77606,-3.99228 9.87459,-5.89525 6.3287,-3.88679 16.4331,-6.66348 18.1178,-4.97878 0.72245,0.72245 -0.30602,2.39409 -3.35482,5.45285 -5.59777,5.61605 -10.54102,11.20177 -14.03644,15.86075 -1.51235,2.01579 -3.67363,3.95831 -4.80283,4.3167 -2.62479,0.83308 -8.05739,8.68 -8.05739,11.6382 0,1.24279 -0.53763,4.86258 -1.19474,8.04396 -1.08647,5.26017 -0.99657,6.26242 0.99207,11.06037 1.46981,3.54619 2.31685,8.06287 2.58347,13.77587 0.35833,7.67834 1.67423,15.00395 4.76014,26.49983 0.59056,2.2 1.44453,11.24592 1.8977,20.10204 0.76277,14.90648 1.94861,21.6624 5.16011,29.39796 2.49929,6.02003 3.05148,9.40229 3.99988,24.5 1.40839,22.42025 1.34402,26.48286 -0.48725,30.75 -1.32036,3.07665 -2.11228,3.74364 -4.41036,3.71456 -1.54056,-0.0195 -3.92602,-0.69174 -5.30102,-1.4939 z m 19.83514,-55.22581 c -3.65831,-0.78821 -3.15865,-6.24485 0.57185,-6.24485 2.61542,0 4.59301,1.75815 4.59301,4.08337 0,1.77354 -2.36727,2.76423 -5.16486,2.16148 z m 2.40864,-154.49486 c 0.22575,-0.6875 1.72575,-1.37269 3.33334,-1.52264 2.78815,-0.26008 2.8334,-0.20246 0.98175,1.25 -2.34613,1.84032 -4.88247,2.00058 -4.31509,0.27264 z"
       id="path3037"
       inkscape:connector-curvature="0" />
  </g>
</svg>
