<?xml version="1.0" encoding="UTF-8" standalone="no"?>
<!-- Generator: Adobe Illustrator 16.0.0, SVG Export Plug-In . SVG Version: 6.00 Build 0)  -->

<svg
   xmlns:dc="http://purl.org/dc/elements/1.1/"
   xmlns:cc="http://creativecommons.org/ns#"
   xmlns:rdf="http://www.w3.org/1999/02/22-rdf-syntax-ns#"
   xmlns:svg="http://www.w3.org/2000/svg"
   xmlns="http://www.w3.org/2000/svg"
   xmlns:sodipodi="http://sodipodi.sourceforge.net/DTD/sodipodi-0.dtd"
   xmlns:inkscape="http://www.inkscape.org/namespaces/inkscape"
   version="1.1"
   id="Capa_1"
   x="0px"
   y="0px"
   width="25.404px"
   height="25.24px"
   viewBox="0 0 25.404 25.24"
   style="enable-background:new 0 0 25.404 25.24;"
   xml:space="preserve"
   inkscape:version="0.48.5 r10040"
   sodipodi:docname="adjustable.svg"><metadata
   id="metadata3061"><rdf:RDF><cc:Work
       rdf:about=""><dc:format>image/svg+xml</dc:format><dc:type
         rdf:resource="http://purl.org/dc/dcmitype/StillImage" /></cc:Work></rdf:RDF></metadata><defs
   id="defs3059" /><sodipodi:namedview
   pagecolor="#ffffff"
   bordercolor="#666666"
   borderopacity="1"
   objecttolerance="10"
   gridtolerance="10"
   guidetolerance="10"
   inkscape:pageopacity="0"
   inkscape:pageshadow="2"
   inkscape:window-width="1366"
   inkscape:window-height="745"
   id="namedview3057"
   showgrid="false"
   inkscape:zoom="14.481547"
   inkscape:cx="14.171671"
   inkscape:cy="11.909613"
   inkscape:window-x="-8"
   inkscape:window-y="-8"
   inkscape:window-maximized="1"
   inkscape:current-layer="Capa_1" />
<path
   style="fill:#000000"
   d="m 11.244947,7.3163046 -0.109,-0.096 c 0.535,-1.92 0.048,-4.066 -1.4610001,-5.576 C 8.1749466,0.14830462 6.0549466,-0.34169538 4.1459466,0.17530462 l 3.232,3.23199998 -0.848,3.167 -3.167,0.847 -3.234,-3.23 c -0.514,1.908 -0.025,4.0290001 1.475,5.529 1.571,1.5720004 3.835,2.0330004 5.814,1.3890004 l 0.018,0.018 13.3000004,13.299 c 0.526001,0.525 1.214,0.791 1.904,0.791 0.690001,0 1.377001,-0.266 1.906,-0.791 1.053001,-1.049 1.053001,-2.754 0,-3.811 l -13.301,-13.2990004 z m 11.627,16.6580004 c -0.566,0 -1.027,-0.461 -1.027,-1.029 0,-0.57 0.461,-1.029 1.027,-1.029 0.57,0 1.03,0.459 1.03,1.029 9.56e-4,0.568 -0.459,1.029 -1.03,1.029 z"
   id="path3025"
   inkscape:connector-curvature="0" />
<g
   id="g3027">
</g>
<g
   id="g3029">
</g>
<g
   id="g3031">
</g>
<g
   id="g3033">
</g>
<g
   id="g3035">
</g>
<g
   id="g3037">
</g>
<g
   id="g3039">
</g>
<g
   id="g3041">
</g>
<g
   id="g3043">
</g>
<g
   id="g3045">
</g>
<g
   id="g3047">
</g>
<g
   id="g3049">
</g>
<g
   id="g3051">
</g>
<g
   id="g3053">
</g>
<g
   id="g3055">
</g>
<g
   id="g3025"
   transform="matrix(-0.0031262,0.01122051,-0.01124579,-0.00292398,9.1568528,-10.668759)"><path
     transform="translate(1177.1429,288.57143)"
     d="M 308.57141,6.6478964 38.531179,5.7998731 -95.754528,-228.48584 39.999999,-461.92353 l 270.040231,0.84802 134.28571,234.28572 z"
     inkscape:randomized="0"
     inkscape:rounded="0"
     inkscape:flatsided="true"
     sodipodi:arg2="1.5739367"
     sodipodi:arg1="1.0503379"
     sodipodi:r2="232.64232"
     sodipodi:r1="270.04156"
     sodipodi:cy="-227.63782"
     sodipodi:cx="174.28571"
     sodipodi:sides="6"
     id="path3019"
     style="fill:#000000"
     sodipodi:type="star" /></g></svg>