<?xml version="1.0" encoding="UTF-8" standalone="no"?>
<!-- Created with Inkscape (http://www.inkscape.org/) -->

<svg
   xmlns:dc="http://purl.org/dc/elements/1.1/"
   xmlns:cc="http://creativecommons.org/ns#"
   xmlns:rdf="http://www.w3.org/1999/02/22-rdf-syntax-ns#"
   xmlns:svg="http://www.w3.org/2000/svg"
   xmlns="http://www.w3.org/2000/svg"
   xmlns:sodipodi="http://sodipodi.sourceforge.net/DTD/sodipodi-0.dtd"
   xmlns:inkscape="http://www.inkscape.org/namespaces/inkscape"
   width="490"
   height="350"
   id="svg3048"
   version="1.1"
   inkscape:version="0.48.4 r9939"
   sodipodi:docname="group.svg">
  <defs
     id="defs3050" />
  <sodipodi:namedview
     id="base"
     pagecolor="#ffffff"
     bordercolor="#666666"
     borderopacity="1.0"
     inkscape:pageopacity="0.0"
     inkscape:pageshadow="2"
     inkscape:zoom="0.75925086"
     inkscape:cx="428.44559"
     inkscape:cy="205.91031"
     inkscape:document-units="px"
     inkscape:current-layer="layer1"
     showgrid="false"
     inkscape:window-width="1301"
     inkscape:window-height="744"
     inkscape:window-x="65"
     inkscape:window-y="24"
     inkscape:window-maximized="1" />
  <metadata
     id="metadata3053">
    <rdf:RDF>
      <cc:Work
         rdf:about="">
        <dc:format>image/svg+xml</dc:format>
        <dc:type
           rdf:resource="http://purl.org/dc/dcmitype/StillImage" />
        <dc:title />
      </cc:Work>
    </rdf:RDF>
  </metadata>
  <g
     inkscape:label="Layer 1"
     inkscape:groupmode="layer"
     id="layer1"
     transform="translate(0,-702.36218)">
    <path
       style="fill:#ffffff"
       d="m 70.791909,1049.0293 c -34.32501,-6.2282 -58.88285,-18.4201 -65.7376105,-32.6358 -4.67260006,-9.6903 -5.39741003,-32.73121 -1.69929,-54.01874 6.1193403,-35.22478 23.7146705,-62.78676 48.1856005,-75.47964 9.90103,-5.13559 10.39533,-5.1859 12.78118,-1.30129 6.31279,10.27842 11.02375,14.5779 21.69228,19.79753 14.393661,7.04216 29.590521,8.9285 45.433481,5.6395 15.24849,-3.16559 25.37875,-9.79151 31.03287,-20.29786 2.39192,-4.4446 5.59154,-8.08371 7.11025,-8.08696 8.89724,-0.0196 41.8154,29.21885 41.8154,37.14029 0,2.70773 -2.55304,5.34039 -7.06704,7.28743 -32.48346,14.01117 -41.926,19.4195 -53.98148,30.91851 -20.44418,19.50043 -31.15146,42.04633 -36.90427,77.70783 l -2.66964,16.549 -12.204883,-0.1962 c -6.712678,-0.1078 -19.216768,-1.4685 -27.786848,-3.0235 z m 316.921151,0.095 c -1.02162,-1.2714 -2.5783,-6.6771 -3.45935,-12.0127 -5.26223,-31.8687 -20.09457,-60.28784 -42.3467,-81.13746 -15.7261,-14.73482 -36.3537,-27.67008 -44.12507,-27.67008 -3.51117,0 -12.4438,-9.75514 -12.4438,-13.58963 0,-1.17191 4.15867,-7.86145 9.24151,-14.86558 7.0624,-9.73198 10.9193,-13.06509 16.35702,-14.13559 6.43879,-1.26761 7.93028,-0.47516 15.68299,8.33238 11.41252,12.96532 26.97452,19.64962 45.78304,19.66502 24.2051,0.0196 42.96335,-9.05969 49.10998,-23.77067 l 3.07026,-7.34818 8.87478,4.5276 c 20.82427,10.62372 38.12621,32.66746 46.61043,59.38447 6.12188,19.27787 10.63655,50.98775 8.71652,61.22242 -2.95071,15.7288 -19.22485,27.4933 -49.47359,35.7644 -20.64131,5.6441 -49.09341,8.7506 -51.59802,5.6337 z M 168.81575,827.73474 c -0.8626,-2.69091 -1.66242,-17.08519 -1.77736,-31.98732 l -0.20898,-27.09476 -7.40111,-4.98715 c -6.62391,-4.46341 -9.59242,-4.92916 -28.26817,-4.4351 -21.75901,0.57565 -24.54381,-0.31495 -44.242641,-14.14908 -2.76686,-1.9431 -4.8438,-2.03735 -7.61064,-0.34535 -7.34343,4.49072 -17.42008,22.44954 -21.1605,37.71267 -6.27583,25.60911 -10.97654,18.35466 -8.72624,-13.46692 1.86008,-26.30369 5.96203,-38.84187 15.42577,-47.15116 4.14989,-3.64363 8.53052,-6.62482 9.73475,-6.62482 1.20419,0 8.73137,-3.05857 16.72704,-6.79683 13.602601,-6.35974 15.731901,-6.72875 33.108721,-5.73798 12.94699,0.73819 21.29445,2.44822 27.56363,5.64649 10.56307,5.38889 21.71314,18.10795 23.6651,26.99517 1.8002,8.19626 6.53957,9.80766 12.496,4.24866 2.63005,-2.45457 7.71747,-5.1777 11.30534,-6.05139 3.58789,-0.87367 12.34151,-4.61564 19.45249,-8.31546 12.10557,-6.29847 14.39081,-6.7224 35.8788,-6.65558 23.6221,0.0735 31.41313,2.21455 48.43655,13.31108 l 5.91657,3.85667 7.73432,-9.03583 c 4.25388,-4.9697 9.90879,-9.70304 12.56644,-10.51853 2.65769,-0.81552 11.14308,-4.40797 18.85645,-7.98325 12.87632,-5.96841 15.54939,-6.42759 32.65532,-5.60975 14.57793,0.69698 20.72928,2.0512 28.27637,6.22504 18.51124,10.23746 28.33146,29.79131 28.33146,56.41307 0,5.85036 -0.83706,11.15434 -1.86011,11.78663 -1.02308,0.6323 -5.671,-2.09388 -10.32875,-6.05815 -13.34301,-11.3564 -16.27493,-12.25245 -38.20454,-11.6762 -21.08743,0.55415 -24.06495,-0.41226 -43.65255,-14.16828 -2.79689,-1.96422 -4.81375,-2.04505 -7.61065,-0.30503 -6.00269,3.73442 -13.86229,16.60253 -12.41324,20.32358 2.64748,6.79842 3.82392,40.77401 1.4624,42.23352 -1.27176,0.78598 -7.01585,-2.64183 -12.76461,-7.61736 -15.56783,-13.47385 -20.67964,-14.9852 -45.61672,-13.48687 -24.4241,1.46751 -30.10266,-0.12221 -47.18854,-13.21115 -9.83932,-7.5375 -10.83309,-7.84695 -15.46153,-4.81425 -10.97119,7.18856 -20.15749,25.705 -27.37667,55.18203 -2.50346,10.22198 -5.32733,11.81275 -7.71997,4.34894 z"
       id="path3121"
       inkscape:connector-curvature="0" />
  </g>
</svg>
