<?xml version="1.0" encoding="UTF-8" standalone="no"?>
<!-- Created with Inkscape (http://www.inkscape.org/) -->

<svg
   xmlns:dc="http://purl.org/dc/elements/1.1/"
   xmlns:cc="http://creativecommons.org/ns#"
   xmlns:rdf="http://www.w3.org/1999/02/22-rdf-syntax-ns#"
   xmlns:svg="http://www.w3.org/2000/svg"
   xmlns="http://www.w3.org/2000/svg"
   xmlns:sodipodi="http://sodipodi.sourceforge.net/DTD/sodipodi-0.dtd"
   xmlns:inkscape="http://www.inkscape.org/namespaces/inkscape"
   width="410"
   height="450"
   id="svg2"
   version="1.1"
   inkscape:version="0.48.4 r9939"
   sodipodi:docname="plane.svg">
  <defs
     id="defs4" />
  <sodipodi:namedview
     id="base"
     pagecolor="#ffffff"
     bordercolor="#666666"
     borderopacity="1.0"
     inkscape:pageopacity="0.0"
     inkscape:pageshadow="2"
     inkscape:zoom="1.6182158"
     inkscape:cx="146.20984"
     inkscape:cy="122.10287"
     inkscape:document-units="px"
     inkscape:current-layer="layer1"
     showgrid="false"
     inkscape:window-width="1301"
     inkscape:window-height="744"
     inkscape:window-x="65"
     inkscape:window-y="24"
     inkscape:window-maximized="1" />
  <metadata
     id="metadata7">
    <rdf:RDF>
      <cc:Work
         rdf:about="">
        <dc:format>image/svg+xml</dc:format>
        <dc:type
           rdf:resource="http://purl.org/dc/dcmitype/StillImage" />
        <dc:title />
      </cc:Work>
    </rdf:RDF>
  </metadata>
  <g
     inkscape:label="Layer 1"
     inkscape:groupmode="layer"
     id="layer1"
     transform="translate(0,-602.36218)">
    <path
       style="fill:#ffffff"
       d="m 214.1998,1050.1291 c -5.88297,-8.4437 -30.2412,-52.41143 -29.76979,-53.73589 1.42889,-4.01417 25.6158,-31.2622 27.7502,-31.2622 2.06905,0 69.28119,76.98429 73.40889,84.08209 0.65663,1.1291 0.78422,2.7157 0.28357,3.5258 -0.55913,0.9047 -14.01222,1.473 -34.86925,1.473 l -33.95893,0 z m 70.165,1.1626 c 0.48789,-0.7894 -2.64676,-5.299 -6.96593,-10.0216 -4.31917,-4.7223 -20.4961,-23.4515 -35.94875,-41.62024 -15.45262,-18.1688 -28.81417,-32.99722 -29.6923,-32.9521 -0.87812,0.0451 -5.93929,5.4502 -11.24702,12.01122 -5.30773,6.56106 -10.91735,13.49545 -12.46585,15.40981 -2.79538,3.45578 -2.78326,3.53138 1.7038,10.63011 2.48558,3.9322 9.01495,15.1668 14.50972,24.9657 5.49477,9.799 11.0116,18.9854 12.25961,20.4145 2.03097,2.3254 5.66355,2.598 34.61434,2.598 19.22165,0 32.70518,-0.5823 33.23238,-1.4354 z m 25.54354,-1.905 c -1.97411,-2.6539 -8.45914,-13.1766 -14.41117,-23.3837 -5.95205,-10.2073 -21.40758,-36.36314 -34.34562,-58.12426 -12.93805,-21.76114 -23.52374,-40.31019 -23.52374,-41.22014 0,-0.90995 4.40757,-8.99452 9.7946,-17.9657 6.37858,-10.62246 10.68368,-16.31121 12.34383,-16.31121 2.32717,0 18.18179,18.42616 109.62696,127.40791 13.26933,15.814 24.12605,30.0284 24.12605,31.5875 0,2.7198 -1.623,2.8348 -40.01081,2.8348 l -40.01081,0 z m 82.12624,1.8143 c 0,-0.8394 -10.18862,-13.6548 -22.64138,-28.4786 -12.45277,-14.8239 -28.05196,-33.40759 -34.66491,-41.29719 -6.61295,-7.88959 -17.30266,-20.57847 -23.7549,-28.1975 -6.45223,-7.619 -17.41024,-20.61149 -24.35112,-28.87217 -23.73697,-28.25055 -25.70588,-30.48918 -26.81552,-30.48918 -0.61112,0 -5.56862,7.3782 -11.01664,16.39599 l -9.90553,16.39596 10.73511,18.12286 c 5.90431,9.96755 14.86806,25.13795 19.91945,33.71198 29.38813,49.88225 42.89297,72.13155 44.36853,73.09785 2.68778,1.7598 78.12691,1.3833 78.12691,-0.39 z m -312.630265,-1.284 c -14.049531,-6.3812 -20.381025,-21.4918 -20.284743,-48.4113 0.116699,-32.64466 10.018489,-72.41249 30.312824,-121.74381 6.600088,-16.04344 8.859714,-19.51272 11.604314,-17.81648 2.33399,1.44249 1.44052,7.0319 -4.153265,25.98222 -11.017638,37.32501 -14.244991,70.66337 -8.665443,89.51339 3.019811,10.20217 10.710978,19.42694 18.279908,21.92489 15.16432,5.00469 41.27849,-5.63547 64.02547,-26.08693 5.83856,-5.2494 7.41255,-6.13433 6.20783,-3.49029 -0.88765,1.94817 -3.41657,4.70682 -5.61983,6.13029 -2.20324,1.42351 -9.26036,6.2403 -15.68249,10.70396 -21.14188,14.69466 -39.88563,19.08146 -52.89502,12.37959 -12.82093,-6.60469 -18.339469,-20.61437 -18.313369,-46.49128 0.01945,-19.33762 4.082262,-42.52017 11.882532,-67.80307 3.372377,-10.93083 4.926297,-18.32743 4.210787,-20.0432 -3.132205,-7.51083 -29.519894,65.07801 -35.624559,97.9982 -7.716226,41.61062 -4.346937,71.97002 9.166981,82.60002 14.866997,11.6944 39.853878,4.6244 70.539388,-19.959 8.48536,-6.7979 19.34939,-16.5955 24.14234,-21.7724 4.79295,-5.17704 10.44003,-10.69569 12.54906,-12.26378 2.10905,-1.56807 -2.5124,3.65504 -10.26983,11.60708 -25.17802,25.8093 -46.55298,41.1544 -65.57074,47.0734 -11.185113,3.4812 -18.126691,3.4728 -25.842145,-0.032 z M 393.9437,1033.1288 c -5.68368,-10.0435 -21.87579,-38.30418 -35.98246,-62.80138 -14.10663,-24.49724 -35.02544,-60.85787 -46.48617,-80.8014 -11.46072,-19.94353 -22.4653,-38.65052 -24.45459,-41.57105 -2.66748,-3.91628 -3.4138,-6.57661 -2.84321,-10.13529 0.8379,-5.22596 -0.94342,-6.40145 -3.37482,-2.22703 -0.83231,1.42901 -1.53362,1.81433 -1.55845,0.85627 -0.0248,-0.95809 1.55273,-3.64093 3.50569,-5.96188 3.42982,-4.07611 9.04529,-19.53902 7.61512,-20.96919 -0.38579,-0.38577 -1.71971,0.14371 -2.96431,1.17662 -3.791,3.14625 -2.5506,-0.0771 3.30463,-8.58759 5.88788,-8.55792 8.6251,-7.5192 4.36276,1.65554 -1.2098,2.60415 -2.59371,7.74128 -3.07535,11.41589 l -0.8757,6.68105 2.211,-4.82521 c 2.98773,-6.52024 6.90794,-6.18574 12.75345,1.08822 15.45966,15.50115 18.91004,22.36195 33.90077,40.11166 25.62627,30.3449 28.44334,33.65012 50.34782,59.07199 l 19.55689,22.69732 -0.38919,55.22842 c -0.4686,66.49774 -0.007,65.37104 -15.55388,37.89704 z m 14.42236,-37.75586 0,-54.38488 -9.27925,-10.71192 c -11.22666,-12.95999 -54.12387,-63.16914 -69.05296,-80.8232 -7.41191,-8.82166 -15.87589,-18.66963 -22.55731,-26.48008 -8.43004,-9.8551 -10.07563,-10.8228 -11.36112,-6.68106 -0.44353,1.42902 -3.18378,7.40331 -6.08945,13.27624 l -5.28303,10.67806 3.37553,5.65343 c 14.75702,24.71553 88.29435,152.32709 113.83906,197.54837 1.96039,3.4705 4.2043,6.3099 4.98644,6.3099 0.88045,0 1.42209,-20.7137 1.42209,-54.38486 z M 188.56031,982.20486 c 8.68824,-11.06529 33.60871,-44.50071 38.45364,-51.59267 5.12292,-7.49885 7.99983,-9.84612 3.63938,-2.96935 -7.23343,11.40774 -32.95091,45.77828 -39.39685,52.6526 -5.09264,5.43105 -5.92302,6.01913 -2.69617,1.90942 z m -23.30158,-17.445 c -0.80738,-1.02072 -15.34345,-26.24173 -32.30236,-56.04671 -16.95892,-29.80493 -32.70492,-56.91995 -34.991125,-60.25555 -4.917339,-7.17447 -20.682924,-37.06321 -20.682924,-39.21114 0,-4.7801 12.05029,4.87315 16.208182,12.98406 15.261797,15.99541 9.620217,12.72869 27.571177,31.51984 2.1009,3.32802 8.33903,11.21019 13.86252,17.51591 5.52346,6.30575 21.21096,24.71198 34.86108,40.90275 l 24.81841,29.43777 -2.61399,4.51094 c -3.38235,5.83687 -19.71151,20.48264 -22.84658,20.49131 -1.32901,0.002 -3.07699,-0.82847 -3.88439,-1.84918 z m 15.9234,-9.45911 c 5.7313,-5.40663 10.42059,-10.82387 10.42059,-12.03832 0,-1.21441 -7.93764,-11.65615 -17.63921,-23.20388 -9.70155,-11.54769 -26.03347,-31.0174 -36.2931,-43.26601 -10.25965,-12.24861 -21.02899,-24.69733 -23.93185,-27.66381 -4.82781,-5.68982 -8.70667,-12.34011 -13.07252,-16.9451 -4.287011,-4.49333 -10.445725,-11.22368 -13.686024,-14.95632 -8.366813,-9.63813 -8.266983,-5.48141 0.189743,7.90148 3.952517,6.25491 9.190708,15.20289 11.640431,19.88438 13.21959,25.26308 68.56393,120.02627 70.12332,120.06842 1.00542,0.0271 6.51728,-4.37419 12.24862,-9.78084 z m 13.51,-5.01653 c 30.29486,-33.97679 60.68094,-76.60718 70.61503,-99.06997 1.99361,-4.50787 3.97424,-7.84664 4.40139,-7.41946 2.2697,2.26969 -30.55849,56.55118 -43.30171,71.59945 -25.28618,29.86004 -32.44466,37.9932 -37.89595,43.05572 -3.51712,3.26629 -0.73558,-0.40828 6.18124,-8.16574 z m 39.77562,-30.43595 c 0.80179,-1.63315 2.54577,-4.30558 3.8755,-5.93873 2.41772,-2.96936 2.41772,-2.96936 0.95992,0 -0.80177,1.63315 -2.54576,4.30558 -3.8755,5.93873 -2.41771,2.96936 -2.41771,2.96936 -0.95992,0 z m 10.24018,-17.07383 c 2.50596,-4.49116 10.31594,-18.84854 17.35549,-31.90529 7.03955,-13.05676 13.49582,-24.41456 14.34724,-25.23955 1.93198,-1.87206 -12.55274,25.96036 -24.33104,46.75209 -4.85709,8.57403 -9.5279,16.25723 -10.37953,17.07382 -0.85164,0.81657 0.50189,-2.18991 3.00784,-6.68107 z m -26.43711,-7.79456 c -23.57873,-39.16328 -40.54283,-68.09202 -49.40837,-84.25563 -2.01546,-3.67458 -12.42175,-21.66966 -23.12508,-39.98909 -18.28909,-31.30291 -21.18958,-37.21429 -18.25968,-37.21429 2.48015,0 6.71235,4.73977 40.43336,45.28274 19.01688,22.86408 36.13567,42.42751 38.04184,43.47427 1.90613,1.04674 4.46559,4.29627 5.68768,7.22115 1.22209,2.92487 4.57293,7.74733 7.44632,10.71657 9.28613,9.596 25.96431,31.84407 25.96431,34.63542 0,4.36516 -16.39459,27.92342 -19.4324,27.92342 -1.61738,0 -4.4894,-3.04658 -7.34798,-7.79456 z m 16.90989,-5.93873 c 4.61857,-6.73673 8.39479,-13.13307 8.3916,-14.21406 -0.002,-1.08099 -3.5878,-6.18773 -7.96581,-11.34829 -4.378,-5.16053 -10.17016,-12.46039 -12.87146,-16.22187 -2.70129,-3.76148 -5.44914,-6.83906 -6.10632,-6.83906 -0.65717,0 -2.14971,-1.8373 -3.31674,-4.08288 -1.16706,-2.24558 -5.02582,-7.17943 -8.57506,-10.96414 -5.76725,-6.14987 -36.47649,-42.79064 -64.39841,-76.83703 -5.61735,-6.84948 -10.45417,-11.73119 -10.7485,-10.84821 -0.29431,0.88295 5.41104,11.49788 12.67857,23.5887 7.26752,12.09085 17.40206,29.47577 22.52117,38.63314 5.11912,9.1574 10.23974,17.4235 11.37915,18.36913 1.13941,0.94565 2.07168,2.53172 2.07168,3.52462 0,0.9929 5.74904,11.43377 12.77565,23.20192 7.02659,11.76816 15.81462,26.74149 19.52893,33.27411 9.67172,17.01022 13.58361,23.01255 14.99796,23.01255 0.68212,0 5.01903,-5.5119 9.63759,-12.24863 z m 36.27066,-55.54032 c 0.84659,-11.70399 0.36223,-12.75544 -32.41239,-70.36099 -14.65791,-25.76311 -26.65075,-47.64359 -26.65075,-48.62328 0,-3.45474 3.16777,-1.70434 9.5391,5.27101 15.02367,16.44796 66.17961,78.07888 66.17961,79.73094 0,0.99119 -2.67242,6.87458 -5.93873,13.07419 -6.50521,12.34732 -7.04817,14.46304 -3.71169,14.46304 1.22487,0 2.22702,-0.77946 2.22702,-1.73213 0,-0.95266 0.34977,-1.38235 0.77727,-0.95482 1.46665,1.46661 -0.98331,5.36388 -3.84184,6.1114 -1.57256,0.41123 -3.25241,1.98029 -3.73302,3.48682 -2.49495,7.82065 -3.02663,7.71885 -2.43458,-0.46618 z m 5.9254,-15.70798 c 0.47811,-1.82828 2.74267,-6.88553 5.03237,-11.23829 l 4.16307,-7.91413 -29.03747,-34.41565 c -15.97062,-18.92859 -31.58143,-37.42211 -34.69068,-41.09668 -7.37961,-8.72137 -9.16491,-6.75987 -2.97278,3.26618 7.3234,11.85778 44.99923,78.02101 49.50016,86.92817 4.24531,8.4013 6.62925,9.73256 8.00533,4.4704 z m 5.00015,3.32416 c 0,-1.22486 0.57418,-3.56323 1.27599,-5.19638 0.80427,-1.87165 1.27597,-2.14607 1.27597,-0.74232 0,1.22485 -0.57418,3.5632 -1.27597,5.19637 -0.8043,1.87165 -1.27599,2.14608 -1.27599,0.74233 z M 42.464619,801.93314 c -0.464913,-0.75226 -0.03325,-6.10322 0.959252,-11.89106 1.613149,-9.40709 1.538247,-10.78965 -0.705996,-13.03389 -2.357628,-2.35763 -3.239024,-2.12242 -14.468969,3.86114 -12.54463,6.68406 -15.321888,6.8854 -17.868886,1.29535 -1.317283,-2.89114 -0.403523,-5.39687 6.071749,-16.64988 4.802022,-8.34516 7.361684,-14.3802 6.91775,-16.31035 C 22.146677,743.88758 12.452084,722.07283 6.900046,712.14486 2.0649314,703.49888 0.27218,697.88853 2.3445108,697.88853 c 0.4294878,0 9.7667662,9.10618 20.7495112,20.23597 17.955058,18.19548 20.383935,20.15579 24.087501,19.44063 2.265384,-0.43748 9.307862,-1.61984 15.649927,-2.62752 10.53798,-1.67434 11.784636,-1.60263 14.475635,0.8327 4.73328,4.28355 3.528611,7.10049 -6.630449,15.50436 -5.266266,4.35641 -9.89795,8.76226 -10.292637,9.79079 -1.231527,3.20931 4.164202,6.54578 13.308245,8.22918 13.530696,2.49099 16.38449,6.12103 6.83391,8.69273 -3.115334,0.83888 -7.240429,3.20299 -9.166876,5.2536 -1.926463,2.05062 -4.284788,3.72839 -5.240759,3.72839 -0.955957,0 -2.947359,1.33621 -4.425344,2.96937 -1.477984,1.63315 -3.557369,2.96935 -4.62086,2.96935 -1.063491,0 -3.799385,2.33835 -6.079781,5.19635 -4.12998,5.17605 -6.920823,6.42903 -8.527915,3.82871 z M 329.27286,748.36767 c -2.07619,-1.63316 -5.37912,-2.96937 -7.33985,-2.96937 -1.96071,0 -4.8618,-0.98091 -6.44688,-2.1798 -1.58508,-1.19889 -4.58564,-2.20104 -6.6679,-2.22701 -2.08227,-0.026 -4.62173,-0.88236 -5.64326,-1.90307 -1.02154,-1.02072 -4.65141,-1.85585 -8.06637,-1.85585 -9.91558,0 -9.01603,-3.81433 2.40595,-10.20187 9.30669,-5.2046 12.34191,-8.56512 10.47064,-11.59289 -0.5043,-0.81598 -6.18537,-3.85795 -12.6246,-6.7599 -10.47935,-4.72273 -11.70768,-5.70222 -11.70768,-9.33573 0,-2.23269 0.83512,-4.73709 1.85584,-5.56536 1.02072,-0.82827 8.20285,-2.34108 15.96032,-3.36182 7.75746,-1.02073 14.86476,-2.44887 15.79401,-3.17367 2.54211,-1.98275 19.09952,-32.13332 22.10448,-40.25158 1.44559,-3.90542 3.25555,-7.48837 4.02215,-7.96215 3.46947,-2.14427 3.83301,2.63382 1.20445,15.8314 -1.54218,7.74304 -3.24923,20.1002 -3.79347,27.46033 l -0.98957,13.3821 11.26491,10.77731 c 6.19571,5.92751 11.26493,11.61582 11.26493,12.64065 0,1.02483 -0.98762,3.27334 -2.1947,4.99672 -2.12456,3.03322 -2.53446,3.06865 -12.82289,1.10827 -5.84551,-1.11381 -11.86761,-2.41849 -13.38244,-2.89927 -1.95969,-0.62199 -3.22503,0.15917 -4.3863,2.70789 -1.36885,3.00425 -0.89179,5.04862 2.95732,12.67368 2.5242,5.0004 4.58945,10.11285 4.58945,11.36098 0,3.13604 -3.33039,2.83825 -7.82854,-0.69999 z M 92.129125,727.04245 c 0,-1.92999 0.661485,-6.99706 1.469968,-11.2602 1.564824,-8.25124 0.167769,-13.43968 -3.618805,-13.43968 -1.124392,0 -6.679621,2.67242 -12.344941,5.93873 -5.665317,3.26629 -10.9653,5.93871 -11.777761,5.93871 -2.031177,0 -6.391431,-5.00524 -6.391431,-7.3369 0,-1.04869 3.37692,-7.89714 7.504273,-15.21876 l 7.504258,-13.31205 -6.157713,-14.35794 c -3.386748,-7.89687 -8.754419,-19.28746 -11.928174,-25.31243 -8.59256,-16.31189 -5.199352,-18.06992 6.601527,-3.42026 3.73755,4.63981 12.121629,13.29187 18.631299,19.22681 l 11.83577,10.7908 15.868055,-2.47141 15.86804,-2.4714 2.73566,3.55804 c 1.5046,1.95694 2.75048,4.02902 2.76865,4.60465 0.0181,0.57561 -4.60829,4.9183 -10.28099,9.65042 -14.83039,12.37139 -13.96203,14.38589 8.55118,19.83765 7.84136,1.89887 8.00575,5.7377 0.33085,7.72647 -2.82653,0.73243 -6.61585,2.77895 -8.42074,4.54783 -4.97139,4.87223 -11.31816,9.36774 -14.74752,10.44587 -1.6898,0.53124 -4.54925,2.96348 -6.35434,5.405 -3.973312,5.37421 -7.647115,5.82102 -7.647115,0.93005 z m 85.640935,-19.33057 c -0.43354,-1.12976 -0.0581,-6.77123 0.83431,-12.53662 1.28198,-8.2824 1.22012,-10.96739 -0.29475,-12.7927 -2.62604,-3.16416 -2.89899,-3.09616 -14.56281,3.62853 -12.01983,6.92993 -14.28895,7.22442 -17.53179,2.27522 -2.3204,-3.54136 -2.14305,-4.11323 5.31984,-17.15438 5.13954,-8.9812 7.47216,-14.58063 6.97807,-16.75086 -1.24225,-5.45672 -10.84795,-27.13652 -16.50697,-37.25576 -10.6097,-18.97192 -6.56588,-17.32522 16.79112,6.83755 l 18.95525,19.60918 16.19539,-2.6213 16.19544,-2.62133 2.6072,3.21978 c 1.43399,1.77089 2.60724,4.10759 2.60724,5.19269 0,1.08509 -4.33375,5.52078 -9.63058,9.85712 -5.29682,4.33633 -9.63951,9.038 -9.65041,10.44819 -0.0276,3.55425 5.36878,6.66698 13.64648,7.87164 12.49581,1.81851 15.24796,7.02043 4.75566,8.9888 -3.11887,0.5851 -6.16216,2.40554 -7.54206,4.51154 -1.27234,1.94186 -3.14113,3.53064 -4.15283,3.53064 -1.01171,0 -3.64172,1.67026 -5.84446,3.7117 -2.20275,2.04143 -4.89343,3.7117 -5.97929,3.7117 -1.08589,0 -3.75789,2.33838 -5.93781,5.19638 -4.27672,5.60707 -6.01707,6.36115 -7.25224,3.14229 z"
       id="path3318"
       inkscape:connector-curvature="0"
       sodipodi:nodetypes="scsscscssssssssssssssssssssscsssssssscsssscsssssssssssssssssssssccsssssscsscssscsccscssscsccsscsssssssssssssccsscscsssssccssssssscsssssssssssssssssssssssssscssssssssssssssssssssssssssssscsssssssssssssssssssssssssssssssssssssssssssssssssscsssssssssssssssscsssscccscsssssssssssssssscccssscssssssss" />
  </g>
</svg>
