<?xml version="1.0" encoding="UTF-8" standalone="no"?>
<!-- Created with Inkscape (http://www.inkscape.org/) -->

<svg
   xmlns:dc="http://purl.org/dc/elements/1.1/"
   xmlns:cc="http://creativecommons.org/ns#"
   xmlns:rdf="http://www.w3.org/1999/02/22-rdf-syntax-ns#"
   xmlns:svg="http://www.w3.org/2000/svg"
   xmlns="http://www.w3.org/2000/svg"
   xmlns:sodipodi="http://sodipodi.sourceforge.net/DTD/sodipodi-0.dtd"
   xmlns:inkscape="http://www.inkscape.org/namespaces/inkscape"
   width="325"
   height="450"
   id="svg2982"
   version="1.1"
   inkscape:version="0.48.4 r9939"
   sodipodi:docname="rupee.svg">
  <defs
     id="defs2984" />
  <sodipodi:namedview
     id="base"
     pagecolor="#ffffff"
     bordercolor="#666666"
     borderopacity="1.0"
     inkscape:pageopacity="0.0"
     inkscape:pageshadow="2"
     inkscape:zoom="1.02"
     inkscape:cx="138.43503"
     inkscape:cy="212.82181"
     inkscape:document-units="px"
     inkscape:current-layer="layer1"
     showgrid="false"
     inkscape:window-width="1301"
     inkscape:window-height="744"
     inkscape:window-x="65"
     inkscape:window-y="24"
     inkscape:window-maximized="1" />
  <metadata
     id="metadata2987">
    <rdf:RDF>
      <cc:Work
         rdf:about="">
        <dc:format>image/svg+xml</dc:format>
        <dc:type
           rdf:resource="http://purl.org/dc/dcmitype/StillImage" />
      </cc:Work>
    </rdf:RDF>
  </metadata>
  <g
     inkscape:label="Layer 1"
     inkscape:groupmode="layer"
     id="layer1"
     transform="translate(0,-602.36218)">
    <path
       style="fill:#ffffff"
       d="m 197.9041,1051.9159 -14.11294,-0.809 -6.83136,-7.9984 c -3.75723,-4.3992 -15.37946,-18.4691 -25.82713,-31.2665 C 119.40264,972.97559 62.87856,905.3611 45.334137,885.28504 36.229809,874.86693 25.606209,862.6123 21.726152,858.0525 l -7.054655,-8.29053 0.513933,-18.57654 c 0.282666,-10.21712 1.041831,-19.39457 1.687025,-20.39438 0.876742,-1.35861 8.957913,-1.82509 31.990203,-1.84662 16.949413,-0.0159 35.398013,-0.68588 40.996903,-1.48892 43.526739,-6.24317 72.142419,-25.32587 83.400149,-55.61638 1.72044,-4.62909 3.12807,-10.2872 3.12807,-12.57358 l 0,-4.15703 -20.72314,-0.83729 c -11.39773,-0.46052 -50.16262,-1.20648 -86.144216,-1.65772 -35.981583,-0.45121 -65.9219239,-1.32122 -66.5340629,-1.93339 -1.131484,-1.13148 0.447097,-3.52053 18.3023939,-27.6994 l 10.078037,-13.64721 68.865548,0.68942 c 37.87605,0.37918 69.16891,0.38606 69.53967,0.0153 1.49585,-1.49585 -5.44815,-12.25863 -11.89448,-18.43569 -9.35039,-8.95986 -24.56229,-16.13443 -43.47315,-20.5038 -13.04793,-3.01472 -21.933759,-3.89125 -50.721426,-5.00337 -19.196182,-0.74157 -40.301074,-1.37188 -46.899762,-1.40071 -7.1611339,-0.0313 -11.9976109,-0.65111 -11.9976109,-1.53757 0,-1.75418 24.9449409,-36.40143 28.0828919,-39.00569 1.704926,-1.41497 32.405451,-1.43962 146.641337,-0.1178 79.46674,0.91954 145.0219,2.1677 145.67813,2.77366 1.23967,1.1447 -5.9095,14.04531 -11.29619,20.38386 -1.69932,1.9996 -5.59992,7.39852 -8.66803,11.99761 l -5.57835,8.36197 -11.09341,0.0858 c -6.10135,0.0472 -23.30302,0.0116 -38.2259,-0.0791 -14.92291,-0.0908 -27.49866,0.42738 -27.94613,1.1514 -0.44746,0.72401 0.87722,3.54091 2.94376,6.25975 4.33142,5.6987 11.74564,21.17815 14.20905,29.66575 l 1.68832,5.81702 20.30015,0.91326 c 11.16507,0.50229 29.95277,0.9931 41.75043,1.09069 12.1381,0.10035 21.45027,0.76499 21.45027,1.53085 0,1.76972 -5.23697,10.13763 -11.70921,18.70961 -2.84078,3.76239 -7.3785,10.1128 -10.0838,14.112 -2.70533,3.9992 -5.61636,7.74315 -6.469,8.31986 -0.85263,0.5767 -13.32972,0.90391 -27.72685,0.72711 l -26.1766,-0.32143 -3.28768,10.17979 c -8.1483,25.23 -17.83166,39.32079 -39.21812,57.06848 -9.95482,8.26108 -29.4005,19.95145 -39.42725,23.70293 -19.63784,7.34746 -50.59054,14.41564 -63.492559,14.49879 -8.27019,0.0535 -8.99708,1.94236 -3.50877,9.11873 11.650509,15.23389 60.614829,74.50107 85.661389,103.68589 7.60555,8.86217 20.67172,24.56814 29.0359,34.90215 14.70044,18.16247 27.36765,33.37137 43.32618,52.01957 4.19917,4.9069 7.63484,9.7444 7.63484,10.7501 0,1.9315 -31.55126,2.166 -61.37628,0.4562 z"
       id="path3027"
       inkscape:connector-curvature="0" />
  </g>
</svg>
