<?xml version="1.0" encoding="UTF-8" standalone="no"?>
<!-- Created with Inkscape (http://www.inkscape.org/) -->

<svg
   xmlns:dc="http://purl.org/dc/elements/1.1/"
   xmlns:cc="http://creativecommons.org/ns#"
   xmlns:rdf="http://www.w3.org/1999/02/22-rdf-syntax-ns#"
   xmlns:svg="http://www.w3.org/2000/svg"
   xmlns="http://www.w3.org/2000/svg"
   xmlns:sodipodi="http://sodipodi.sourceforge.net/DTD/sodipodi-0.dtd"
   xmlns:inkscape="http://www.inkscape.org/namespaces/inkscape"
   width="440"
   height="450"
   id="svg3096"
   version="1.1"
   inkscape:version="0.48.4 r9939"
   sodipodi:docname="tools.svg">
  <defs
     id="defs3098" />
  <sodipodi:namedview
     id="base"
     pagecolor="#ffffff"
     bordercolor="#666666"
     borderopacity="1.0"
     inkscape:pageopacity="0.0"
     inkscape:pageshadow="2"
     inkscape:zoom="0.64802615"
     inkscape:cx="641.18519"
     inkscape:cy="374.39058"
     inkscape:document-units="px"
     inkscape:current-layer="layer1"
     showgrid="false"
     inkscape:window-width="1301"
     inkscape:window-height="744"
     inkscape:window-x="65"
     inkscape:window-y="24"
     inkscape:window-maximized="1" />
  <metadata
     id="metadata3101">
    <rdf:RDF>
      <cc:Work
         rdf:about="">
        <dc:format>image/svg+xml</dc:format>
        <dc:type
           rdf:resource="http://purl.org/dc/dcmitype/StillImage" />
        <dc:title />
      </cc:Work>
    </rdf:RDF>
  </metadata>
  <g
     inkscape:label="Layer 1"
     inkscape:groupmode="layer"
     id="layer1"
     transform="translate(0,-602.36218)">
    <path
       style="fill:#ffffff;fill-opacity:1"
       d="m 391.59829,1049.4896 c -5.25453,-4.2191 -42.45091,-43.4897 -81.88299,-86.44909 -27.90312,-30.39911 -30.763,-33.85017 -33.33393,-40.22418 -7.35303,-18.2301 -23.89183,-34.99925 -41.42402,-42.00098 -9.10379,-3.63572 -12.3853,-5.6903 -12.3853,-7.75449 0,-0.79038 2.27227,-5.92655 5.04948,-11.41375 3.66611,-7.24342 5.06933,-11.17749 5.12187,-14.35972 0.0692,-4.18448 -0.0719,-4.39835 -3.11355,-4.72043 -2.46181,-0.2607 -4.04126,0.47073 -6.94884,3.21792 -4.94425,4.67151 -63.50276,73.86063 -82.31485,97.25814 l -4.61988,5.74603 0.59049,16.77952 0.59048,16.77954 -3.95021,15.354 c -5.35695,20.82199 -8.56017,26.60209 -20.59119,37.15629 -13.89547,12.1898 -22.936826,16.0459 -37.616622,16.0427 -8.588867,0 -10.923055,-0.4453 -19.511923,-3.7071 -8.80113,-3.3425 -9.895662,-4.0543 -11.183312,-7.2726 -1.223702,-3.0585 -1.780496,-3.47 -3.902391,-2.8848 -1.361263,0.3754 -3.572571,0.9048 -4.914022,1.1764 C 27.964372,1039.6895 7.470379,1012.0931 3.4662084,995.40396 1.52021,987.2932 0.7669982,973.49216 1.9048237,966.79476 5.2470421,947.12206 18.89622,925.95612 36.157046,913.6794 c 10.601325,-7.54014 13.909441,-8.61026 31.485716,-10.18487 12.674479,-1.13549 17.478451,-2.35826 20.965334,-5.33641 4.024165,-3.43704 81.270844,-95.32861 86.920394,-103.39928 3.82948,-5.4706 2.98287,-9.16534 -4.13066,-18.02681 -5.98894,-7.46054 -57.61811,-62.52654 -74.189894,-79.12848 -7.253756,-7.26701 -12.698961,-11.60099 -25.582467,-20.36178 -2.802232,-1.90553 -7.41193,-6.22719 -10.243767,-9.6037 -6.065686,-7.23238 -17.34375,-24.44295 -17.34375,-26.46695 0,-1.91372 10.39565,-14.14285 12.708511,-14.94995 1.018455,-0.3554 2.856097,-0.0664 4.083674,0.64235 5.100717,2.94468 20.583055,16.52553 24.138999,21.17434 6.631754,8.6699 30.209654,41.93158 32.944334,46.47502 1.56099,2.59349 4.75099,5.67232 7.90454,7.62911 4.81938,2.99046 22.0979,19.54047 30.3656,29.08529 2.95402,3.41037 3.33361,4.47775 3.09699,8.70843 -0.30694,5.48809 1.4939,6.55667 4.05851,2.4082 l 1.49201,-2.41344 4.23666,4.45606 c 5.34225,5.6189 23.92651,18.60581 26.6249,18.60581 1.11525,0 4.2421,-1.63965 6.94863,-3.6436 6.35449,-4.70508 20.90635,-19.74924 20.90635,-21.61367 0,-0.78993 -0.91485,-3.141 -2.03299,-5.22464 -3.35827,-6.25805 -4.84686,-14.32919 -5.45665,-29.58621 -1.34942,-33.76208 3.96291,-48.88612 25.45492,-72.46939 10.13594,-11.12222 13.02244,-13.62813 20.57075,-17.85845 20.13812,-11.28608 37.09152,-13.39446 40.99357,-5.09808 0.82224,1.7482 2.17032,3.17852 2.99573,3.17852 2.19842,0 -1.02617,5.86739 -12.48329,22.7142 -10.01362,14.72426 -10.15016,15.09486 -9.61375,26.09113 0.52696,10.80299 8.54441,38.9227 12.46093,43.70446 0.95913,1.17101 2.83118,2.58606 4.16013,3.14455 5.09624,2.14173 35.14782,8.37189 40.44586,8.38506 5.37463,0.0134 10.95603,-4.30086 27.75587,-21.45418 9.24022,-9.43465 17.14981,-17.15392 17.5769,-17.15392 0.42709,0 1.29933,6.637 1.93832,14.74888 0.63899,8.11187 1.33192,16.63807 1.53982,18.94709 0.80244,8.91149 -9.67132,33.61702 -21.72738,51.25049 -7.99833,11.69859 -18.2205,20.02589 -35.31198,28.76629 l -7.31698,3.74182 -20.97532,0 c -11.53641,0 -24.89649,-0.37158 -29.68903,-0.82572 l -8.7137,-0.82573 -5.46687,6.18894 c -3.00675,3.40394 -7.33852,8.79611 -9.62613,11.98263 -3.72081,5.18289 -4.12857,6.31369 -3.86796,10.72645 l 0.29133,4.93277 3.90237,-0.17877 c 2.17751,-0.0999 7.12438,-1.87766 11.19184,-4.02242 10.99933,-5.79985 10.7476,-5.93108 16.62751,8.66792 2.09947,5.21269 5.47936,12.05573 7.51085,15.20672 5.00977,7.77047 19.04865,20.32036 29.66669,26.52016 10.11019,5.90326 18.18461,13.41948 49.63565,46.2041 25.08562,26.14926 33.59883,36.14787 35.68991,41.91711 2.72374,7.51471 3.62448,8.82224 6.89502,10.009 1.79246,0.6504 4.76979,3.20968 6.61631,5.68727 2.40328,3.22464 4.55412,4.85666 7.56907,5.74324 6.18499,1.81877 12.34143,7.16443 14.53753,12.62296 1.02909,2.55791 2.14797,8.25208 2.48639,12.65378 0.57186,7.4383 0.41666,8.4105 -2.19971,13.7782 -1.54823,3.1763 -6.76614,10.1676 -11.59535,15.5363 -9.73306,10.8201 -16.6111,15.2294 -25.2349,16.1773 -4.47013,0.4913 -5.45386,0.193 -9.15065,-2.7753 l 0,0 z m -326.097221,-7.6098 c 0,-1.5732 -0.650398,-2.1452 -2.438994,-2.1452 -2.295596,0 -3.269617,1.9471 -1.788589,3.5755 1.455627,1.6004 4.227583,0.6627 4.227583,-1.4303 z m 18.240376,-33.3823 c 3.688351,-2.5063 12.085723,-13.09456 14.564086,-18.36394 1.159323,-2.46491 1.444085,-5.08786 1.070692,-9.86229 -0.632537,-8.08788 -5.086675,-23.6574 -7.539385,-26.35411 -2.328903,-2.56055 -12.92671,-6.20312 -22.62767,-7.77731 -8.768781,-1.42295 -9.670556,-1.07179 -18.117233,7.05498 -7.640577,7.35119 -12.907564,14.65226 -12.907564,17.8924 0,7.45969 8.609994,33.55287 11.519891,34.91187 4.818774,2.2506 16.232724,4.5645 22.998618,4.6626 6.250969,0.091 8.316181,-0.3143 11.038565,-2.1642 z m 276.245245,-39.28928 3.19646,-2.94977 -2.49967,-6.19346 c -2.84401,-7.04659 -4.4046,-8.06233 -13.88233,-9.03541 -5.88217,-0.60393 -6.09617,-0.53749 -6.69317,2.07783 -0.3392,1.48593 -0.47272,4.06702 -0.29667,5.73576 0.27637,2.6197 0.91965,3.19054 4.71025,4.17982 3.65379,0.95357 4.69004,1.81581 6.17783,5.14037 2.19612,4.90739 4.786,5.19875 9.2873,1.04486 z M 228.44978,746.29651 c 0.52329,-1.5133 0.95144,-4.9257 0.95144,-7.58312 0,-4.3971 -0.19744,-4.80084 -2.1951,-4.48891 -1.99449,0.31145 -2.22144,1.00437 -2.48356,7.58312 -0.23903,5.99975 -0.0259,7.24033 1.24366,7.24033 0.84264,0 1.96024,-1.23813 2.48356,-2.75142 z"
       id="path3083"
       inkscape:connector-curvature="0" />
  </g>
</svg>
